<?xml version="1.0" standalone="no"?>
<!DOCTYPE svg PUBLIC "-//W3C//DTD SVG 1.1//EN" "http://www.w3.org/Graphics/SVG/1.1/DTD/svg11.dtd" >
<svg xmlns="http://www.w3.org/2000/svg">
<metadata></metadata>
<defs>
<font id="gogoiaregular" horiz-adv-x="378" >
<font-face units-per-em="1000" ascent="750" descent="-250" />
<missing-glyph horiz-adv-x="248" />
<glyph horiz-adv-x="0" />
<glyph horiz-adv-x="0" />
<glyph unicode="&#xd;" horiz-adv-x="248" />
<glyph unicode=" "  horiz-adv-x="248" />
<glyph unicode="&#x09;" horiz-adv-x="248" />
<glyph unicode="&#xa0;" horiz-adv-x="248" />
<glyph unicode="!" horiz-adv-x="118" d="M81 153q0 -9 -6.5 -15.5t-15.5 -6.5t-15.5 6.5t-6.5 15.5v525q0 9 6.5 15.5t15.5 6.5t15.5 -6.5t6.5 -15.5v-525zM59 0q-14 0 -24 10t-10 24t10 23.5t24 9.5t24 -9.5t10 -23.5t-10 -24t-24 -10z" />
<glyph unicode="&#x22;" horiz-adv-x="215" d="M91 570q0 -9 -7 -15.5t-16 -6.5q-10 0 -17 6.5t-7 15.5l-4 103q0 11 8 19t20 8q11 0 19 -8t8 -19zM171 570q0 -9 -7 -15.5t-16 -6.5q-10 0 -17 6.5t-7 15.5l-4 103q0 11 8 19t20 8q11 0 19 -8t8 -19z" />
<glyph unicode="#" horiz-adv-x="422" d="M355 174q9 0 15.5 -6.5t6.5 -15.5t-6.5 -15.5t-15.5 -6.5h-54v-108q0 -9 -6.5 -15.5t-15.5 -6.5t-15.5 6.5t-6.5 15.5v108h-76v-108q0 -9 -6.5 -15.5t-15.5 -6.5t-15.5 6.5t-6.5 15.5v108h-54q-9 0 -15.5 6.5t-6.5 15.5t6.5 15.5t15.5 6.5h54v354h-54q-9 0 -15.5 6.5 t-6.5 15.5t6.5 15.5t15.5 6.5h54v106q0 9 6.5 15.5t15.5 6.5t15.5 -6.5t6.5 -15.5v-106h76v106q0 9 6.5 15.5t15.5 6.5t15.5 -6.5t6.5 -15.5v-106h54q9 0 15.5 -6.5t6.5 -15.5t-6.5 -15.5t-15.5 -6.5h-54v-354h54zM181 174h76v354h-76v-354z" />
<glyph unicode="$" horiz-adv-x="328" d="M187 418q48 -19 77 -57t29 -83v-139q0 -46 -30 -81t-76 -43v-39q0 -18 -18 -18t-18 18v38q-50 5 -83 40.5t-33 84.5q0 9 6.5 15.5t15.5 6.5t15.5 -6.5t6.5 -15.5q0 -31 20 -53.5t52 -27.5v326q-51 19 -81 56t-30 81v31q0 47 32 81t79 39v38q0 18 18 18t18 -18v-39 q44 -8 72.5 -41.5t28.5 -77.5q0 -9 -6.5 -15.5t-15.5 -6.5t-15.5 6.5t-6.5 15.5q0 26 -16 46.5t-41 27.5v-208zM84 521q0 -58 67 -89v196q-29 -5 -48 -26t-19 -50v-31zM249 139v139q0 27 -17 52t-45 40v-310q27 8 44.5 29.5t17.5 49.5z" />
<glyph unicode="%" horiz-adv-x="303" d="M259 698l-248 -683q-4 -10 2 -17.5t16 -7.5q13 0 17 13l246 682q4 10 -2 17.5t-15 7.5q-11 0 -16 -12zM109 700q29 0 50 -21t21 -50t-21 -50t-50 -21t-50 21t-21 50t21 50t50 21zM109 662q-13 0 -23 -10t-10 -23t10 -23t23 -10t23 10t10 23t-10 23t-23 10zM195 0 q-29 0 -50 21t-21 50t21 50t50 21t50 -21t21 -50t-21 -50t-50 -21zM195 38q13 0 23 10t10 23t-10 23t-23 10t-23 -10t-10 -23t10 -23t23 -10z" />
<glyph unicode="&#x26;" horiz-adv-x="606" d="M602 35q4 -5 4 -13q0 -9 -7 -15.5t-16 -6.5q-10 0 -17 10l-74 106q-30 -55 -88 -90.5t-126 -35.5q-99 0 -168.5 70t-69.5 168q0 90 59.5 157.5t147.5 78.5l-9 13l-1 2q-25 37 -25 82q0 61 44 105t105 44t105 -44t44 -105t-44 -105t-105 -44q-8 0 -26 2l138 -195v90 q0 22 20 22t20 -22v-112q0 -16 -3 -31zM361 666q-43 0 -74 -31t-31 -74t31 -74t74 -31t74 31t31 74t-31 74t-74 31zM278 34q61 0 115 33.5t72 85.5l-188 269q-80 -1 -136.5 -57.5t-56.5 -136.5t57 -137t137 -57z" />
<glyph unicode="'" horiz-adv-x="135" d="M91 570q0 -9 -7 -15.5t-16 -6.5q-10 0 -17 6.5t-7 15.5l-4 103q0 11 8 19t20 8q11 0 19 -8t8 -19z" />
<glyph unicode="(" horiz-adv-x="221" d="M189 0q9 0 15.5 -6.5t6.5 -15.5t-6.5 -15.5t-15.5 -6.5q-51 0 -87.5 35.5t-36.5 85.5v546q0 50 36.5 85.5t87.5 35.5q9 0 15.5 -6.5t6.5 -15.5t-6.5 -15.5t-15.5 -6.5q-33 0 -56.5 -22.5t-23.5 -54.5v-546q0 -32 23.5 -54.5t56.5 -22.5z" />
<glyph unicode=")" horiz-adv-x="221" d="M32 0q33 0 56.5 22.5t23.5 54.5v546q0 32 -23.5 54.5t-56.5 22.5q-9 0 -15.5 6.5t-6.5 15.5t6.5 15.5t15.5 6.5q51 0 87.5 -35.5t36.5 -85.5v-546q0 -50 -36.5 -85.5t-87.5 -35.5q-9 0 -15.5 6.5t-6.5 15.5t6.5 15.5t15.5 6.5z" />
<glyph unicode="*" horiz-adv-x="248" d="M217 662q3 -8 -1 -15.5t-12 -9.5l-48 -15l30 -41q12 -16 -5 -28q-6 -5 -14.5 -3.5t-12.5 8.5l-30 41l-30 -41q-4 -7 -12.5 -8.5t-14.5 3.5q-17 12 -5 28l30 41l-48 15q-8 2 -12 9.5t-1 15.5q2 8 9.5 11.5t15.5 1.5l48 -16v51q0 8 6 14t14 6t14 -6t6 -14v-51l48 16 q8 2 15.5 -1.5t9.5 -11.5z" />
<glyph unicode="+" horiz-adv-x="414" d="M362 272q9 0 15.5 -6.5t6.5 -15.5t-6.5 -15.5t-15.5 -6.5h-133v-135q0 -9 -6.5 -15.5t-15.5 -6.5t-15.5 6.5t-6.5 15.5v135h-133q-9 0 -15.5 6.5t-6.5 15.5t6.5 15.5t15.5 6.5h133v131q0 9 6.5 15.5t15.5 6.5t15.5 -6.5t6.5 -15.5v-131h133z" />
<glyph unicode="," horiz-adv-x="178" d="M114 15l-21 -65q-5 -15 -19 -15q-10 0 -16 7t-3 18l11 46q-16 9 -16 27q0 15 9.5 24.5t25.5 9.5q15 0 24 -9t9 -24q0 -7 -4 -19z" />
<glyph unicode="-" horiz-adv-x="283" d="M261 272q9 0 15.5 -6.5t6.5 -15.5t-6.5 -15.5t-15.5 -6.5h-239q-9 0 -15.5 6.5t-6.5 15.5t6.5 15.5t15.5 6.5h239z" />
<glyph unicode="." horiz-adv-x="118" d="M59 0q-14 0 -24 10t-10 24t10 23.5t24 9.5t24 -9.5t10 -23.5t-10 -24t-24 -10z" />
<glyph unicode="/" horiz-adv-x="347" d="M71 -10q16 0 20 15l213 678q4 11 -3.5 19t-17.5 8q-15 0 -19 -15l-214 -677q-3 -10 3.5 -19t17.5 -9z" />
<glyph unicode="0" d="M189 -10q51 0 87.5 35.5t36.5 85.5v478q0 50 -36.5 85.5t-87.5 35.5t-87.5 -35.5t-36.5 -85.5v-478q0 -50 36.5 -85.5t87.5 -35.5zM189 666q33 0 56.5 -22.5t23.5 -54.5v-478q0 -32 -23.5 -54.5t-56.5 -22.5t-56.5 22.5t-23.5 54.5v478q0 32 23.5 54.5t56.5 22.5z" />
<glyph unicode="1" horiz-adv-x="207" d="M150 682v-660q0 -9 -6.5 -15.5t-15.5 -6.5t-15.5 6.5t-6.5 15.5v605l-28 -30q-6 -6 -15.5 -6t-15.5 5q-7 6 -7 15.5t6 15.5l66 70q7 7 16 7t15.5 -6t6.5 -16z" />
<glyph unicode="2" horiz-adv-x="320" d="M265 554l-173 -510h149q22 0 22 -22q0 -9 -6.5 -15.5t-15.5 -6.5h-179q-11 0 -18 9.5t-3 19.5l181 530q7 20 7 47q0 23 -15.5 41.5t-44.5 18.5q-26 0 -41.5 -17t-16.5 -43q0 -9 -6.5 -15t-15.5 -6t-15.5 6.5t-6.5 15.5q0 43 29.5 73t73.5 30q43 0 73 -29t30 -75 q0 -28 -8 -52z" />
<glyph unicode="3" horiz-adv-x="323" d="M211 361q33 -10 55 -40.5t22 -64.5v-140q0 -52 -38 -89t-91 -37q-54 0 -91.5 36.5t-37.5 89.5q0 9 6.5 15.5t15.5 6.5t15.5 -6.5t6.5 -15.5q0 -35 24.5 -58.5t60.5 -23.5q35 0 60 24t25 58v140q0 37 -23.5 59.5t-61.5 22.5h-53q-9 0 -15.5 6.5t-6.5 15.5t6.5 15.5 t15.5 6.5h53q36 0 58 21t22 56v130q0 32 -23.5 54.5t-56.5 22.5q-34 0 -57 -22.5t-23 -54.5q0 -9 -6.5 -15.5t-15.5 -6.5t-15.5 6.5t-6.5 15.5q0 50 36 85.5t88 35.5q51 0 87.5 -35.5t36.5 -85.5v-130q0 -32 -20 -60.5t-52 -37.5z" />
<glyph unicode="4" horiz-adv-x="363" d="M276 700q9 0 15.5 -6.5t6.5 -15.5v-656q0 -9 -6.5 -15.5t-15.5 -6.5t-15.5 6.5t-6.5 15.5v360h-124q-33 0 -56.5 23t-23.5 56v217q0 9 6.5 15.5t15.5 6.5t15.5 -6.5t6.5 -15.5v-217q0 -14 11 -24.5t25 -10.5h124v252q0 9 6.5 15.5t15.5 6.5z" />
<glyph unicode="5" horiz-adv-x="387" d="M206 500q51 0 88.5 -39t37.5 -93v-235q0 -55 -39 -94t-95 -39t-94.5 39t-38.5 94q0 9 6 15.5t16 6.5q9 0 15.5 -6.5t6.5 -15.5q0 -37 26 -63t63 -26t63.5 26t26.5 63v235q0 36 -25.5 62t-62.5 26t-62.5 -26t-25.5 -62q0 -9 -6.5 -16t-15.5 -7t-15.5 7t-6.5 16v310 q0 9 6.5 15.5t15.5 6.5h192q9 0 15.5 -6.5t6.5 -15.5t-6.5 -15.5t-15.5 -6.5h-170v-196q34 40 94 40z" />
<glyph unicode="6" d="M199 500q44 0 79 -36t35 -85v-268q0 -50 -36.5 -85.5t-87.5 -35.5t-87.5 35.5t-36.5 85.5v478q0 50 36.5 85.5t87.5 35.5q52 0 88 -35.5t36 -85.5q0 -9 -6.5 -15.5t-15.5 -6.5t-15.5 6.5t-6.5 15.5q0 32 -23 54.5t-57 22.5q-33 0 -56.5 -22.5t-23.5 -54.5v-129 q30 40 90 40zM269 379q0 32 -23.5 54.5t-56.5 22.5t-56.5 -22.5t-23.5 -54.5v-268q0 -32 23.5 -54.5t56.5 -22.5t56.5 22.5t23.5 54.5v268z" />
<glyph unicode="7" horiz-adv-x="332" d="M52 700q-9 0 -15.5 -6.5t-6.5 -15.5t6.5 -15.5t15.5 -6.5h185l-148 -630q-3 -11 4.5 -18.5t18.5 -7.5q16 0 20 15l154 656q3 13 -3 21t-19 8h-212z" />
<glyph unicode="8" horiz-adv-x="388" d="M318 589q0 54 -36 87.5t-88 33.5t-88 -33.5t-36 -87.5v-101q0 -32 20 -60.5t52 -37.5q-33 -10 -55 -40.5t-22 -64.5v-169q0 -52 38 -89t91 -37t91 37t38 89v169q0 34 -22 64.5t-55 40.5q32 9 52 37.5t20 60.5v101zM114 589q0 35 22 56t58 21t58 -21t22 -56v-101 q0 -35 -22 -56t-58 -21t-58 21t-22 56v101zM279 116q0 -34 -25 -58t-60 -24t-60 24t-25 58v169q0 37 23.5 59.5t61.5 22.5t61.5 -22.5t23.5 -59.5v-169z" />
<glyph unicode="9" d="M179 200q-44 0 -79 36t-35 85v268q0 50 36.5 85.5t87.5 35.5t87.5 -35.5t36.5 -85.5v-478q0 -50 -36.5 -85.5t-87.5 -35.5q-52 0 -88 35.5t-36 85.5q0 9 6.5 15.5t15.5 6.5t15.5 -6.5t6.5 -15.5q0 -32 23 -54.5t57 -22.5q33 0 56.5 22.5t23.5 54.5v129q-30 -40 -90 -40z M109 321q0 -32 23.5 -54.5t56.5 -22.5t56.5 22.5t23.5 54.5v268q0 32 -23.5 54.5t-56.5 22.5t-56.5 -22.5t-23.5 -54.5v-268z" />
<glyph unicode=":" horiz-adv-x="118" d="M59 317q-14 0 -24 10t-10 24t10 23.5t24 9.5t24 -9.5t10 -23.5t-10 -24t-24 -10zM59 0q-14 0 -24 10t-10 24t10 23.5t24 9.5t24 -9.5t10 -23.5t-10 -24t-24 -10z" />
<glyph unicode=";" horiz-adv-x="120" d="M59 317q-14 0 -24 10t-10 24t10 23.5t24 9.5t24 -9.5t10 -23.5t-10 -24t-24 -10zM89 15l-21 -65q-4 -15 -19 -15q-10 0 -16 7t-3 18l11 46q-16 9 -16 27q0 15 9.5 24.5t25.5 9.5q15 0 24 -9t9 -24q0 -7 -4 -19z" />
<glyph unicode="&#x3c;" horiz-adv-x="205" d="M57 250l125 -217q7 -12 -0.5 -22.5t-19.5 -10.5q-11 0 -18 11l-131 229q-7 10 0 22l131 227q7 11 18 11q12 0 19.5 -10.5t0.5 -22.5z" />
<glyph unicode="=" horiz-adv-x="496" d="M370 335q9 0 15.5 -6.5t6.5 -15.5t-6.5 -15.5t-15.5 -6.5h-239q-9 0 -15.5 6.5t-6.5 15.5t6.5 15.5t15.5 6.5h239zM370 209q9 0 15.5 -6.5t6.5 -15.5t-6.5 -15.5t-15.5 -6.5h-239q-9 0 -15.5 6.5t-6.5 15.5t6.5 15.5t15.5 6.5h239z" />
<glyph unicode="&#x3e;" horiz-adv-x="205" d="M148 250l-125 217q-7 12 0.5 22.5t19.5 10.5q11 0 18 -11l131 -227q7 -12 0 -22l-131 -229q-7 -11 -18 -11q-12 0 -19.5 10.5t-0.5 22.5z" />
<glyph unicode="?" horiz-adv-x="369" d="M182 710q58 0 100 -42t42 -100q0 -53 -35.5 -93t-87.5 -48v-274q0 -9 -6.5 -15.5t-15.5 -6.5t-15.5 6.5t-6.5 15.5v295q0 9 6.5 15.5t15.5 6.5h3q40 0 69 29t29 69t-29 69t-69 29t-69 -29t-29 -69q0 -9 -6.5 -15.5t-15.5 -6.5t-15.5 6.5t-6.5 15.5q0 58 42 100t100 42z M179 67q14 0 24 -9.5t10 -23.5t-10 -24t-24 -10t-24 10t-10 24t10 23.5t24 9.5z" />
<glyph unicode="@" horiz-adv-x="568" d="M284 660q97 0 165.5 -67.5t68.5 -163.5v-193q0 -29 -22 -51t-51 -22q-48 0 -66 49q-40 -49 -95 -49q-51 0 -87.5 35.5t-36.5 85.5v29q0 50 36.5 85.5t87.5 35.5q26 0 48 -11t32 -29v21q0 35 -22 56t-58 21q-32 0 -59 -22q-11 -9 -22 -3.5t-12 16.5t9 22q38 31 84 31 q51 0 87.5 -35.5t36.5 -85.5v-179q0 -15 11 -26t26 -11t26 11t11 26v193q0 81 -58 138t-140 57t-140 -57t-58 -138v-158q0 -81 58 -138t140 -57q49 0 93 23q11 6 19.5 0t8.5 -16t-11 -16q-51 -27 -110 -27q-97 0 -165.5 67.5t-68.5 163.5v158q0 96 68.5 163.5t165.5 67.5z M364 284v29q0 35 -22 56t-58 21t-58 -21t-22 -56v-29q0 -35 22 -56t58 -21t58 21t22 56z" />
<glyph unicode="A" horiz-adv-x="368" d="M109 22q0 -9 -6.5 -15.5t-15.5 -6.5t-15.5 6.5t-6.5 15.5v562q0 52 35.5 89t83.5 37t83.5 -37t35.5 -89v-562q0 -9 -6.5 -15.5t-15.5 -6.5t-15.5 6.5t-6.5 15.5v306h-150v-306zM259 372v212q0 35 -21.5 58.5t-53.5 23.5t-53.5 -23.5t-21.5 -58.5v-212h150z" />
<glyph unicode="B" horiz-adv-x="403" d="M223 495q71 -26 113 -91t42 -151q0 -106 -59.5 -179.5t-143.5 -73.5h-89q-8 0 -14.5 6.5t-6.5 15.5v655q0 9 6.5 16t15.5 7h72q46 0 79 -34.5t33 -82.5q0 -60 -48 -88zM109 509h50q28 0 48 22t20 52t-20 51.5t-48 21.5h-50v-147zM175 44q67 0 113 60.5t46 148.5 t-46.5 150t-112.5 62h-66v-421h66z" />
<glyph unicode="C" horiz-adv-x="363" d="M291 133q9 0 15.5 -6.5t6.5 -15.5q0 -50 -36 -85.5t-88 -35.5q-51 0 -87.5 35.5t-36.5 85.5v478q0 50 36.5 85.5t87.5 35.5q52 0 88 -35.5t36 -85.5q0 -9 -6.5 -15.5t-15.5 -6.5t-15.5 6.5t-6.5 15.5q0 32 -23 54.5t-57 22.5q-33 0 -56.5 -22.5t-23.5 -54.5v-478 q0 -32 23.5 -54.5t56.5 -22.5q34 0 57 22.5t23 54.5q0 9 6.5 15.5t15.5 6.5z" />
<glyph unicode="D" d="M187 700q52 0 89 -36.5t37 -89.5v-448q0 -53 -37 -89.5t-89 -36.5h-100q-9 0 -15.5 6.5t-6.5 15.5v656q0 9 6.5 15.5t15.5 6.5h100zM269 126v448q0 34 -24 58t-58 24h-78v-612h78q34 0 58 24t24 58z" />
<glyph unicode="E" horiz-adv-x="294" d="M217 166h-108v-87q0 -14 11 -24.5t25 -10.5h72q9 0 15.5 -6.5t6.5 -15.5t-6.5 -15.5t-15.5 -6.5h-72q-33 0 -56.5 23t-23.5 56v542q0 33 23.5 56t56.5 23h72q9 0 15.5 -6.5t6.5 -15.5t-6.5 -15.5t-15.5 -6.5h-72q-14 0 -25 -10.5t-11 -24.5v-411h108q9 0 15.5 -6.5 t6.5 -15.5t-6.5 -15.5t-15.5 -6.5z" />
<glyph unicode="F" horiz-adv-x="340" d="M109 22q0 -9 -6.5 -15.5t-15.5 -6.5t-15.5 6.5t-6.5 15.5v599q0 33 23.5 56t56.5 23h138q9 0 15.5 -6.5t6.5 -15.5t-6.5 -15.5t-15.5 -6.5h-138q-14 0 -25 -10.5t-11 -24.5v-239h127q9 0 15.5 -6.5t6.5 -15.5t-6.5 -15.5t-15.5 -6.5h-127v-316z" />
<glyph unicode="G" d="M291 372q9 0 15.5 -6.5t6.5 -15.5v-239q0 -50 -36 -85.5t-88 -35.5q-51 0 -87.5 35.5t-36.5 85.5v478q0 50 36.5 85.5t87.5 35.5q52 0 88 -35.5t36 -85.5q0 -9 -6.5 -15.5t-15.5 -6.5t-15.5 6.5t-6.5 15.5q0 32 -23 54.5t-57 22.5q-33 0 -56.5 -22.5t-23.5 -54.5v-478 q0 -32 23.5 -54.5t56.5 -22.5q34 0 57 22.5t23 54.5v217h-61q-9 0 -15.5 6.5t-6.5 15.5t6.5 15.5t15.5 6.5h83z" />
<glyph unicode="H" horiz-adv-x="368" d="M109 372h150v306q0 9 6.5 15.5t15.5 6.5t15.5 -6.5t6.5 -15.5v-656q0 -9 -6.5 -15.5t-15.5 -6.5t-15.5 6.5t-6.5 15.5v306h-150v-306q0 -9 -6.5 -15.5t-15.5 -6.5t-15.5 6.5t-6.5 15.5v656q0 9 6.5 15.5t15.5 6.5t15.5 -6.5t6.5 -15.5v-306z" />
<glyph unicode="I" horiz-adv-x="174" d="M109 22q0 -9 -6.5 -15.5t-15.5 -6.5t-15.5 6.5t-6.5 15.5v656q0 9 6.5 15.5t15.5 6.5t15.5 -6.5t6.5 -15.5v-656z" />
<glyph unicode="J" horiz-adv-x="323" d="M236 700q9 0 15.5 -6.5t6.5 -15.5v-567q0 -50 -36.5 -85.5t-87.5 -35.5q-52 0 -88 35.5t-36 85.5q0 9 6.5 15.5t15.5 6.5t15.5 -6.5t6.5 -15.5q0 -32 23 -54.5t57 -22.5q33 0 56.5 22.5t23.5 54.5v567q0 9 6.5 15.5t15.5 6.5z" />
<glyph unicode="K" horiz-adv-x="366" d="M243 412q34 -4 53.5 -26.5t19.5 -54.5v-309q0 -9 -6.5 -15.5t-15.5 -6.5t-15.5 6.5t-6.5 15.5v309q0 19 -13 32t-32 13h-118v-354q0 -9 -6.5 -15.5t-15.5 -6.5t-15.5 6.5t-6.5 15.5v656q0 9 6.5 15.5t15.5 6.5t15.5 -6.5t6.5 -15.5v-258h70q17 0 29.5 13t12.5 31v120 q0 9 6.5 15.5t15.5 6.5t15.5 -6.5t6.5 -15.5v-120q0 -29 -22 -52z" />
<glyph unicode="L" horiz-adv-x="309" d="M267 0h-122q-33 0 -56.5 23t-23.5 56v599q0 9 6.5 15.5t15.5 6.5t15.5 -6.5t6.5 -15.5v-599q0 -14 11 -24.5t25 -10.5h122q9 0 15.5 -6.5t6.5 -15.5t-6.5 -15.5t-15.5 -6.5z" />
<glyph unicode="M" horiz-adv-x="386" d="M299 0q-9 0 -15.5 6.5t-6.5 15.5v519l-62 -195q-5 -18 -22 -18t-22 18l-62 195v-519q0 -9 -6.5 -15.5t-15.5 -6.5t-15.5 6.5t-6.5 15.5v656q0 9 6.5 15.5t15.5 6.5q16 0 21 -16l85 -268l85 268q5 16 21 16q9 0 15.5 -6.5t6.5 -15.5v-656q0 -9 -6.5 -15.5t-15.5 -6.5z" />
<glyph unicode="N" d="M291 700q9 0 15.5 -6.5t6.5 -15.5v-656q0 -9 -6.5 -15.5t-15.5 -6.5q-16 0 -21 15l-161 519v-512q0 -9 -6.5 -15.5t-15.5 -6.5t-15.5 6.5t-6.5 15.5v656q0 9 6.5 15.5t15.5 6.5q16 0 21 -15l161 -519v512q0 9 6.5 15.5t15.5 6.5z" />
<glyph unicode="O" d="M189 -10q51 0 87.5 35.5t36.5 85.5v478q0 50 -36.5 85.5t-87.5 35.5t-87.5 -35.5t-36.5 -85.5v-478q0 -50 36.5 -85.5t87.5 -35.5zM189 666q33 0 56.5 -22.5t23.5 -54.5v-478q0 -32 -23.5 -54.5t-56.5 -22.5t-56.5 22.5t-23.5 54.5v478q0 32 23.5 54.5t56.5 22.5z" />
<glyph unicode="P" horiz-adv-x="380" d="M221 700q47 0 80.5 -34.5t33.5 -82.5t-33.5 -82.5t-80.5 -34.5h-112v-444q0 -9 -6.5 -15.5t-15.5 -6.5t-15.5 6.5t-6.5 15.5v656q0 9 6.5 15.5t15.5 6.5h134zM221 510q29 0 49.5 21.5t20.5 51.5t-20.5 51.5t-49.5 21.5h-112v-146h112z" />
<glyph unicode="Q" d="M320 9q13 -13 0 -26q-12 -12 -26 0l-31 31q-34 -24 -74 -24q-51 0 -87.5 35.5t-36.5 85.5v478q0 50 36.5 85.5t87.5 35.5t87.5 -35.5t36.5 -85.5v-478q0 -39 -24 -71zM189 34q23 0 43 12l-32 32q-13 13 0 26q12 12 25 0l33 -33q11 19 11 40v478q0 32 -23.5 54.5 t-56.5 22.5t-56.5 -22.5t-23.5 -54.5v-478q0 -32 23.5 -54.5t56.5 -22.5z" />
<glyph unicode="R" horiz-adv-x="400" d="M109 22q0 -9 -6.5 -15.5t-15.5 -6.5t-15.5 6.5t-6.5 15.5v656q0 9 6.5 15.5t15.5 6.5h134q47 0 80.5 -34.5t33.5 -82.5q0 -60 -52 -94q52 -31 52 -91v-376q0 -9 -6.5 -15.5t-15.5 -6.5t-15.5 6.5t-6.5 15.5v376q-1 29 -20.5 48.5t-49.5 19.5h-112v-444zM109 656v-146h112 q29 0 49.5 21.5t20.5 51.5t-20.5 51.5t-49.5 21.5h-112z" />
<glyph unicode="S" horiz-adv-x="328" d="M293 285v-169q0 -52 -38 -89t-91 -37q-54 0 -91.5 36.5t-37.5 89.5q0 9 6.5 15.5t15.5 6.5t15.5 -6.5t6.5 -15.5q0 -35 24.5 -58.5t60.5 -23.5q35 0 60 24t25 58v169q0 33 -25 62.5t-63 40.5q-56 17 -88.5 55.5t-32.5 84.5v61q0 50 36.5 85.5t87.5 35.5q52 0 88 -35.5 t36 -85.5q0 -9 -6.5 -15.5t-15.5 -6.5t-15.5 6.5t-6.5 15.5q0 32 -23 54.5t-57 22.5q-33 0 -56.5 -22.5t-23.5 -54.5v-61q0 -32 24.5 -59t65.5 -39q53 -17 86 -57t33 -88z" />
<glyph unicode="T" horiz-adv-x="302" d="M255 700q9 0 15.5 -6.5t6.5 -15.5t-6.5 -15.5t-15.5 -6.5h-82v-634q0 -9 -6.5 -15.5t-15.5 -6.5t-15.5 6.5t-6.5 15.5v634h-82q-9 0 -15.5 6.5t-6.5 15.5t6.5 15.5t15.5 6.5h208z" />
<glyph unicode="U" horiz-adv-x="368" d="M109 116q0 -37 20.5 -59.5t54.5 -22.5t54.5 22.5t20.5 59.5v562q0 9 6.5 15.5t15.5 6.5t15.5 -6.5t6.5 -15.5v-562q0 -57 -33 -91.5t-86 -34.5t-86 34.5t-33 91.5v562q0 9 6.5 15.5t15.5 6.5t15.5 -6.5t6.5 -15.5v-562z" />
<glyph unicode="V" horiz-adv-x="356" d="M279 700q9 0 15.5 -6.5t6.5 -15.5v-459q0 -11 -4 -18l-100 -190q-6 -11 -19 -11t-19 11l-100 190q-4 7 -4 18v459q0 9 6.5 15.5t15.5 6.5t15.5 -6.5t6.5 -15.5v-459l79 -151l79 151v459q0 9 6.5 15.5t15.5 6.5z" />
<glyph unicode="W" horiz-adv-x="386" d="M299 700q9 0 15.5 -6.5t6.5 -15.5v-656q0 -9 -6.5 -15.5t-15.5 -6.5q-16 0 -21 16l-85 268l-85 -268q-5 -16 -21 -16q-9 0 -15.5 6.5t-6.5 15.5v656q0 9 6.5 15.5t15.5 6.5t15.5 -6.5t6.5 -15.5v-519l62 195q5 18 22 18t22 -18l62 -195v519q0 9 6.5 15.5t15.5 6.5z" />
<glyph unicode="X" horiz-adv-x="347" d="M311 29q4 -13 -3 -21t-18 -8q-16 0 -21 15l-95 277l-96 -277q-4 -15 -21 -15q-11 0 -18 8t-3 21l114 331l-107 311q-4 12 3.5 20.5t18.5 8.5q15 0 20 -15l89 -257l88 257q5 15 20 15q11 0 18.5 -8.5t3.5 -20.5l-107 -311z" />
<glyph unicode="Y" horiz-adv-x="324" d="M271 700q11 0 18.5 -8.5t3.5 -20.5l-108 -313v-336q0 -9 -6.5 -15.5t-15.5 -6.5t-15.5 6.5t-6.5 15.5v336l-109 313q-4 12 3.5 20.5t18.5 8.5q15 0 20 -15l89 -257l88 257q5 15 20 15z" />
<glyph unicode="Z" horiz-adv-x="341" d="M81 700q-9 0 -15.5 -6.5t-6.5 -15.5t6.5 -15.5t15.5 -6.5h162l-208 -627q-4 -13 3 -21t18 -8h228q9 0 15.5 6.5t6.5 15.5t-6.5 15.5t-15.5 6.5h-198l208 627q4 12 -3.5 20.5t-18.5 8.5h-191z" />
<glyph unicode="[" horiz-adv-x="226" d="M194 0q9 0 15.5 -6.5t6.5 -15.5t-6.5 -15.5t-15.5 -6.5h-107q-9 0 -15.5 7t-6.5 16v742q0 9 6.5 16t15.5 7h107q9 0 15.5 -6.5t6.5 -15.5t-6.5 -15.5t-15.5 -6.5h-85v-700h85z" />
<glyph unicode="\" horiz-adv-x="347" d="M283 -10q11 0 17.5 9t3.5 19l-214 677q-4 15 -19 15q-10 0 -17.5 -8t-3.5 -19l213 -678q5 -15 20 -15z" />
<glyph unicode="]" horiz-adv-x="226" d="M32 0h85v700h-85q-9 0 -15.5 6.5t-6.5 15.5t6.5 15.5t15.5 6.5h107q9 0 15.5 -7t6.5 -16v-742q0 -9 -6.5 -16t-15.5 -7h-107q-9 0 -15.5 6.5t-6.5 15.5t6.5 15.5t15.5 6.5z" />
<glyph unicode="_" horiz-adv-x="488" d="M468 -50q8 0 14 6t6 14t-6 14t-14 6h-448q-8 0 -14 -6t-6 -14t6 -14t14 -6h448z" />
<glyph unicode="a" horiz-adv-x="368" d="M109 22q0 -9 -6.5 -15.5t-15.5 -6.5t-15.5 6.5t-6.5 15.5v562q0 52 35.5 89t83.5 37t83.5 -37t35.5 -89v-562q0 -9 -6.5 -15.5t-15.5 -6.5t-15.5 6.5t-6.5 15.5v306h-150v-306zM259 372v212q0 35 -21.5 58.5t-53.5 23.5t-53.5 -23.5t-21.5 -58.5v-212h150z" />
<glyph unicode="b" horiz-adv-x="403" d="M223 495q71 -26 113 -91t42 -151q0 -106 -59.5 -179.5t-143.5 -73.5h-89q-8 0 -14.5 6.5t-6.5 15.5v655q0 9 6.5 16t15.5 7h72q46 0 79 -34.5t33 -82.5q0 -60 -48 -88zM109 509h50q28 0 48 22t20 52t-20 51.5t-48 21.5h-50v-147zM175 44q67 0 113 60.5t46 148.5 t-46.5 150t-112.5 62h-66v-421h66z" />
<glyph unicode="c" horiz-adv-x="363" d="M291 133q9 0 15.5 -6.5t6.5 -15.5q0 -50 -36 -85.5t-88 -35.5q-51 0 -87.5 35.5t-36.5 85.5v478q0 50 36.5 85.5t87.5 35.5q52 0 88 -35.5t36 -85.5q0 -9 -6.5 -15.5t-15.5 -6.5t-15.5 6.5t-6.5 15.5q0 32 -23 54.5t-57 22.5q-33 0 -56.5 -22.5t-23.5 -54.5v-478 q0 -32 23.5 -54.5t56.5 -22.5q34 0 57 22.5t23 54.5q0 9 6.5 15.5t15.5 6.5z" />
<glyph unicode="d" d="M187 700q52 0 89 -36.5t37 -89.5v-448q0 -53 -37 -89.5t-89 -36.5h-100q-9 0 -15.5 6.5t-6.5 15.5v656q0 9 6.5 15.5t15.5 6.5h100zM269 126v448q0 34 -24 58t-58 24h-78v-612h78q34 0 58 24t24 58z" />
<glyph unicode="e" horiz-adv-x="294" d="M217 166h-108v-87q0 -14 11 -24.5t25 -10.5h72q9 0 15.5 -6.5t6.5 -15.5t-6.5 -15.5t-15.5 -6.5h-72q-33 0 -56.5 23t-23.5 56v542q0 33 23.5 56t56.5 23h72q9 0 15.5 -6.5t6.5 -15.5t-6.5 -15.5t-15.5 -6.5h-72q-14 0 -25 -10.5t-11 -24.5v-411h108q9 0 15.5 -6.5 t6.5 -15.5t-6.5 -15.5t-15.5 -6.5z" />
<glyph unicode="f" horiz-adv-x="340" d="M109 22q0 -9 -6.5 -15.5t-15.5 -6.5t-15.5 6.5t-6.5 15.5v599q0 33 23.5 56t56.5 23h138q9 0 15.5 -6.5t6.5 -15.5t-6.5 -15.5t-15.5 -6.5h-138q-14 0 -25 -10.5t-11 -24.5v-239h127q9 0 15.5 -6.5t6.5 -15.5t-6.5 -15.5t-15.5 -6.5h-127v-316z" />
<glyph unicode="g" d="M291 372q9 0 15.5 -6.5t6.5 -15.5v-239q0 -50 -36 -85.5t-88 -35.5q-51 0 -87.5 35.5t-36.5 85.5v478q0 50 36.5 85.5t87.5 35.5q52 0 88 -35.5t36 -85.5q0 -9 -6.5 -15.5t-15.5 -6.5t-15.5 6.5t-6.5 15.5q0 32 -23 54.5t-57 22.5q-33 0 -56.5 -22.5t-23.5 -54.5v-478 q0 -32 23.5 -54.5t56.5 -22.5q34 0 57 22.5t23 54.5v217h-61q-9 0 -15.5 6.5t-6.5 15.5t6.5 15.5t15.5 6.5h83z" />
<glyph unicode="h" horiz-adv-x="368" d="M109 372h150v306q0 9 6.5 15.5t15.5 6.5t15.5 -6.5t6.5 -15.5v-656q0 -9 -6.5 -15.5t-15.5 -6.5t-15.5 6.5t-6.5 15.5v306h-150v-306q0 -9 -6.5 -15.5t-15.5 -6.5t-15.5 6.5t-6.5 15.5v656q0 9 6.5 15.5t15.5 6.5t15.5 -6.5t6.5 -15.5v-306z" />
<glyph unicode="i" horiz-adv-x="174" d="M109 22q0 -9 -6.5 -15.5t-15.5 -6.5t-15.5 6.5t-6.5 15.5v656q0 9 6.5 15.5t15.5 6.5t15.5 -6.5t6.5 -15.5v-656z" />
<glyph unicode="j" horiz-adv-x="323" d="M236 700q9 0 15.5 -6.5t6.5 -15.5v-567q0 -50 -36.5 -85.5t-87.5 -35.5q-52 0 -88 35.5t-36 85.5q0 9 6.5 15.5t15.5 6.5t15.5 -6.5t6.5 -15.5q0 -32 23 -54.5t57 -22.5q33 0 56.5 22.5t23.5 54.5v567q0 9 6.5 15.5t15.5 6.5z" />
<glyph unicode="k" horiz-adv-x="366" d="M243 412q34 -4 53.5 -26.5t19.5 -54.5v-309q0 -9 -6.5 -15.5t-15.5 -6.5t-15.5 6.5t-6.5 15.5v309q0 19 -13 32t-32 13h-118v-354q0 -9 -6.5 -15.5t-15.5 -6.5t-15.5 6.5t-6.5 15.5v656q0 9 6.5 15.5t15.5 6.5t15.5 -6.5t6.5 -15.5v-258h70q17 0 29.5 13t12.5 31v120 q0 9 6.5 15.5t15.5 6.5t15.5 -6.5t6.5 -15.5v-120q0 -29 -22 -52z" />
<glyph unicode="l" horiz-adv-x="309" d="M267 0h-122q-33 0 -56.5 23t-23.5 56v599q0 9 6.5 15.5t15.5 6.5t15.5 -6.5t6.5 -15.5v-599q0 -14 11 -24.5t25 -10.5h122q9 0 15.5 -6.5t6.5 -15.5t-6.5 -15.5t-15.5 -6.5z" />
<glyph unicode="m" horiz-adv-x="386" d="M299 0q-9 0 -15.5 6.5t-6.5 15.5v519l-62 -195q-5 -18 -22 -18t-22 18l-62 195v-519q0 -9 -6.5 -15.5t-15.5 -6.5t-15.5 6.5t-6.5 15.5v656q0 9 6.5 15.5t15.5 6.5q16 0 21 -16l85 -268l85 268q5 16 21 16q9 0 15.5 -6.5t6.5 -15.5v-656q0 -9 -6.5 -15.5t-15.5 -6.5z" />
<glyph unicode="n" d="M291 700q9 0 15.5 -6.5t6.5 -15.5v-656q0 -9 -6.5 -15.5t-15.5 -6.5q-16 0 -21 15l-161 519v-512q0 -9 -6.5 -15.5t-15.5 -6.5t-15.5 6.5t-6.5 15.5v656q0 9 6.5 15.5t15.5 6.5q16 0 21 -15l161 -519v512q0 9 6.5 15.5t15.5 6.5z" />
<glyph unicode="o" d="M189 -10q51 0 87.5 35.5t36.5 85.5v478q0 50 -36.5 85.5t-87.5 35.5t-87.5 -35.5t-36.5 -85.5v-478q0 -50 36.5 -85.5t87.5 -35.5zM189 666q33 0 56.5 -22.5t23.5 -54.5v-478q0 -32 -23.5 -54.5t-56.5 -22.5t-56.5 22.5t-23.5 54.5v478q0 32 23.5 54.5t56.5 22.5z" />
<glyph unicode="p" horiz-adv-x="380" d="M221 700q47 0 80.5 -34.5t33.5 -82.5t-33.5 -82.5t-80.5 -34.5h-112v-444q0 -9 -6.5 -15.5t-15.5 -6.5t-15.5 6.5t-6.5 15.5v656q0 9 6.5 15.5t15.5 6.5h134zM221 510q29 0 49.5 21.5t20.5 51.5t-20.5 51.5t-49.5 21.5h-112v-146h112z" />
<glyph unicode="q" d="M320 9q13 -13 0 -26q-12 -12 -26 0l-31 31q-34 -24 -74 -24q-51 0 -87.5 35.5t-36.5 85.5v478q0 50 36.5 85.5t87.5 35.5t87.5 -35.5t36.5 -85.5v-478q0 -39 -24 -71zM189 34q23 0 43 12l-32 32q-13 13 0 26q12 12 25 0l33 -33q11 19 11 40v478q0 32 -23.5 54.5 t-56.5 22.5t-56.5 -22.5t-23.5 -54.5v-478q0 -32 23.5 -54.5t56.5 -22.5z" />
<glyph unicode="r" horiz-adv-x="400" d="M109 22q0 -9 -6.5 -15.5t-15.5 -6.5t-15.5 6.5t-6.5 15.5v656q0 9 6.5 15.5t15.5 6.5h134q47 0 80.5 -34.5t33.5 -82.5q0 -60 -52 -94q52 -31 52 -91v-376q0 -9 -6.5 -15.5t-15.5 -6.5t-15.5 6.5t-6.5 15.5v376q-1 29 -20.5 48.5t-49.5 19.5h-112v-444zM109 656v-146h112 q29 0 49.5 21.5t20.5 51.5t-20.5 51.5t-49.5 21.5h-112z" />
<glyph unicode="s" horiz-adv-x="328" d="M293 285v-169q0 -52 -38 -89t-91 -37q-54 0 -91.5 36.5t-37.5 89.5q0 9 6.5 15.5t15.5 6.5t15.5 -6.5t6.5 -15.5q0 -35 24.5 -58.5t60.5 -23.5q35 0 60 24t25 58v169q0 33 -25 62.5t-63 40.5q-56 17 -88.5 55.5t-32.5 84.5v61q0 50 36.5 85.5t87.5 35.5q52 0 88 -35.5 t36 -85.5q0 -9 -6.5 -15.5t-15.5 -6.5t-15.5 6.5t-6.5 15.5q0 32 -23 54.5t-57 22.5q-33 0 -56.5 -22.5t-23.5 -54.5v-61q0 -32 24.5 -59t65.5 -39q53 -17 86 -57t33 -88z" />
<glyph unicode="t" horiz-adv-x="302" d="M255 700q9 0 15.5 -6.5t6.5 -15.5t-6.5 -15.5t-15.5 -6.5h-82v-634q0 -9 -6.5 -15.5t-15.5 -6.5t-15.5 6.5t-6.5 15.5v634h-82q-9 0 -15.5 6.5t-6.5 15.5t6.5 15.5t15.5 6.5h208z" />
<glyph unicode="u" horiz-adv-x="368" d="M109 116q0 -37 20.5 -59.5t54.5 -22.5t54.5 22.5t20.5 59.5v562q0 9 6.5 15.5t15.5 6.5t15.5 -6.5t6.5 -15.5v-562q0 -57 -33 -91.5t-86 -34.5t-86 34.5t-33 91.5v562q0 9 6.5 15.5t15.5 6.5t15.5 -6.5t6.5 -15.5v-562z" />
<glyph unicode="v" horiz-adv-x="356" d="M279 700q9 0 15.5 -6.5t6.5 -15.5v-459q0 -11 -4 -18l-100 -190q-6 -11 -19 -11t-19 11l-100 190q-4 7 -4 18v459q0 9 6.5 15.5t15.5 6.5t15.5 -6.5t6.5 -15.5v-459l79 -151l79 151v459q0 9 6.5 15.5t15.5 6.5z" />
<glyph unicode="w" horiz-adv-x="386" d="M299 700q9 0 15.5 -6.5t6.5 -15.5v-656q0 -9 -6.5 -15.5t-15.5 -6.5q-16 0 -21 16l-85 268l-85 -268q-5 -16 -21 -16q-9 0 -15.5 6.5t-6.5 15.5v656q0 9 6.5 15.5t15.5 6.5t15.5 -6.5t6.5 -15.5v-519l62 195q5 18 22 18t22 -18l62 -195v519q0 9 6.5 15.5t15.5 6.5z" />
<glyph unicode="x" horiz-adv-x="347" d="M311 29q4 -13 -3 -21t-18 -8q-16 0 -21 15l-95 277l-96 -277q-4 -15 -21 -15q-11 0 -18 8t-3 21l114 331l-107 311q-4 12 3.5 20.5t18.5 8.5q15 0 20 -15l89 -257l88 257q5 15 20 15q11 0 18.5 -8.5t3.5 -20.5l-107 -311z" />
<glyph unicode="y" horiz-adv-x="324" d="M271 700q11 0 18.5 -8.5t3.5 -20.5l-108 -313v-336q0 -9 -6.5 -15.5t-15.5 -6.5t-15.5 6.5t-6.5 15.5v336l-109 313q-4 12 3.5 20.5t18.5 8.5q15 0 20 -15l89 -257l88 257q5 15 20 15z" />
<glyph unicode="z" horiz-adv-x="341" d="M81 700q-9 0 -15.5 -6.5t-6.5 -15.5t6.5 -15.5t15.5 -6.5h162l-208 -627q-4 -13 3 -21t18 -8h228q9 0 15.5 6.5t6.5 15.5t-6.5 15.5t-15.5 6.5h-198l208 627q4 12 -3.5 20.5t-18.5 8.5h-191z" />
<glyph unicode="{" horiz-adv-x="268" d="M236 0q9 0 15.5 -6.5t6.5 -15.5t-6.5 -15.5t-15.5 -6.5q-51 0 -87.5 35.5t-36.5 85.5v174q0 32 -23.5 54.5t-56.5 22.5q-9 0 -15.5 6.5t-6.5 15.5t6.5 15.5t15.5 6.5q33 0 56.5 22.5t23.5 54.5v174q0 50 36.5 85.5t87.5 35.5q9 0 15.5 -6.5t6.5 -15.5t-6.5 -15.5 t-15.5 -6.5q-33 0 -56.5 -22.5t-23.5 -54.5v-174q0 -67 -69 -99q69 -32 69 -99v-174q0 -32 23.5 -54.5t56.5 -22.5z" />
<glyph unicode="}" horiz-adv-x="268" d="M32 0q33 0 56.5 22.5t23.5 54.5v174q0 67 69 99q-69 32 -69 99v174q0 32 -23.5 54.5t-56.5 22.5q-9 0 -15.5 6.5t-6.5 15.5t6.5 15.5t15.5 6.5q51 0 87.5 -35.5t36.5 -85.5v-174q0 -32 23.5 -54.5t56.5 -22.5q9 0 15.5 -6.5t6.5 -15.5t-6.5 -15.5t-15.5 -6.5 q-33 0 -56.5 -22.5t-23.5 -54.5v-174q0 -50 -36.5 -85.5t-87.5 -35.5q-9 0 -15.5 6.5t-6.5 15.5t6.5 15.5t15.5 6.5z" />
<glyph unicode="&#xa2;" horiz-adv-x="343" d="M276 165q9 0 15.5 -6.5t6.5 -15.5q0 -45 -29.5 -78.5t-74.5 -40.5v-48q0 -18 -18 -18t-18 18v47q-46 6 -77 40t-31 80v268q0 46 31 80t77 40v47q0 18 18 18t18 -18v-48q45 -7 74.5 -40.5t29.5 -78.5q0 -9 -6.5 -15.5t-15.5 -6.5t-15.5 6.5t-6.5 15.5q0 27 -17 47.5 t-43 27.5v-418q26 7 43 27.5t17 47.5q0 9 6.5 15.5t15.5 6.5zM94 143q0 -28 18 -49t46 -26v418q-28 -5 -46 -26t-18 -49v-268z" />
<glyph unicode="&#xa3;" horiz-adv-x="328" d="M271 44q9 0 15.5 -6.5t6.5 -15.5t-6.5 -15.5t-15.5 -6.5h-215q-9 0 -15.5 6.5t-6.5 15.5t7 16l14 27q30 59 30 131q0 39 -23 164h-44q-8 0 -13 5t-5 13t5 13t13 5h37q-15 92 -15 163q0 68 34 109.5t90 41.5t90 -33t34 -88q0 -9 -6.5 -15.5t-15.5 -6.5t-15.5 6.5 t-6.5 15.5q0 35 -22 56t-58 21t-58 -29.5t-22 -77.5q0 -71 15 -163h95q8 0 13 -5t5 -13t-5 -13t-13 -5h-88q23 -125 23 -164q0 -76 -40 -152h182z" />
<glyph unicode="&#xa5;" horiz-adv-x="324" d="M271 700q11 0 18.5 -8.5t3.5 -20.5l-98 -283h78q7 0 12.5 -5t5.5 -13t-5.5 -13t-12.5 -5h-88v-54h88q7 0 12.5 -5t5.5 -13t-5.5 -13t-12.5 -5h-88v-240q0 -9 -6.5 -15.5t-15.5 -6.5t-15.5 6.5t-6.5 15.5v240h-90q-7 0 -12.5 5t-5.5 13t5.5 13t12.5 5h90v54h-90 q-7 0 -12.5 5t-5.5 13t5.5 13t12.5 5h80l-99 283q-4 12 3.5 20.5t18.5 8.5q15 0 20 -15l89 -257l88 257q5 15 20 15z" />
<glyph unicode="&#xb7;" horiz-adv-x="118" d="M59 317q-14 0 -24 10t-10 24t10 23.5t24 9.5t24 -9.5t10 -23.5t-10 -24t-24 -10z" />
<glyph unicode="&#xc0;" horiz-adv-x="368" d="M157 849l62 -54q11 -11 5.5 -23t-18.5 -12q-6 0 -13 5l-63 51q-13 11 -6.5 24.5t20.5 13.5q5 0 13 -5zM109 22q0 -9 -6.5 -15.5t-15.5 -6.5t-15.5 6.5t-6.5 15.5v562q0 52 35.5 89t83.5 37t83.5 -37t35.5 -89v-562q0 -9 -6.5 -15.5t-15.5 -6.5t-15.5 6.5t-6.5 15.5v306 h-150v-306zM259 372v212q0 35 -21.5 58.5t-53.5 23.5t-53.5 -23.5t-21.5 -58.5v-212h150z" />
<glyph unicode="&#xc1;" horiz-adv-x="368" d="M213 849q8 5 13 5q14 0 20.5 -13.5t-6.5 -24.5l-63 -51q-7 -5 -13 -5q-13 0 -18.5 12t5.5 23zM109 22q0 -9 -6.5 -15.5t-15.5 -6.5t-15.5 6.5t-6.5 15.5v562q0 52 35.5 89t83.5 37t83.5 -37t35.5 -89v-562q0 -9 -6.5 -15.5t-15.5 -6.5t-15.5 6.5t-6.5 15.5v306h-150v-306 zM259 372v212q0 35 -21.5 58.5t-53.5 23.5t-53.5 -23.5t-21.5 -58.5v-212h150z" />
<glyph unicode="&#xc2;" horiz-adv-x="368" d="M263 769q-15 -17 -30 -3l-49 44l-50 -44q-15 -14 -30 3q-13 16 3 30l63 51q13 11 27 0l63 -51q16 -14 3 -30zM109 22q0 -9 -6.5 -15.5t-15.5 -6.5t-15.5 6.5t-6.5 15.5v562q0 52 35.5 89t83.5 37t83.5 -37t35.5 -89v-562q0 -9 -6.5 -15.5t-15.5 -6.5t-15.5 6.5t-6.5 15.5 v306h-150v-306zM259 372v212q0 35 -21.5 58.5t-53.5 23.5t-53.5 -23.5t-21.5 -58.5v-212h150z" />
<glyph unicode="&#xc3;" horiz-adv-x="368" d="M255 850q8 0 14 -6t6 -14q0 -29 -16 -47.5t-42 -18.5q-23 0 -41.5 22.5t-27.5 22.5q-15 0 -15 -25q0 -8 -6 -14t-14 -6t-14 6t-6 14q0 29 16 47.5t42 18.5q24 0 43 -22.5t27 -22.5q14 0 14 25q0 8 6 14t14 6zM109 22q0 -9 -6.5 -15.5t-15.5 -6.5t-15.5 6.5t-6.5 15.5v562 q0 52 35.5 89t83.5 37t83.5 -37t35.5 -89v-562q0 -9 -6.5 -15.5t-15.5 -6.5t-15.5 6.5t-6.5 15.5v306h-150v-306zM259 372v212q0 35 -21.5 58.5t-53.5 23.5t-53.5 -23.5t-21.5 -58.5v-212h150z" />
<glyph unicode="&#xc4;" horiz-adv-x="368" d="M134 772q-14 0 -24 10t-10 24t10 24t24 10t24 -10t10 -24t-10 -24t-24 -10zM234 772q-14 0 -24 10t-10 24t10 24t24 10t24 -10t10 -24t-10 -24t-24 -10zM109 22q0 -9 -6.5 -15.5t-15.5 -6.5t-15.5 6.5t-6.5 15.5v562q0 52 35.5 89t83.5 37t83.5 -37t35.5 -89v-562 q0 -9 -6.5 -15.5t-15.5 -6.5t-15.5 6.5t-6.5 15.5v306h-150v-306zM259 372v212q0 35 -21.5 58.5t-53.5 23.5t-53.5 -23.5t-21.5 -58.5v-212h150z" />
<glyph unicode="&#xc5;" horiz-adv-x="368" d="M184 749q-26 0 -42.5 16.5t-16.5 42.5q0 25 17 41.5t42 16.5t41.5 -16.5t16.5 -41.5t-16.5 -42t-41.5 -17zM184 780q11 0 19 8t8 20q0 11 -8 19t-19 8q-12 0 -20 -8t-8 -19q0 -12 8 -20t20 -8zM109 22q0 -9 -6.5 -15.5t-15.5 -6.5t-15.5 6.5t-6.5 15.5v562q0 52 35.5 89 t83.5 37t83.5 -37t35.5 -89v-562q0 -9 -6.5 -15.5t-15.5 -6.5t-15.5 6.5t-6.5 15.5v306h-150v-306zM259 372v212q0 35 -21.5 58.5t-53.5 23.5t-53.5 -23.5t-21.5 -58.5v-212h150z" />
<glyph unicode="&#xc6;" horiz-adv-x="488" d="M303 166v-87q0 -14 11 -24.5t25 -10.5h72q9 0 15.5 -6.5t6.5 -15.5t-6.5 -15.5t-15.5 -6.5h-72q-33 0 -56.5 23t-23.5 56v249h-150v-306q0 -9 -6.5 -15.5t-15.5 -6.5t-15.5 6.5t-6.5 15.5v562q0 52 35.5 89t83.5 37q64 0 100 -68q34 58 94 58h33q9 0 15.5 -6.5t6.5 -15.5 t-6.5 -15.5t-15.5 -6.5h-33q-32 0 -53.5 -23.5t-21.5 -58.5v-364h108q9 0 15.5 -6.5t6.5 -15.5t-6.5 -15.5t-15.5 -6.5h-108zM109 372h150v212q0 35 -21.5 58.5t-53.5 23.5t-53.5 -23.5t-21.5 -58.5v-212z" />
<glyph unicode="&#xc7;" horiz-adv-x="363" d="M291 133q9 0 15.5 -6.5t6.5 -15.5q0 -46 -30.5 -80t-76.5 -40l-16 -43q26 1 44 -17.5t18 -49.5q0 -35 -20.5 -56t-54.5 -21q-23 0 -43 13.5t-20 29.5q0 8 6 14t14 6q10 0 16 -8q12 -15 27 -15q16 0 25.5 10t9.5 27q0 16 -6.5 24t-12 9t-17 -0.5t-12.5 -1.5q-10 0 -14 8 t0 20l19 52q-45 7 -74.5 40.5t-29.5 78.5v478q0 50 36.5 85.5t87.5 35.5q52 0 88 -35.5t36 -85.5q0 -9 -6.5 -15.5t-15.5 -6.5t-15.5 6.5t-6.5 15.5q0 32 -23 54.5t-57 22.5q-33 0 -56.5 -22.5t-23.5 -54.5v-478q0 -32 23.5 -54.5t56.5 -22.5q34 0 57 22.5t23 54.5 q0 9 6.5 15.5t15.5 6.5z" />
<glyph unicode="&#xc8;" horiz-adv-x="294" d="M104 806q-13 11 -6.5 24.5t20.5 13.5q5 0 13 -5l62 -54q11 -11 5.5 -23t-18.5 -12q-6 0 -13 5zM217 166h-108v-87q0 -14 11 -24.5t25 -10.5h72q9 0 15.5 -6.5t6.5 -15.5t-6.5 -15.5t-15.5 -6.5h-72q-33 0 -56.5 23t-23.5 56v542q0 33 23.5 56t56.5 23h72q9 0 15.5 -6.5 t6.5 -15.5t-6.5 -15.5t-15.5 -6.5h-72q-14 0 -25 -10.5t-11 -24.5v-411h108q9 0 15.5 -6.5t6.5 -15.5t-6.5 -15.5t-15.5 -6.5z" />
<glyph unicode="&#xc9;" horiz-adv-x="294" d="M138 750q-13 0 -18.5 12t5.5 23l62 54q8 5 13 5q14 0 20.5 -13.5t-6.5 -24.5l-63 -51q-7 -5 -13 -5zM217 166h-108v-87q0 -14 11 -24.5t25 -10.5h72q9 0 15.5 -6.5t6.5 -15.5t-6.5 -15.5t-15.5 -6.5h-72q-33 0 -56.5 23t-23.5 56v542q0 33 23.5 56t56.5 23h72 q9 0 15.5 -6.5t6.5 -15.5t-6.5 -15.5t-15.5 -6.5h-72q-14 0 -25 -10.5t-11 -24.5v-411h108q9 0 15.5 -6.5t6.5 -15.5t-6.5 -15.5t-15.5 -6.5z" />
<glyph unicode="&#xca;" horiz-adv-x="294" d="M108 756q-15 -14 -30 3q-13 16 3 30l63 51q13 11 27 0l63 -51q16 -14 3 -30q-15 -17 -30 -3l-49 44zM109 621v-411h108q9 0 15.5 -6.5t6.5 -15.5t-6.5 -15.5t-15.5 -6.5h-108v-87q0 -14 11 -24.5t25 -10.5h72q9 0 15.5 -6.5t6.5 -15.5t-6.5 -15.5t-15.5 -6.5h-72 q-33 0 -56.5 23t-23.5 56v542q0 33 23.5 56t56.5 23h72q9 0 15.5 -6.5t6.5 -15.5t-6.5 -15.5t-15.5 -6.5h-72q-14 0 -25 -10.5t-11 -24.5z" />
<glyph unicode="&#xcb;" horiz-adv-x="294" d="M108 762q-14 0 -24 10t-10 24t10 24t24 10t24 -10t10 -24t-10 -24t-24 -10zM208 762q-14 0 -24 10t-10 24t10 24t24 10t24 -10t10 -24t-10 -24t-24 -10zM109 621v-411h108q9 0 15.5 -6.5t6.5 -15.5t-6.5 -15.5t-15.5 -6.5h-108v-87q0 -14 11 -24.5t25 -10.5h72 q9 0 15.5 -6.5t6.5 -15.5t-6.5 -15.5t-15.5 -6.5h-72q-33 0 -56.5 23t-23.5 56v542q0 33 23.5 56t56.5 23h72q9 0 15.5 -6.5t6.5 -15.5t-6.5 -15.5t-15.5 -6.5h-72q-14 0 -25 -10.5t-11 -24.5z" />
<glyph unicode="&#xcc;" horiz-adv-x="174" d="M60 839l62 -54q11 -11 5.5 -23t-18.5 -12q-6 0 -13 5l-63 51q-13 11 -6.5 24.5t20.5 13.5q5 0 13 -5zM109 22q0 -9 -6.5 -15.5t-15.5 -6.5t-15.5 6.5t-6.5 15.5v656q0 9 6.5 15.5t15.5 6.5t15.5 -6.5t6.5 -15.5v-656z" />
<glyph unicode="&#xcd;" horiz-adv-x="174" d="M116 839q8 5 13 5q14 0 20.5 -13.5t-6.5 -24.5l-63 -51q-7 -5 -13 -5q-13 0 -18.5 12t5.5 23zM109 22q0 -9 -6.5 -15.5t-15.5 -6.5t-15.5 6.5t-6.5 15.5v656q0 9 6.5 15.5t15.5 6.5t15.5 -6.5t6.5 -15.5v-656z" />
<glyph unicode="&#xce;" horiz-adv-x="174" d="M166 759q-15 -17 -30 -3l-49 44l-50 -44q-15 -14 -30 3q-13 16 3 30l63 51q13 11 27 0l63 -51q16 -14 3 -30zM109 22q0 -9 -6.5 -15.5t-15.5 -6.5t-15.5 6.5t-6.5 15.5v656q0 9 6.5 15.5t15.5 6.5t15.5 -6.5t6.5 -15.5v-656z" />
<glyph unicode="&#xcf;" horiz-adv-x="174" d="M37 762q-14 0 -24 10t-10 24t10 24t24 10t24 -10t10 -24t-10 -24t-24 -10zM137 762q-14 0 -24 10t-10 24t10 24t24 10t24 -10t10 -24t-10 -24t-24 -10zM109 22q0 -9 -6.5 -15.5t-15.5 -6.5t-15.5 6.5t-6.5 15.5v656q0 9 6.5 15.5t15.5 6.5t15.5 -6.5t6.5 -15.5v-656z" />
<glyph unicode="&#xd0;" horiz-adv-x="377" d="M186 700q52 0 89 -36.5t37 -89.5v-448q0 -53 -37 -89.5t-89 -36.5h-99q-9 0 -15.5 6.5t-6.5 15.5v310h-47q-8 0 -13 5t-5 13t5 13t13 5h47v310q0 9 6.5 15.5t15.5 6.5h99zM268 126v448q0 34 -24 58t-58 24h-77v-288h75q8 0 13 -5t5 -13t-5 -13t-13 -5h-75v-288h77 q34 0 58 24t24 58z" />
<glyph unicode="&#xd1;" d="M259 840q8 0 14 -6t6 -14q0 -29 -16 -47.5t-42 -18.5q-23 0 -41.5 22.5t-27.5 22.5q-15 0 -15 -25q0 -8 -6 -14t-14 -6t-14 6t-6 14q0 29 16 47.5t42 18.5q24 0 43 -22.5t27 -22.5q14 0 14 25q0 8 6 14t14 6zM291 700q9 0 15.5 -6.5t6.5 -15.5v-656q0 -9 -6.5 -15.5 t-15.5 -6.5q-16 0 -21 15l-161 519v-512q0 -9 -6.5 -15.5t-15.5 -6.5t-15.5 6.5t-6.5 15.5v656q0 9 6.5 15.5t15.5 6.5q16 0 21 -15l161 -519v512q0 9 6.5 15.5t15.5 6.5z" />
<glyph unicode="&#xd2;" d="M162 849l62 -54q11 -11 5.5 -23t-18.5 -12q-6 0 -13 5l-63 51q-13 11 -6.5 24.5t20.5 13.5q5 0 13 -5zM189 -10q51 0 87.5 35.5t36.5 85.5v478q0 50 -36.5 85.5t-87.5 35.5t-87.5 -35.5t-36.5 -85.5v-478q0 -50 36.5 -85.5t87.5 -35.5zM189 666q33 0 56.5 -22.5 t23.5 -54.5v-478q0 -32 -23.5 -54.5t-56.5 -22.5t-56.5 22.5t-23.5 54.5v478q0 32 23.5 54.5t56.5 22.5z" />
<glyph unicode="&#xd3;" d="M218 849q8 5 13 5q14 0 20.5 -13.5t-6.5 -24.5l-63 -51q-7 -5 -13 -5q-13 0 -18.5 12t5.5 23zM189 -10q51 0 87.5 35.5t36.5 85.5v478q0 50 -36.5 85.5t-87.5 35.5t-87.5 -35.5t-36.5 -85.5v-478q0 -50 36.5 -85.5t87.5 -35.5zM189 666q33 0 56.5 -22.5t23.5 -54.5v-478 q0 -32 -23.5 -54.5t-56.5 -22.5t-56.5 22.5t-23.5 54.5v478q0 32 23.5 54.5t56.5 22.5z" />
<glyph unicode="&#xd4;" d="M268 769q-15 -17 -30 -3l-49 44l-50 -44q-15 -14 -30 3q-13 16 3 30l63 51q13 11 27 0l63 -51q16 -14 3 -30zM189 -10q51 0 87.5 35.5t36.5 85.5v478q0 50 -36.5 85.5t-87.5 35.5t-87.5 -35.5t-36.5 -85.5v-478q0 -50 36.5 -85.5t87.5 -35.5zM189 666q33 0 56.5 -22.5 t23.5 -54.5v-478q0 -32 -23.5 -54.5t-56.5 -22.5t-56.5 22.5t-23.5 54.5v478q0 32 23.5 54.5t56.5 22.5z" />
<glyph unicode="&#xd5;" d="M260 850q8 0 14 -6t6 -14q0 -29 -16 -47.5t-42 -18.5q-23 0 -41.5 22.5t-27.5 22.5q-15 0 -15 -25q0 -8 -6 -14t-14 -6t-14 6t-6 14q0 29 16 47.5t42 18.5q24 0 43 -22.5t27 -22.5q14 0 14 25q0 8 6 14t14 6zM189 -10q51 0 87.5 35.5t36.5 85.5v478q0 50 -36.5 85.5 t-87.5 35.5t-87.5 -35.5t-36.5 -85.5v-478q0 -50 36.5 -85.5t87.5 -35.5zM189 666q33 0 56.5 -22.5t23.5 -54.5v-478q0 -32 -23.5 -54.5t-56.5 -22.5t-56.5 22.5t-23.5 54.5v478q0 32 23.5 54.5t56.5 22.5z" />
<glyph unicode="&#xd6;" d="M139 772q-14 0 -24 10t-10 24t10 24t24 10t24 -10t10 -24t-10 -24t-24 -10zM239 772q-14 0 -24 10t-10 24t10 24t24 10t24 -10t10 -24t-10 -24t-24 -10zM189 -10q51 0 87.5 35.5t36.5 85.5v478q0 50 -36.5 85.5t-87.5 35.5t-87.5 -35.5t-36.5 -85.5v-478 q0 -50 36.5 -85.5t87.5 -35.5zM189 666q33 0 56.5 -22.5t23.5 -54.5v-478q0 -32 -23.5 -54.5t-56.5 -22.5t-56.5 22.5t-23.5 54.5v478q0 32 23.5 54.5t56.5 22.5z" />
<glyph unicode="&#xd7;" horiz-adv-x="345" d="M298 176q16 -16 0 -31q-15 -16 -31 0l-95 95l-94 -94q-16 -14 -32 0q-6 6 -6 15.5t6 15.5l95 94l-93 93q-16 15 0 31q6 6 15 6t16 -6l93 -93l94 94q15 16 31 0q6 -6 6 -15t-6 -16l-94 -94z" />
<glyph unicode="&#xd8;" d="M266 684q47 -36 47 -95v-478q0 -50 -36.5 -85.5t-87.5 -35.5q-23 0 -41 7l-8 -46q-5 -18 -22 -16q-18 7 -15 22l10 58q-48 36 -48 96v478q0 50 36.5 85.5t87.5 35.5q22 0 44 -8l8 47q1 7 7.5 11.5t12.5 3.5q18 -5 15 -22zM109 111q0 -33 12 -51l105 602q-13 4 -37 4 q-33 0 -56.5 -22.5t-23.5 -54.5v-478zM269 111v478q0 33 -11 49l-103 -600q13 -4 34 -4q33 0 56.5 22.5t23.5 54.5z" />
<glyph unicode="&#xd9;" horiz-adv-x="368" d="M157 839l62 -54q11 -11 5.5 -23t-18.5 -12q-6 0 -13 5l-63 51q-13 11 -6.5 24.5t20.5 13.5q5 0 13 -5zM109 116q0 -37 20.5 -59.5t54.5 -22.5t54.5 22.5t20.5 59.5v562q0 9 6.5 15.5t15.5 6.5t15.5 -6.5t6.5 -15.5v-562q0 -57 -33 -91.5t-86 -34.5t-86 34.5t-33 91.5v562 q0 9 6.5 15.5t15.5 6.5t15.5 -6.5t6.5 -15.5v-562z" />
<glyph unicode="&#xda;" horiz-adv-x="368" d="M213 839q8 5 13 5q14 0 20.5 -13.5t-6.5 -24.5l-63 -51q-7 -5 -13 -5q-13 0 -18.5 12t5.5 23zM109 116q0 -37 20.5 -59.5t54.5 -22.5t54.5 22.5t20.5 59.5v562q0 9 6.5 15.5t15.5 6.5t15.5 -6.5t6.5 -15.5v-562q0 -57 -33 -91.5t-86 -34.5t-86 34.5t-33 91.5v562 q0 9 6.5 15.5t15.5 6.5t15.5 -6.5t6.5 -15.5v-562z" />
<glyph unicode="&#xdb;" horiz-adv-x="368" d="M263 759q-15 -17 -30 -3l-49 44l-50 -44q-15 -14 -30 3q-13 16 3 30l63 51q13 11 27 0l63 -51q16 -14 3 -30zM109 116q0 -37 20.5 -59.5t54.5 -22.5t54.5 22.5t20.5 59.5v562q0 9 6.5 15.5t15.5 6.5t15.5 -6.5t6.5 -15.5v-562q0 -57 -33 -91.5t-86 -34.5t-86 34.5 t-33 91.5v562q0 9 6.5 15.5t15.5 6.5t15.5 -6.5t6.5 -15.5v-562z" />
<glyph unicode="&#xdc;" horiz-adv-x="368" d="M134 762q-14 0 -24 10t-10 24t10 24t24 10t24 -10t10 -24t-10 -24t-24 -10zM234 762q-14 0 -24 10t-10 24t10 24t24 10t24 -10t10 -24t-10 -24t-24 -10zM109 116q0 -37 20.5 -59.5t54.5 -22.5t54.5 22.5t20.5 59.5v562q0 9 6.5 15.5t15.5 6.5t15.5 -6.5t6.5 -15.5v-562 q0 -57 -33 -91.5t-86 -34.5t-86 34.5t-33 91.5v562q0 9 6.5 15.5t15.5 6.5t15.5 -6.5t6.5 -15.5v-562z" />
<glyph unicode="&#xdd;" horiz-adv-x="324" d="M192 839q8 5 13 5q14 0 20.5 -13.5t-6.5 -24.5l-63 -51q-7 -5 -13 -5q-13 0 -18.5 12t5.5 23zM271 700q11 0 18.5 -8.5t3.5 -20.5l-108 -313v-336q0 -9 -6.5 -15.5t-15.5 -6.5t-15.5 6.5t-6.5 15.5v336l-109 313q-4 12 3.5 20.5t18.5 8.5q15 0 20 -15l89 -257l88 257 q5 15 20 15z" />
<glyph unicode="&#xde;" horiz-adv-x="380" d="M221 467q47 0 80.5 -34.5t33.5 -82.5t-33.5 -82.5t-80.5 -34.5h-112v-211q0 -9 -6.5 -15.5t-15.5 -6.5t-15.5 6.5t-6.5 15.5v656q0 9 6.5 15.5t15.5 6.5t15.5 -6.5t6.5 -15.5v-211h112zM221 277q29 0 49.5 21.5t20.5 51.5t-20.5 51.5t-49.5 21.5h-112v-146h112z" />
<glyph unicode="&#xdf;" horiz-adv-x="330" d="M216 390q33 -10 55 -40.5t22 -64.5v-159q0 -52 -38 -89t-91 -37h-18q-9 0 -15.5 6.5t-6.5 15.5t6.5 15.5t15.5 6.5h18q35 0 60 24t25 58v159q0 37 -23.5 59.5t-61.5 22.5h-18q-9 0 -15.5 6.5t-6.5 15.5t6.5 15.5t15.5 6.5h18q36 0 58 21t22 56v101q0 32 -23.5 54.5 t-56.5 22.5q-34 0 -57 -22.5t-23 -54.5v-567q0 -9 -6.5 -15.5t-15.5 -6.5t-15.5 6.5t-6.5 15.5v567q0 50 36 85.5t88 35.5q51 0 87.5 -35.5t36.5 -85.5v-101q0 -32 -20 -60.5t-52 -37.5z" />
<glyph unicode="&#xe0;" horiz-adv-x="368" d="M157 849l62 -54q11 -11 5.5 -23t-18.5 -12q-6 0 -13 5l-63 51q-13 11 -6.5 24.5t20.5 13.5q5 0 13 -5zM109 22q0 -9 -6.5 -15.5t-15.5 -6.5t-15.5 6.5t-6.5 15.5v562q0 52 35.5 89t83.5 37t83.5 -37t35.5 -89v-562q0 -9 -6.5 -15.5t-15.5 -6.5t-15.5 6.5t-6.5 15.5v306 h-150v-306zM259 372v212q0 35 -21.5 58.5t-53.5 23.5t-53.5 -23.5t-21.5 -58.5v-212h150z" />
<glyph unicode="&#xe1;" horiz-adv-x="368" d="M213 849q8 5 13 5q14 0 20.5 -13.5t-6.5 -24.5l-63 -51q-7 -5 -13 -5q-13 0 -18.5 12t5.5 23zM109 22q0 -9 -6.5 -15.5t-15.5 -6.5t-15.5 6.5t-6.5 15.5v562q0 52 35.5 89t83.5 37t83.5 -37t35.5 -89v-562q0 -9 -6.5 -15.5t-15.5 -6.5t-15.5 6.5t-6.5 15.5v306h-150v-306 zM259 372v212q0 35 -21.5 58.5t-53.5 23.5t-53.5 -23.5t-21.5 -58.5v-212h150z" />
<glyph unicode="&#xe2;" horiz-adv-x="368" d="M263 769q-15 -17 -30 -3l-49 44l-50 -44q-15 -14 -30 3q-13 16 3 30l63 51q13 11 27 0l63 -51q16 -14 3 -30zM109 22q0 -9 -6.5 -15.5t-15.5 -6.5t-15.5 6.5t-6.5 15.5v562q0 52 35.5 89t83.5 37t83.5 -37t35.5 -89v-562q0 -9 -6.5 -15.5t-15.5 -6.5t-15.5 6.5t-6.5 15.5 v306h-150v-306zM259 372v212q0 35 -21.5 58.5t-53.5 23.5t-53.5 -23.5t-21.5 -58.5v-212h150z" />
<glyph unicode="&#xe3;" horiz-adv-x="368" d="M255 850q8 0 14 -6t6 -14q0 -29 -16 -47.5t-42 -18.5q-23 0 -41.5 22.5t-27.5 22.5q-15 0 -15 -25q0 -8 -6 -14t-14 -6t-14 6t-6 14q0 29 16 47.5t42 18.5q24 0 43 -22.5t27 -22.5q14 0 14 25q0 8 6 14t14 6zM109 22q0 -9 -6.5 -15.5t-15.5 -6.5t-15.5 6.5t-6.5 15.5v562 q0 52 35.5 89t83.5 37t83.5 -37t35.5 -89v-562q0 -9 -6.5 -15.5t-15.5 -6.5t-15.5 6.5t-6.5 15.5v306h-150v-306zM259 372v212q0 35 -21.5 58.5t-53.5 23.5t-53.5 -23.5t-21.5 -58.5v-212h150z" />
<glyph unicode="&#xe4;" horiz-adv-x="368" d="M134 772q-14 0 -24 10t-10 24t10 24t24 10t24 -10t10 -24t-10 -24t-24 -10zM234 772q-14 0 -24 10t-10 24t10 24t24 10t24 -10t10 -24t-10 -24t-24 -10zM109 22q0 -9 -6.5 -15.5t-15.5 -6.5t-15.5 6.5t-6.5 15.5v562q0 52 35.5 89t83.5 37t83.5 -37t35.5 -89v-562 q0 -9 -6.5 -15.5t-15.5 -6.5t-15.5 6.5t-6.5 15.5v306h-150v-306zM259 372v212q0 35 -21.5 58.5t-53.5 23.5t-53.5 -23.5t-21.5 -58.5v-212h150z" />
<glyph unicode="&#xe5;" horiz-adv-x="368" d="M184 749q-26 0 -42.5 16.5t-16.5 42.5q0 25 17 41.5t42 16.5t41.5 -16.5t16.5 -41.5t-16.5 -42t-41.5 -17zM184 780q11 0 19 8t8 20q0 11 -8 19t-19 8q-12 0 -20 -8t-8 -19q0 -12 8 -20t20 -8zM109 22q0 -9 -6.5 -15.5t-15.5 -6.5t-15.5 6.5t-6.5 15.5v562q0 52 35.5 89 t83.5 37t83.5 -37t35.5 -89v-562q0 -9 -6.5 -15.5t-15.5 -6.5t-15.5 6.5t-6.5 15.5v306h-150v-306zM259 372v212q0 35 -21.5 58.5t-53.5 23.5t-53.5 -23.5t-21.5 -58.5v-212h150z" />
<glyph unicode="&#xe6;" horiz-adv-x="488" d="M303 166v-87q0 -14 11 -24.5t25 -10.5h72q9 0 15.5 -6.5t6.5 -15.5t-6.5 -15.5t-15.5 -6.5h-72q-33 0 -56.5 23t-23.5 56v249h-150v-306q0 -9 -6.5 -15.5t-15.5 -6.5t-15.5 6.5t-6.5 15.5v562q0 52 35.5 89t83.5 37q64 0 100 -68q34 58 94 58h33q9 0 15.5 -6.5t6.5 -15.5 t-6.5 -15.5t-15.5 -6.5h-33q-32 0 -53.5 -23.5t-21.5 -58.5v-364h108q9 0 15.5 -6.5t6.5 -15.5t-6.5 -15.5t-15.5 -6.5h-108zM109 372h150v212q0 35 -21.5 58.5t-53.5 23.5t-53.5 -23.5t-21.5 -58.5v-212z" />
<glyph unicode="&#xe7;" horiz-adv-x="363" d="M291 133q9 0 15.5 -6.5t6.5 -15.5q0 -46 -30.5 -80t-76.5 -40l-16 -43q26 1 44 -17.5t18 -49.5q0 -35 -20.5 -56t-54.5 -21q-23 0 -43 13.5t-20 29.5q0 8 6 14t14 6q10 0 16 -8q12 -15 27 -15q16 0 25.5 10t9.5 27q0 16 -6.5 24t-12 9t-17 -0.5t-12.5 -1.5q-10 0 -14 8 t0 20l19 52q-45 7 -74.5 40.5t-29.5 78.5v478q0 50 36.5 85.5t87.5 35.5q52 0 88 -35.5t36 -85.5q0 -9 -6.5 -15.5t-15.5 -6.5t-15.5 6.5t-6.5 15.5q0 32 -23 54.5t-57 22.5q-33 0 -56.5 -22.5t-23.5 -54.5v-478q0 -32 23.5 -54.5t56.5 -22.5q34 0 57 22.5t23 54.5 q0 9 6.5 15.5t15.5 6.5z" />
<glyph unicode="&#xe8;" horiz-adv-x="294" d="M104 806q-13 11 -6.5 24.5t20.5 13.5q5 0 13 -5l62 -54q11 -11 5.5 -23t-18.5 -12q-6 0 -13 5zM217 166h-108v-87q0 -14 11 -24.5t25 -10.5h72q9 0 15.5 -6.5t6.5 -15.5t-6.5 -15.5t-15.5 -6.5h-72q-33 0 -56.5 23t-23.5 56v542q0 33 23.5 56t56.5 23h72q9 0 15.5 -6.5 t6.5 -15.5t-6.5 -15.5t-15.5 -6.5h-72q-14 0 -25 -10.5t-11 -24.5v-411h108q9 0 15.5 -6.5t6.5 -15.5t-6.5 -15.5t-15.5 -6.5z" />
<glyph unicode="&#xe9;" horiz-adv-x="294" d="M138 750q-13 0 -18.5 12t5.5 23l62 54q8 5 13 5q14 0 20.5 -13.5t-6.5 -24.5l-63 -51q-7 -5 -13 -5zM217 166h-108v-87q0 -14 11 -24.5t25 -10.5h72q9 0 15.5 -6.5t6.5 -15.5t-6.5 -15.5t-15.5 -6.5h-72q-33 0 -56.5 23t-23.5 56v542q0 33 23.5 56t56.5 23h72 q9 0 15.5 -6.5t6.5 -15.5t-6.5 -15.5t-15.5 -6.5h-72q-14 0 -25 -10.5t-11 -24.5v-411h108q9 0 15.5 -6.5t6.5 -15.5t-6.5 -15.5t-15.5 -6.5z" />
<glyph unicode="&#xea;" horiz-adv-x="294" d="M108 756q-15 -14 -30 3q-13 16 3 30l63 51q13 11 27 0l63 -51q16 -14 3 -30q-15 -17 -30 -3l-49 44zM109 621v-411h108q9 0 15.5 -6.5t6.5 -15.5t-6.5 -15.5t-15.5 -6.5h-108v-87q0 -14 11 -24.5t25 -10.5h72q9 0 15.5 -6.5t6.5 -15.5t-6.5 -15.5t-15.5 -6.5h-72 q-33 0 -56.5 23t-23.5 56v542q0 33 23.5 56t56.5 23h72q9 0 15.5 -6.5t6.5 -15.5t-6.5 -15.5t-15.5 -6.5h-72q-14 0 -25 -10.5t-11 -24.5z" />
<glyph unicode="&#xeb;" horiz-adv-x="294" d="M108 762q-14 0 -24 10t-10 24t10 24t24 10t24 -10t10 -24t-10 -24t-24 -10zM208 762q-14 0 -24 10t-10 24t10 24t24 10t24 -10t10 -24t-10 -24t-24 -10zM109 621v-411h108q9 0 15.5 -6.5t6.5 -15.5t-6.5 -15.5t-15.5 -6.5h-108v-87q0 -14 11 -24.5t25 -10.5h72 q9 0 15.5 -6.5t6.5 -15.5t-6.5 -15.5t-15.5 -6.5h-72q-33 0 -56.5 23t-23.5 56v542q0 33 23.5 56t56.5 23h72q9 0 15.5 -6.5t6.5 -15.5t-6.5 -15.5t-15.5 -6.5h-72q-14 0 -25 -10.5t-11 -24.5z" />
<glyph unicode="&#xec;" horiz-adv-x="270" d="M108 839l62 -54q11 -11 5.5 -23t-18.5 -12q-6 0 -13 5l-63 51q-13 11 -6.5 24.5t20.5 13.5q5 0 13 -5zM193 44q9 0 15.5 -6.5t6.5 -15.5t-6.5 -15.5t-15.5 -6.5q-37 0 -58 30q-21 -30 -58 -30q-9 0 -15.5 6.5t-6.5 15.5t6.5 15.5t15.5 6.5q16 0 26 11t10 24v542 q0 13 -10 24t-26 11q-9 0 -15.5 6.5t-6.5 15.5t6.5 15.5t15.5 6.5q37 0 58 -30q21 30 58 30q9 0 15.5 -6.5t6.5 -15.5t-6.5 -15.5t-15.5 -6.5q-16 0 -26 -11t-10 -24v-542q0 -13 10 -24t26 -11z" />
<glyph unicode="&#xed;" horiz-adv-x="270" d="M193 44q9 0 15.5 -6.5t6.5 -15.5t-6.5 -15.5t-15.5 -6.5q-37 0 -58 30q-21 -30 -58 -30q-9 0 -15.5 6.5t-6.5 15.5t6.5 15.5t15.5 6.5q16 0 26 11t10 24v542q0 13 -10 24t-26 11q-9 0 -15.5 6.5t-6.5 15.5t6.5 15.5t15.5 6.5q37 0 58 -30q21 30 58 30q9 0 15.5 -6.5 t6.5 -15.5t-6.5 -15.5t-15.5 -6.5q-16 0 -26 -11t-10 -24v-542q0 -13 10 -24t26 -11z" />
<glyph unicode="&#xee;" horiz-adv-x="270" d="M214 759q-15 -17 -30 -3l-49 44l-50 -44q-15 -14 -30 3q-13 16 3 30l63 51q13 11 27 0l63 -51q16 -14 3 -30zM193 44q9 0 15.5 -6.5t6.5 -15.5t-6.5 -15.5t-15.5 -6.5q-37 0 -58 30q-21 -30 -58 -30q-9 0 -15.5 6.5t-6.5 15.5t6.5 15.5t15.5 6.5q16 0 26 11t10 24v542 q0 13 -10 24t-26 11q-9 0 -15.5 6.5t-6.5 15.5t6.5 15.5t15.5 6.5q37 0 58 -30q21 30 58 30q9 0 15.5 -6.5t6.5 -15.5t-6.5 -15.5t-15.5 -6.5q-16 0 -26 -11t-10 -24v-542q0 -13 10 -24t26 -11z" />
<glyph unicode="&#xef;" horiz-adv-x="270" d="M85 762q-14 0 -24 10t-10 24t10 24t24 10t24 -10t10 -24t-10 -24t-24 -10zM185 762q-14 0 -24 10t-10 24t10 24t24 10t24 -10t10 -24t-10 -24t-24 -10zM193 44q9 0 15.5 -6.5t6.5 -15.5t-6.5 -15.5t-15.5 -6.5q-37 0 -58 30q-21 -30 -58 -30q-9 0 -15.5 6.5t-6.5 15.5 t6.5 15.5t15.5 6.5q16 0 26 11t10 24v542q0 13 -10 24t-26 11q-9 0 -15.5 6.5t-6.5 15.5t6.5 15.5t15.5 6.5q37 0 58 -30q21 30 58 30q9 0 15.5 -6.5t6.5 -15.5t-6.5 -15.5t-15.5 -6.5q-16 0 -26 -11t-10 -24v-542q0 -13 10 -24t26 -11z" />
<glyph unicode="&#xf0;" horiz-adv-x="377" d="M186 700q52 0 89 -36.5t37 -89.5v-448q0 -53 -37 -89.5t-89 -36.5h-99q-9 0 -15.5 6.5t-6.5 15.5v310h-47q-8 0 -13 5t-5 13t5 13t13 5h47v310q0 9 6.5 15.5t15.5 6.5h99zM268 126v448q0 34 -24 58t-58 24h-77v-288h75q8 0 13 -5t5 -13t-5 -13t-13 -5h-75v-288h77 q34 0 58 24t24 58z" />
<glyph unicode="&#xf1;" d="M259 840q8 0 14 -6t6 -14q0 -29 -16 -47.5t-42 -18.5q-23 0 -41.5 22.5t-27.5 22.5q-15 0 -15 -25q0 -8 -6 -14t-14 -6t-14 6t-6 14q0 29 16 47.5t42 18.5q24 0 43 -22.5t27 -22.5q14 0 14 25q0 8 6 14t14 6zM291 700q9 0 15.5 -6.5t6.5 -15.5v-656q0 -9 -6.5 -15.5 t-15.5 -6.5q-16 0 -21 15l-161 519v-512q0 -9 -6.5 -15.5t-15.5 -6.5t-15.5 6.5t-6.5 15.5v656q0 9 6.5 15.5t15.5 6.5q16 0 21 -15l161 -519v512q0 9 6.5 15.5t15.5 6.5z" />
<glyph unicode="&#xf2;" d="M162 849l62 -54q11 -11 5.5 -23t-18.5 -12q-6 0 -13 5l-63 51q-13 11 -6.5 24.5t20.5 13.5q5 0 13 -5zM189 -10q51 0 87.5 35.5t36.5 85.5v478q0 50 -36.5 85.5t-87.5 35.5t-87.5 -35.5t-36.5 -85.5v-478q0 -50 36.5 -85.5t87.5 -35.5zM189 666q33 0 56.5 -22.5 t23.5 -54.5v-478q0 -32 -23.5 -54.5t-56.5 -22.5t-56.5 22.5t-23.5 54.5v478q0 32 23.5 54.5t56.5 22.5z" />
<glyph unicode="&#xf3;" d="M218 849q8 5 13 5q14 0 20.5 -13.5t-6.5 -24.5l-63 -51q-7 -5 -13 -5q-13 0 -18.5 12t5.5 23zM189 -10q51 0 87.5 35.5t36.5 85.5v478q0 50 -36.5 85.5t-87.5 35.5t-87.5 -35.5t-36.5 -85.5v-478q0 -50 36.5 -85.5t87.5 -35.5zM189 666q33 0 56.5 -22.5t23.5 -54.5v-478 q0 -32 -23.5 -54.5t-56.5 -22.5t-56.5 22.5t-23.5 54.5v478q0 32 23.5 54.5t56.5 22.5z" />
<glyph unicode="&#xf4;" d="M268 769q-15 -17 -30 -3l-49 44l-50 -44q-15 -14 -30 3q-13 16 3 30l63 51q13 11 27 0l63 -51q16 -14 3 -30zM189 -10q51 0 87.5 35.5t36.5 85.5v478q0 50 -36.5 85.5t-87.5 35.5t-87.5 -35.5t-36.5 -85.5v-478q0 -50 36.5 -85.5t87.5 -35.5zM189 666q33 0 56.5 -22.5 t23.5 -54.5v-478q0 -32 -23.5 -54.5t-56.5 -22.5t-56.5 22.5t-23.5 54.5v478q0 32 23.5 54.5t56.5 22.5z" />
<glyph unicode="&#xf5;" d="M260 850q8 0 14 -6t6 -14q0 -29 -16 -47.5t-42 -18.5q-23 0 -41.5 22.5t-27.5 22.5q-15 0 -15 -25q0 -8 -6 -14t-14 -6t-14 6t-6 14q0 29 16 47.5t42 18.5q24 0 43 -22.5t27 -22.5q14 0 14 25q0 8 6 14t14 6zM189 -10q51 0 87.5 35.5t36.5 85.5v478q0 50 -36.5 85.5 t-87.5 35.5t-87.5 -35.5t-36.5 -85.5v-478q0 -50 36.5 -85.5t87.5 -35.5zM189 666q33 0 56.5 -22.5t23.5 -54.5v-478q0 -32 -23.5 -54.5t-56.5 -22.5t-56.5 22.5t-23.5 54.5v478q0 32 23.5 54.5t56.5 22.5z" />
<glyph unicode="&#xf6;" d="M139 772q-14 0 -24 10t-10 24t10 24t24 10t24 -10t10 -24t-10 -24t-24 -10zM239 772q-14 0 -24 10t-10 24t10 24t24 10t24 -10t10 -24t-10 -24t-24 -10zM189 -10q51 0 87.5 35.5t36.5 85.5v478q0 50 -36.5 85.5t-87.5 35.5t-87.5 -35.5t-36.5 -85.5v-478 q0 -50 36.5 -85.5t87.5 -35.5zM189 666q33 0 56.5 -22.5t23.5 -54.5v-478q0 -32 -23.5 -54.5t-56.5 -22.5t-56.5 22.5t-23.5 54.5v478q0 32 23.5 54.5t56.5 22.5z" />
<glyph unicode="&#xf8;" d="M266 684q47 -36 47 -95v-478q0 -50 -36.5 -85.5t-87.5 -35.5q-23 0 -41 7l-8 -46q-5 -18 -22 -16q-18 7 -15 22l10 58q-48 36 -48 96v478q0 50 36.5 85.5t87.5 35.5q22 0 44 -8l8 47q1 7 7.5 11.5t12.5 3.5q18 -5 15 -22zM109 111q0 -33 12 -51l105 602q-13 4 -37 4 q-33 0 -56.5 -22.5t-23.5 -54.5v-478zM269 111v478q0 33 -11 49l-103 -600q13 -4 34 -4q33 0 56.5 22.5t23.5 54.5z" />
<glyph unicode="&#xf9;" horiz-adv-x="368" d="M157 839l62 -54q11 -11 5.5 -23t-18.5 -12q-6 0 -13 5l-63 51q-13 11 -6.5 24.5t20.5 13.5q5 0 13 -5zM109 116q0 -37 20.5 -59.5t54.5 -22.5t54.5 22.5t20.5 59.5v562q0 9 6.5 15.5t15.5 6.5t15.5 -6.5t6.5 -15.5v-562q0 -57 -33 -91.5t-86 -34.5t-86 34.5t-33 91.5v562 q0 9 6.5 15.5t15.5 6.5t15.5 -6.5t6.5 -15.5v-562z" />
<glyph unicode="&#xfa;" horiz-adv-x="368" d="M213 839q8 5 13 5q14 0 20.5 -13.5t-6.5 -24.5l-63 -51q-7 -5 -13 -5q-13 0 -18.5 12t5.5 23zM109 116q0 -37 20.5 -59.5t54.5 -22.5t54.5 22.5t20.5 59.5v562q0 9 6.5 15.5t15.5 6.5t15.5 -6.5t6.5 -15.5v-562q0 -57 -33 -91.5t-86 -34.5t-86 34.5t-33 91.5v562 q0 9 6.5 15.5t15.5 6.5t15.5 -6.5t6.5 -15.5v-562z" />
<glyph unicode="&#xfb;" horiz-adv-x="368" d="M263 759q-15 -17 -30 -3l-49 44l-50 -44q-15 -14 -30 3q-13 16 3 30l63 51q13 11 27 0l63 -51q16 -14 3 -30zM109 116q0 -37 20.5 -59.5t54.5 -22.5t54.5 22.5t20.5 59.5v562q0 9 6.5 15.5t15.5 6.5t15.5 -6.5t6.5 -15.5v-562q0 -57 -33 -91.5t-86 -34.5t-86 34.5 t-33 91.5v562q0 9 6.5 15.5t15.5 6.5t15.5 -6.5t6.5 -15.5v-562z" />
<glyph unicode="&#xfc;" horiz-adv-x="368" d="M134 762q-14 0 -24 10t-10 24t10 24t24 10t24 -10t10 -24t-10 -24t-24 -10zM234 762q-14 0 -24 10t-10 24t10 24t24 10t24 -10t10 -24t-10 -24t-24 -10zM109 116q0 -37 20.5 -59.5t54.5 -22.5t54.5 22.5t20.5 59.5v562q0 9 6.5 15.5t15.5 6.5t15.5 -6.5t6.5 -15.5v-562 q0 -57 -33 -91.5t-86 -34.5t-86 34.5t-33 91.5v562q0 9 6.5 15.5t15.5 6.5t15.5 -6.5t6.5 -15.5v-562z" />
<glyph unicode="&#xfd;" horiz-adv-x="324" d="M192 839q8 5 13 5q14 0 20.5 -13.5t-6.5 -24.5l-63 -51q-7 -5 -13 -5q-13 0 -18.5 12t5.5 23zM271 700q11 0 18.5 -8.5t3.5 -20.5l-108 -313v-336q0 -9 -6.5 -15.5t-15.5 -6.5t-15.5 6.5t-6.5 15.5v336l-109 313q-4 12 3.5 20.5t18.5 8.5q15 0 20 -15l89 -257l88 257 q5 15 20 15z" />
<glyph unicode="&#xfe;" horiz-adv-x="377" d="M186 700q52 0 89 -36.5t37 -89.5v-448q0 -53 -37 -89.5t-89 -36.5h-99q-9 0 -15.5 6.5t-6.5 15.5v310h-47q-8 0 -13 5t-5 13t5 13t13 5h47v310q0 9 6.5 15.5t15.5 6.5h99zM268 126v448q0 34 -24 58t-58 24h-77v-288h75q8 0 13 -5t5 -13t-5 -13t-13 -5h-75v-288h77 q34 0 58 24t24 58z" />
<glyph unicode="&#xff;" horiz-adv-x="324" d="M113 762q-14 0 -24 10t-10 24t10 24t24 10t24 -10t10 -24t-10 -24t-24 -10zM213 762q-14 0 -24 10t-10 24t10 24t24 10t24 -10t10 -24t-10 -24t-24 -10zM271 700q11 0 18.5 -8.5t3.5 -20.5l-108 -313v-336q0 -9 -6.5 -15.5t-15.5 -6.5t-15.5 6.5t-6.5 15.5v336l-109 313 q-4 12 3.5 20.5t18.5 8.5q15 0 20 -15l89 -257l88 257q5 15 20 15z" />
<glyph unicode="&#x100;" horiz-adv-x="368" d="M256 828q8 0 14 -6t6 -14t-6 -14t-14 -6h-144q-8 0 -14 6t-6 14t6 14t14 6h144zM109 22q0 -9 -6.5 -15.5t-15.5 -6.5t-15.5 6.5t-6.5 15.5v562q0 52 35.5 89t83.5 37t83.5 -37t35.5 -89v-562q0 -9 -6.5 -15.5t-15.5 -6.5t-15.5 6.5t-6.5 15.5v306h-150v-306zM259 372v212 q0 35 -21.5 58.5t-53.5 23.5t-53.5 -23.5t-21.5 -58.5v-212h150z" />
<glyph unicode="&#x101;" horiz-adv-x="368" d="M256 828q8 0 14 -6t6 -14t-6 -14t-14 -6h-144q-8 0 -14 6t-6 14t6 14t14 6h144zM109 22q0 -9 -6.5 -15.5t-15.5 -6.5t-15.5 6.5t-6.5 15.5v562q0 52 35.5 89t83.5 37t83.5 -37t35.5 -89v-562q0 -9 -6.5 -15.5t-15.5 -6.5t-15.5 6.5t-6.5 15.5v306h-150v-306zM259 372v212 q0 35 -21.5 58.5t-53.5 23.5t-53.5 -23.5t-21.5 -58.5v-212h150z" />
<glyph unicode="&#x102;" horiz-adv-x="368" d="M240 854q8 0 13.5 -6t5.5 -13q0 -34 -20.5 -54.5t-54.5 -20.5t-54.5 20.5t-20.5 54.5q0 7 5.5 13t13.5 6t13.5 -6t5.5 -13q0 -16 10.5 -25.5t26.5 -9.5t26.5 9.5t10.5 25.5q0 7 5.5 13t13.5 6zM109 22q0 -9 -6.5 -15.5t-15.5 -6.5t-15.5 6.5t-6.5 15.5v562q0 52 35.5 89 t83.5 37t83.5 -37t35.5 -89v-562q0 -9 -6.5 -15.5t-15.5 -6.5t-15.5 6.5t-6.5 15.5v306h-150v-306zM259 372v212q0 35 -21.5 58.5t-53.5 23.5t-53.5 -23.5t-21.5 -58.5v-212h150z" />
<glyph unicode="&#x103;" horiz-adv-x="368" d="M240 854q8 0 13.5 -6t5.5 -13q0 -34 -20.5 -54.5t-54.5 -20.5t-54.5 20.5t-20.5 54.5q0 7 5.5 13t13.5 6t13.5 -6t5.5 -13q0 -16 10.5 -25.5t26.5 -9.5t26.5 9.5t10.5 25.5q0 7 5.5 13t13.5 6zM109 22q0 -9 -6.5 -15.5t-15.5 -6.5t-15.5 6.5t-6.5 15.5v562q0 52 35.5 89 t83.5 37t83.5 -37t35.5 -89v-562q0 -9 -6.5 -15.5t-15.5 -6.5t-15.5 6.5t-6.5 15.5v306h-150v-306zM259 372v212q0 35 -21.5 58.5t-53.5 23.5t-53.5 -23.5t-21.5 -58.5v-212h150z" />
<glyph unicode="&#x104;" horiz-adv-x="368" d="M315 -133q8 0 14 -6t6 -14q0 -16 -20 -29.5t-43 -13.5q-34 0 -54.5 21t-20.5 56q0 47 62 139v2v306h-150v-306q0 -9 -6.5 -15.5t-15.5 -6.5t-15.5 6.5t-6.5 15.5v562q0 52 35.5 89t83.5 37t83.5 -37t35.5 -89v-562q0 -9 -6 -15q-60 -82 -60 -126q0 -17 9.5 -27t25.5 -10 q15 0 27 15q6 8 16 8zM259 372v212q0 35 -21.5 58.5t-53.5 23.5t-53.5 -23.5t-21.5 -58.5v-212h150z" />
<glyph unicode="&#x105;" horiz-adv-x="368" d="M109 22q0 -9 -6.5 -15.5t-15.5 -6.5t-15.5 6.5t-6.5 15.5v562q0 52 35.5 89t83.5 37t83.5 -37t35.5 -89v-562q0 -9 -6.5 -15.5t-15.5 -6.5t-15.5 6.5t-6.5 15.5v306h-150v-306zM259 372v212q0 35 -21.5 58.5t-53.5 23.5t-53.5 -23.5t-21.5 -58.5v-212h150zM119 30l31 -23 q-60 -82 -60 -126q0 -17 9.5 -27t25.5 -10q15 0 27 15q6 8 16 8q8 0 14 -6t6 -14q0 -16 -20 -29.5t-43 -13.5q-34 0 -54.5 21t-20.5 56q0 48 69 149z" />
<glyph unicode="&#x106;" horiz-adv-x="363" d="M218 849q8 5 13 5q14 0 20.5 -13.5t-6.5 -24.5l-63 -51q-7 -5 -13 -5q-13 0 -18.5 12t5.5 23zM291 133q9 0 15.5 -6.5t6.5 -15.5q0 -50 -36 -85.5t-88 -35.5q-51 0 -87.5 35.5t-36.5 85.5v478q0 50 36.5 85.5t87.5 35.5q52 0 88 -35.5t36 -85.5q0 -9 -6.5 -15.5 t-15.5 -6.5t-15.5 6.5t-6.5 15.5q0 32 -23 54.5t-57 22.5q-33 0 -56.5 -22.5t-23.5 -54.5v-478q0 -32 23.5 -54.5t56.5 -22.5q34 0 57 22.5t23 54.5q0 9 6.5 15.5t15.5 6.5z" />
<glyph unicode="&#x107;" horiz-adv-x="363" d="M218 849q8 5 13 5q14 0 20.5 -13.5t-6.5 -24.5l-63 -51q-7 -5 -13 -5q-13 0 -18.5 12t5.5 23zM291 133q9 0 15.5 -6.5t6.5 -15.5q0 -50 -36 -85.5t-88 -35.5q-51 0 -87.5 35.5t-36.5 85.5v478q0 50 36.5 85.5t87.5 35.5q52 0 88 -35.5t36 -85.5q0 -9 -6.5 -15.5 t-15.5 -6.5t-15.5 6.5t-6.5 15.5q0 32 -23 54.5t-57 22.5q-33 0 -56.5 -22.5t-23.5 -54.5v-478q0 -32 23.5 -54.5t56.5 -22.5q34 0 57 22.5t23 54.5q0 9 6.5 15.5t15.5 6.5z" />
<glyph unicode="&#x10a;" horiz-adv-x="363" d="M189 768q-16 0 -27 11t-11 27t11 27t27 11t27 -11t11 -27t-11 -27t-27 -11zM291 133q9 0 15.5 -6.5t6.5 -15.5q0 -50 -36 -85.5t-88 -35.5q-51 0 -87.5 35.5t-36.5 85.5v478q0 50 36.5 85.5t87.5 35.5q52 0 88 -35.5t36 -85.5q0 -9 -6.5 -15.5t-15.5 -6.5t-15.5 6.5 t-6.5 15.5q0 32 -23 54.5t-57 22.5q-33 0 -56.5 -22.5t-23.5 -54.5v-478q0 -32 23.5 -54.5t56.5 -22.5q34 0 57 22.5t23 54.5q0 9 6.5 15.5t15.5 6.5z" />
<glyph unicode="&#x10b;" horiz-adv-x="363" d="M189 768q-16 0 -27 11t-11 27t11 27t27 11t27 -11t11 -27t-11 -27t-27 -11zM291 133q9 0 15.5 -6.5t6.5 -15.5q0 -50 -36 -85.5t-88 -35.5q-51 0 -87.5 35.5t-36.5 85.5v478q0 50 36.5 85.5t87.5 35.5q52 0 88 -35.5t36 -85.5q0 -9 -6.5 -15.5t-15.5 -6.5t-15.5 6.5 t-6.5 15.5q0 32 -23 54.5t-57 22.5q-33 0 -56.5 -22.5t-23.5 -54.5v-478q0 -32 23.5 -54.5t56.5 -22.5q34 0 57 22.5t23 54.5q0 9 6.5 15.5t15.5 6.5z" />
<glyph unicode="&#x10c;" horiz-adv-x="363" d="M268 846q13 -16 -3 -30l-63 -51q-14 -11 -27 0l-63 51q-16 14 -3 30q15 17 30 3l50 -44l49 44q15 14 30 -3zM291 133q9 0 15.5 -6.5t6.5 -15.5q0 -50 -36 -85.5t-88 -35.5q-51 0 -87.5 35.5t-36.5 85.5v478q0 50 36.5 85.5t87.5 35.5q52 0 88 -35.5t36 -85.5 q0 -9 -6.5 -15.5t-15.5 -6.5t-15.5 6.5t-6.5 15.5q0 32 -23 54.5t-57 22.5q-33 0 -56.5 -22.5t-23.5 -54.5v-478q0 -32 23.5 -54.5t56.5 -22.5q34 0 57 22.5t23 54.5q0 9 6.5 15.5t15.5 6.5z" />
<glyph unicode="&#x10d;" horiz-adv-x="363" d="M268 846q13 -16 -3 -30l-63 -51q-14 -11 -27 0l-63 51q-16 14 -3 30q15 17 30 3l50 -44l49 44q15 14 30 -3zM291 133q9 0 15.5 -6.5t6.5 -15.5q0 -50 -36 -85.5t-88 -35.5q-51 0 -87.5 35.5t-36.5 85.5v478q0 50 36.5 85.5t87.5 35.5q52 0 88 -35.5t36 -85.5 q0 -9 -6.5 -15.5t-15.5 -6.5t-15.5 6.5t-6.5 15.5q0 32 -23 54.5t-57 22.5q-33 0 -56.5 -22.5t-23.5 -54.5v-478q0 -32 23.5 -54.5t56.5 -22.5q34 0 57 22.5t23 54.5q0 9 6.5 15.5t15.5 6.5z" />
<glyph unicode="&#x10e;" d="M256 836q13 -16 -3 -30l-63 -51q-14 -11 -27 0l-63 51q-16 14 -3 30q15 17 30 3l50 -44l49 44q15 14 30 -3zM187 700q52 0 89 -36.5t37 -89.5v-448q0 -53 -37 -89.5t-89 -36.5h-100q-9 0 -15.5 6.5t-6.5 15.5v656q0 9 6.5 15.5t15.5 6.5h100zM269 126v448q0 34 -24 58 t-58 24h-78v-612h78q34 0 58 24t24 58z" />
<glyph unicode="&#x10f;" d="M256 836q13 -16 -3 -30l-63 -51q-14 -11 -27 0l-63 51q-16 14 -3 30q15 17 30 3l50 -44l49 44q15 14 30 -3zM187 700q52 0 89 -36.5t37 -89.5v-448q0 -53 -37 -89.5t-89 -36.5h-100q-9 0 -15.5 6.5t-6.5 15.5v656q0 9 6.5 15.5t15.5 6.5h100zM269 126v448q0 34 -24 58 t-58 24h-78v-612h78q34 0 58 24t24 58z" />
<glyph unicode="&#x110;" horiz-adv-x="377" d="M186 700q52 0 89 -36.5t37 -89.5v-448q0 -53 -37 -89.5t-89 -36.5h-99q-9 0 -15.5 6.5t-6.5 15.5v310h-47q-8 0 -13 5t-5 13t5 13t13 5h47v310q0 9 6.5 15.5t15.5 6.5h99zM268 126v448q0 34 -24 58t-58 24h-77v-288h75q8 0 13 -5t5 -13t-5 -13t-13 -5h-75v-288h77 q34 0 58 24t24 58z" />
<glyph unicode="&#x111;" horiz-adv-x="377" d="M186 700q52 0 89 -36.5t37 -89.5v-448q0 -53 -37 -89.5t-89 -36.5h-99q-9 0 -15.5 6.5t-6.5 15.5v310h-47q-8 0 -13 5t-5 13t5 13t13 5h47v310q0 9 6.5 15.5t15.5 6.5h99zM268 126v448q0 34 -24 58t-58 24h-77v-288h75q8 0 13 -5t5 -13t-5 -13t-13 -5h-75v-288h77 q34 0 58 24t24 58z" />
<glyph unicode="&#x112;" horiz-adv-x="294" d="M230 818q8 0 14 -6t6 -14t-6 -14t-14 -6h-144q-8 0 -14 6t-6 14t6 14t14 6h144zM109 621v-411h108q9 0 15.5 -6.5t6.5 -15.5t-6.5 -15.5t-15.5 -6.5h-108v-87q0 -14 11 -24.5t25 -10.5h72q9 0 15.5 -6.5t6.5 -15.5t-6.5 -15.5t-15.5 -6.5h-72q-33 0 -56.5 23t-23.5 56 v542q0 33 23.5 56t56.5 23h72q9 0 15.5 -6.5t6.5 -15.5t-6.5 -15.5t-15.5 -6.5h-72q-14 0 -25 -10.5t-11 -24.5z" />
<glyph unicode="&#x113;" horiz-adv-x="294" d="M230 818q8 0 14 -6t6 -14t-6 -14t-14 -6h-144q-8 0 -14 6t-6 14t6 14t14 6h144zM109 621v-411h108q9 0 15.5 -6.5t6.5 -15.5t-6.5 -15.5t-15.5 -6.5h-108v-87q0 -14 11 -24.5t25 -10.5h72q9 0 15.5 -6.5t6.5 -15.5t-6.5 -15.5t-15.5 -6.5h-72q-33 0 -56.5 23t-23.5 56 v542q0 33 23.5 56t56.5 23h72q9 0 15.5 -6.5t6.5 -15.5t-6.5 -15.5t-15.5 -6.5h-72q-14 0 -25 -10.5t-11 -24.5z" />
<glyph unicode="&#x116;" horiz-adv-x="294" d="M158 758q-16 0 -27 11t-11 27t11 27t27 11t27 -11t11 -27t-11 -27t-27 -11zM217 166h-108v-87q0 -14 11 -24.5t25 -10.5h72q9 0 15.5 -6.5t6.5 -15.5t-6.5 -15.5t-15.5 -6.5h-72q-33 0 -56.5 23t-23.5 56v542q0 33 23.5 56t56.5 23h72q9 0 15.5 -6.5t6.5 -15.5 t-6.5 -15.5t-15.5 -6.5h-72q-14 0 -25 -10.5t-11 -24.5v-411h108q9 0 15.5 -6.5t6.5 -15.5t-6.5 -15.5t-15.5 -6.5z" />
<glyph unicode="&#x117;" horiz-adv-x="294" d="M158 758q-16 0 -27 11t-11 27t11 27t27 11t27 -11t11 -27t-11 -27t-27 -11zM217 166h-108v-87q0 -14 11 -24.5t25 -10.5h72q9 0 15.5 -6.5t6.5 -15.5t-6.5 -15.5t-15.5 -6.5h-72q-33 0 -56.5 23t-23.5 56v542q0 33 23.5 56t56.5 23h72q9 0 15.5 -6.5t6.5 -15.5 t-6.5 -15.5t-15.5 -6.5h-72q-14 0 -25 -10.5t-11 -24.5v-411h108q9 0 15.5 -6.5t6.5 -15.5t-6.5 -15.5t-15.5 -6.5z" />
<glyph unicode="&#x118;" horiz-adv-x="294" d="M231 -133q8 0 14 -6t6 -14q0 -16 -20 -29.5t-43 -13.5q-34 0 -54.5 21t-20.5 56q0 48 69 119h-37q-33 0 -56.5 23t-23.5 56v542q0 33 23.5 56t56.5 23h72q9 0 15.5 -6.5t6.5 -15.5t-6.5 -15.5t-15.5 -6.5h-72q-14 0 -25 -10.5t-11 -24.5v-239h108q9 0 15.5 -6.5 t6.5 -15.5t-6.5 -15.5t-15.5 -6.5h-108v-259q0 -14 11 -24.5t25 -10.5h72q9 0 15.5 -6.5t6.5 -15.5q0 -7 -5 -14q-28 -29 -41 -43.5t-26.5 -38.5t-13.5 -45q0 -17 9.5 -27t25.5 -10q15 0 27 15q6 8 16 8z" />
<glyph unicode="&#x119;" horiz-adv-x="294" d="M231 -133q8 0 14 -6t6 -14q0 -16 -20 -29.5t-43 -13.5q-34 0 -54.5 21t-20.5 56q0 48 69 119h-37q-33 0 -56.5 23t-23.5 56v542q0 33 23.5 56t56.5 23h72q9 0 15.5 -6.5t6.5 -15.5t-6.5 -15.5t-15.5 -6.5h-72q-14 0 -25 -10.5t-11 -24.5v-239h108q9 0 15.5 -6.5 t6.5 -15.5t-6.5 -15.5t-15.5 -6.5h-108v-259q0 -14 11 -24.5t25 -10.5h72q9 0 15.5 -6.5t6.5 -15.5q0 -7 -5 -14q-28 -29 -41 -43.5t-26.5 -38.5t-13.5 -45q0 -17 9.5 -27t25.5 -10q15 0 27 15q6 8 16 8z" />
<glyph unicode="&#x11a;" horiz-adv-x="294" d="M81 806q-16 14 -3 30q15 17 30 3l50 -44l49 44q15 14 30 -3q13 -16 -3 -30l-63 -51q-14 -11 -27 0zM109 621v-411h108q9 0 15.5 -6.5t6.5 -15.5t-6.5 -15.5t-15.5 -6.5h-108v-87q0 -14 11 -24.5t25 -10.5h72q9 0 15.5 -6.5t6.5 -15.5t-6.5 -15.5t-15.5 -6.5h-72 q-33 0 -56.5 23t-23.5 56v542q0 33 23.5 56t56.5 23h72q9 0 15.5 -6.5t6.5 -15.5t-6.5 -15.5t-15.5 -6.5h-72q-14 0 -25 -10.5t-11 -24.5z" />
<glyph unicode="&#x11b;" horiz-adv-x="294" d="M81 806q-16 14 -3 30q15 17 30 3l50 -44l49 44q15 14 30 -3q13 -16 -3 -30l-63 -51q-14 -11 -27 0zM109 621v-411h108q9 0 15.5 -6.5t6.5 -15.5t-6.5 -15.5t-15.5 -6.5h-108v-87q0 -14 11 -24.5t25 -10.5h72q9 0 15.5 -6.5t6.5 -15.5t-6.5 -15.5t-15.5 -6.5h-72 q-33 0 -56.5 23t-23.5 56v542q0 33 23.5 56t56.5 23h72q9 0 15.5 -6.5t6.5 -15.5t-6.5 -15.5t-15.5 -6.5h-72q-14 0 -25 -10.5t-11 -24.5z" />
<glyph unicode="&#x11e;" d="M186 760q-34 0 -54.5 20.5t-20.5 54.5q0 7 5.5 13t13.5 6t13.5 -6t5.5 -13q0 -16 10.5 -25.5t26.5 -9.5t26.5 9.5t10.5 25.5q0 7 5.5 13t13.5 6t13.5 -6t5.5 -13q0 -34 -20.5 -54.5t-54.5 -20.5zM291 372q9 0 15.5 -6.5t6.5 -15.5v-239q0 -50 -36 -85.5t-88 -35.5 q-51 0 -87.5 35.5t-36.5 85.5v478q0 50 36.5 85.5t87.5 35.5q52 0 88 -35.5t36 -85.5q0 -9 -6.5 -15.5t-15.5 -6.5t-15.5 6.5t-6.5 15.5q0 32 -23 54.5t-57 22.5q-33 0 -56.5 -22.5t-23.5 -54.5v-478q0 -32 23.5 -54.5t56.5 -22.5q34 0 57 22.5t23 54.5v217h-61 q-9 0 -15.5 6.5t-6.5 15.5t6.5 15.5t15.5 6.5h83z" />
<glyph unicode="&#x11f;" d="M186 760q-34 0 -54.5 20.5t-20.5 54.5q0 7 5.5 13t13.5 6t13.5 -6t5.5 -13q0 -16 10.5 -25.5t26.5 -9.5t26.5 9.5t10.5 25.5q0 7 5.5 13t13.5 6t13.5 -6t5.5 -13q0 -34 -20.5 -54.5t-54.5 -20.5zM291 372q9 0 15.5 -6.5t6.5 -15.5v-239q0 -50 -36 -85.5t-88 -35.5 q-51 0 -87.5 35.5t-36.5 85.5v478q0 50 36.5 85.5t87.5 35.5q52 0 88 -35.5t36 -85.5q0 -9 -6.5 -15.5t-15.5 -6.5t-15.5 6.5t-6.5 15.5q0 32 -23 54.5t-57 22.5q-33 0 -56.5 -22.5t-23.5 -54.5v-478q0 -32 23.5 -54.5t56.5 -22.5q34 0 57 22.5t23 54.5v217h-61 q-9 0 -15.5 6.5t-6.5 15.5t6.5 15.5t15.5 6.5h83z" />
<glyph unicode="&#x120;" d="M186 768q-16 0 -27 11t-11 27t11 27t27 11t27 -11t11 -27t-11 -27t-27 -11zM291 372q9 0 15.5 -6.5t6.5 -15.5v-239q0 -50 -36 -85.5t-88 -35.5q-51 0 -87.5 35.5t-36.5 85.5v478q0 50 36.5 85.5t87.5 35.5q52 0 88 -35.5t36 -85.5q0 -9 -6.5 -15.5t-15.5 -6.5t-15.5 6.5 t-6.5 15.5q0 32 -23 54.5t-57 22.5q-33 0 -56.5 -22.5t-23.5 -54.5v-478q0 -32 23.5 -54.5t56.5 -22.5q34 0 57 22.5t23 54.5v217h-61q-9 0 -15.5 6.5t-6.5 15.5t6.5 15.5t15.5 6.5h83z" />
<glyph unicode="&#x121;" d="M186 768q-16 0 -27 11t-11 27t11 27t27 11t27 -11t11 -27t-11 -27t-27 -11zM291 372q9 0 15.5 -6.5t6.5 -15.5v-239q0 -50 -36 -85.5t-88 -35.5q-51 0 -87.5 35.5t-36.5 85.5v478q0 50 36.5 85.5t87.5 35.5q52 0 88 -35.5t36 -85.5q0 -9 -6.5 -15.5t-15.5 -6.5t-15.5 6.5 t-6.5 15.5q0 32 -23 54.5t-57 22.5q-33 0 -56.5 -22.5t-23.5 -54.5v-478q0 -32 23.5 -54.5t56.5 -22.5q34 0 57 22.5t23 54.5v217h-61q-9 0 -15.5 6.5t-6.5 15.5t6.5 15.5t15.5 6.5h83z" />
<glyph unicode="&#x122;" d="M291 372q9 0 15.5 -6.5t6.5 -15.5v-239q0 -50 -36 -85.5t-88 -35.5q-51 0 -87.5 35.5t-36.5 85.5v478q0 50 36.5 85.5t87.5 35.5q52 0 88 -35.5t36 -85.5q0 -9 -6.5 -15.5t-15.5 -6.5t-15.5 6.5t-6.5 15.5q0 32 -23 54.5t-57 22.5q-33 0 -56.5 -22.5t-23.5 -54.5v-478 q0 -32 23.5 -54.5t56.5 -22.5q34 0 57 22.5t23 54.5v217h-61q-9 0 -15.5 6.5t-6.5 15.5t6.5 15.5t15.5 6.5h83zM185 -60q15 0 24 -9t9 -24q0 -7 -4 -19l-21 -65q-5 -15 -19 -15q-10 0 -16 7t-3 18l11 46q-16 9 -16 27q0 15 9.5 24.5t25.5 9.5z" />
<glyph unicode="&#x123;" d="M291 372q9 0 15.5 -6.5t6.5 -15.5v-239q0 -50 -36 -85.5t-88 -35.5q-51 0 -87.5 35.5t-36.5 85.5v478q0 50 36.5 85.5t87.5 35.5q52 0 88 -35.5t36 -85.5q0 -9 -6.5 -15.5t-15.5 -6.5t-15.5 6.5t-6.5 15.5q0 32 -23 54.5t-57 22.5q-33 0 -56.5 -22.5t-23.5 -54.5v-478 q0 -32 23.5 -54.5t56.5 -22.5q34 0 57 22.5t23 54.5v217h-61q-9 0 -15.5 6.5t-6.5 15.5t6.5 15.5t15.5 6.5h83zM185 -60q15 0 24 -9t9 -24q0 -7 -4 -19l-21 -65q-5 -15 -19 -15q-10 0 -16 7t-3 18l11 46q-16 9 -16 27q0 15 9.5 24.5t25.5 9.5z" />
<glyph unicode="&#x126;" horiz-adv-x="368" d="M350 577q8 0 13 -5.5t5 -12.5t-5 -12.5t-13 -5.5h-47v-519q0 -9 -6.5 -15.5t-15.5 -6.5t-15.5 6.5t-6.5 15.5v306h-150v-306q0 -9 -6.5 -15.5t-15.5 -6.5t-15.5 6.5t-6.5 15.5v519h-47q-8 0 -13 5.5t-5 12.5t5 12.5t13 5.5h47v101q0 9 6.5 15.5t15.5 6.5t15.5 -6.5 t6.5 -15.5v-101h150v101q0 9 6.5 15.5t15.5 6.5t15.5 -6.5t6.5 -15.5v-101h47zM259 372v169h-150v-169h150z" />
<glyph unicode="&#x127;" horiz-adv-x="368" d="M350 577q8 0 13 -5.5t5 -12.5t-5 -12.5t-13 -5.5h-47v-519q0 -9 -6.5 -15.5t-15.5 -6.5t-15.5 6.5t-6.5 15.5v306h-150v-306q0 -9 -6.5 -15.5t-15.5 -6.5t-15.5 6.5t-6.5 15.5v519h-47q-8 0 -13 5.5t-5 12.5t5 12.5t13 5.5h47v101q0 9 6.5 15.5t15.5 6.5t15.5 -6.5 t6.5 -15.5v-101h150v101q0 9 6.5 15.5t15.5 6.5t15.5 -6.5t6.5 -15.5v-101h47zM259 372v169h-150v-169h150z" />
<glyph unicode="&#x12a;" horiz-adv-x="174" d="M159 798q8 0 14 -6t6 -14t-6 -14t-14 -6h-144q-8 0 -14 6t-6 14t6 14t14 6h144zM109 22q0 -9 -6.5 -15.5t-15.5 -6.5t-15.5 6.5t-6.5 15.5v656q0 9 6.5 15.5t15.5 6.5t15.5 -6.5t6.5 -15.5v-656z" />
<glyph unicode="&#x12b;" horiz-adv-x="174" d="M159 798q8 0 14 -6t6 -14t-6 -14t-14 -6h-144q-8 0 -14 6t-6 14t6 14t14 6h144zM109 22q0 -9 -6.5 -15.5t-15.5 -6.5t-15.5 6.5t-6.5 15.5v656q0 9 6.5 15.5t15.5 6.5t15.5 -6.5t6.5 -15.5v-656z" />
<glyph unicode="&#x12e;" horiz-adv-x="174" d="M131 -133q8 0 14 -6t6 -14q0 -16 -20 -29.5t-43 -13.5q-34 0 -54.5 21t-20.5 56q0 59 52 141v656q0 9 6.5 15.5t15.5 6.5t15.5 -6.5t6.5 -15.5v-651q0 -11 -6 -19q-50 -73 -50 -127q0 -17 9.5 -27t25.5 -10q15 0 27 15q6 8 16 8z" />
<glyph unicode="&#x12f;" horiz-adv-x="174" d="M131 -133q8 0 14 -6t6 -14q0 -16 -20 -29.5t-43 -13.5q-34 0 -54.5 21t-20.5 56q0 59 52 141v656q0 9 6.5 15.5t15.5 6.5t15.5 -6.5t6.5 -15.5v-651q0 -11 -6 -19q-50 -73 -50 -127q0 -17 9.5 -27t25.5 -10q15 0 27 15q6 8 16 8z" />
<glyph unicode="&#x130;" horiz-adv-x="174" d="M87 758q-16 0 -27 11t-11 27t11 27t27 11t27 -11t11 -27t-11 -27t-27 -11zM109 22q0 -9 -6.5 -15.5t-15.5 -6.5t-15.5 6.5t-6.5 15.5v656q0 9 6.5 15.5t15.5 6.5t15.5 -6.5t6.5 -15.5v-656z" />
<glyph unicode="&#x131;" horiz-adv-x="270" d="M193 44q9 0 15.5 -6.5t6.5 -15.5t-6.5 -15.5t-15.5 -6.5q-37 0 -58 30q-21 -30 -58 -30q-9 0 -15.5 6.5t-6.5 15.5t6.5 15.5t15.5 6.5q16 0 26 11t10 24v542q0 13 -10 24t-26 11q-9 0 -15.5 6.5t-6.5 15.5t6.5 15.5t15.5 6.5q37 0 58 -30q21 30 58 30q9 0 15.5 -6.5 t6.5 -15.5t-6.5 -15.5t-15.5 -6.5q-16 0 -26 -11t-10 -24v-542q0 -13 10 -24t26 -11z" />
<glyph unicode="&#x132;" horiz-adv-x="471" d="M109 22q0 -9 -6.5 -15.5t-15.5 -6.5t-15.5 6.5t-6.5 15.5v656q0 9 6.5 15.5t15.5 6.5t15.5 -6.5t6.5 -15.5v-656zM384 700q9 0 15.5 -6.5t6.5 -15.5v-567q0 -50 -36.5 -85.5t-87.5 -35.5q-52 0 -88 35.5t-36 85.5q0 9 6.5 15.5t15.5 6.5t15.5 -6.5t6.5 -15.5 q0 -32 23 -54.5t57 -22.5q33 0 56.5 22.5t23.5 54.5v567q0 9 6.5 15.5t15.5 6.5z" />
<glyph unicode="&#x133;" horiz-adv-x="497" d="M109 22q0 -9 -6.5 -15.5t-15.5 -6.5t-15.5 6.5t-6.5 15.5v656q0 9 6.5 15.5t15.5 6.5t15.5 -6.5t6.5 -15.5v-656zM410 700q9 0 15.5 -6.5t6.5 -15.5v-567q0 -50 -36.5 -85.5t-87.5 -35.5q-52 0 -88 35.5t-36 85.5q0 9 6.5 15.5t15.5 6.5t15.5 -6.5t6.5 -15.5 q0 -32 23 -54.5t57 -22.5q33 0 56.5 22.5t23.5 54.5v567q0 9 6.5 15.5t15.5 6.5z" />
<glyph unicode="&#x136;" horiz-adv-x="366" d="M243 412q34 -4 53.5 -26.5t19.5 -54.5v-309q0 -9 -6.5 -15.5t-15.5 -6.5t-15.5 6.5t-6.5 15.5v309q0 19 -13 32t-32 13h-118v-354q0 -9 -6.5 -15.5t-15.5 -6.5t-15.5 6.5t-6.5 15.5v656q0 9 6.5 15.5t15.5 6.5t15.5 -6.5t6.5 -15.5v-258h70q17 0 29.5 13t12.5 31v120 q0 9 6.5 15.5t15.5 6.5t15.5 -6.5t6.5 -15.5v-120q0 -29 -22 -52zM214 -112l-21 -65q-5 -15 -19 -15q-10 0 -16 7t-3 18l11 46q-16 9 -16 27q0 15 9.5 24.5t25.5 9.5q15 0 24 -9t9 -24q0 -7 -4 -19z" />
<glyph unicode="&#x137;" horiz-adv-x="366" d="M243 412q34 -4 53.5 -26.5t19.5 -54.5v-309q0 -9 -6.5 -15.5t-15.5 -6.5t-15.5 6.5t-6.5 15.5v309q0 19 -13 32t-32 13h-118v-354q0 -9 -6.5 -15.5t-15.5 -6.5t-15.5 6.5t-6.5 15.5v656q0 9 6.5 15.5t15.5 6.5t15.5 -6.5t6.5 -15.5v-258h70q17 0 29.5 13t12.5 31v120 q0 9 6.5 15.5t15.5 6.5t15.5 -6.5t6.5 -15.5v-120q0 -29 -22 -52zM214 -112l-21 -65q-5 -15 -19 -15q-10 0 -16 7t-3 18l11 46q-16 9 -16 27q0 15 9.5 24.5t25.5 9.5q15 0 24 -9t9 -24q0 -7 -4 -19z" />
<glyph unicode="&#x139;" horiz-adv-x="309" d="M116 839q8 5 13 5q14 0 20.5 -13.5t-6.5 -24.5l-63 -51q-7 -5 -13 -5q-13 0 -18.5 12t5.5 23zM267 0h-122q-33 0 -56.5 23t-23.5 56v599q0 9 6.5 15.5t15.5 6.5t15.5 -6.5t6.5 -15.5v-599q0 -14 11 -24.5t25 -10.5h122q9 0 15.5 -6.5t6.5 -15.5t-6.5 -15.5t-15.5 -6.5z " />
<glyph unicode="&#x13a;" horiz-adv-x="309" d="M116 839q8 5 13 5q14 0 20.5 -13.5t-6.5 -24.5l-63 -51q-7 -5 -13 -5q-13 0 -18.5 12t5.5 23zM267 0h-122q-33 0 -56.5 23t-23.5 56v599q0 9 6.5 15.5t15.5 6.5t15.5 -6.5t6.5 -15.5v-599q0 -14 11 -24.5t25 -10.5h122q9 0 15.5 -6.5t6.5 -15.5t-6.5 -15.5t-15.5 -6.5z " />
<glyph unicode="&#x13b;" horiz-adv-x="309" d="M267 0h-122q-33 0 -56.5 23t-23.5 56v599q0 9 6.5 15.5t15.5 6.5t15.5 -6.5t6.5 -15.5v-599q0 -14 11 -24.5t25 -10.5h122q9 0 15.5 -6.5t6.5 -15.5t-6.5 -15.5t-15.5 -6.5zM199 -112l-21 -65q-4 -15 -19 -15q-10 0 -16 7t-3 18l11 46q-16 9 -16 27q0 15 9.5 24.5 t25.5 9.5q15 0 24 -9t9 -24q0 -7 -4 -19z" />
<glyph unicode="&#x13c;" horiz-adv-x="309" d="M267 0h-122q-33 0 -56.5 23t-23.5 56v599q0 9 6.5 15.5t15.5 6.5t15.5 -6.5t6.5 -15.5v-599q0 -14 11 -24.5t25 -10.5h122q9 0 15.5 -6.5t6.5 -15.5t-6.5 -15.5t-15.5 -6.5zM199 -112l-21 -65q-4 -15 -19 -15q-10 0 -16 7t-3 18l11 46q-16 9 -16 27q0 15 9.5 24.5 t25.5 9.5q15 0 24 -9t9 -24q0 -7 -4 -19z" />
<glyph unicode="&#x13d;" horiz-adv-x="309" d="M267 0h-122q-33 0 -56.5 23t-23.5 56v599q0 9 6.5 15.5t15.5 6.5t15.5 -6.5t6.5 -15.5v-599q0 -14 11 -24.5t25 -10.5h122q9 0 15.5 -6.5t6.5 -15.5t-6.5 -15.5t-15.5 -6.5zM277 648l-21 -65q-4 -15 -19 -15q-10 0 -16 7t-3 18l11 46q-16 9 -16 27q0 15 9.5 24.5 t25.5 9.5q15 0 24 -9t9 -24q0 -7 -4 -19z" />
<glyph unicode="&#x13e;" horiz-adv-x="309" d="M267 0h-122q-33 0 -56.5 23t-23.5 56v599q0 9 6.5 15.5t15.5 6.5t15.5 -6.5t6.5 -15.5v-599q0 -14 11 -24.5t25 -10.5h122q9 0 15.5 -6.5t6.5 -15.5t-6.5 -15.5t-15.5 -6.5zM277 648l-21 -65q-4 -15 -19 -15q-10 0 -16 7t-3 18l11 46q-16 9 -16 27q0 15 9.5 24.5 t25.5 9.5q15 0 24 -9t9 -24q0 -7 -4 -19z" />
<glyph unicode="&#x13f;" horiz-adv-x="309" d="M267 0h-122q-33 0 -56.5 23t-23.5 56v599q0 9 6.5 15.5t15.5 6.5t15.5 -6.5t6.5 -15.5v-599q0 -14 11 -24.5t25 -10.5h122q9 0 15.5 -6.5t6.5 -15.5t-6.5 -15.5t-15.5 -6.5zM206 335q-14 0 -24 10t-10 24t10 23.5t24 9.5t24 -9.5t10 -23.5t-10 -24t-24 -10z" />
<glyph unicode="&#x140;" horiz-adv-x="309" d="M267 0h-122q-33 0 -56.5 23t-23.5 56v599q0 9 6.5 15.5t15.5 6.5t15.5 -6.5t6.5 -15.5v-599q0 -14 11 -24.5t25 -10.5h122q9 0 15.5 -6.5t6.5 -15.5t-6.5 -15.5t-15.5 -6.5zM206 335q-14 0 -24 10t-10 24t10 23.5t24 9.5t24 -9.5t10 -23.5t-10 -24t-24 -10z" />
<glyph unicode="&#x141;" horiz-adv-x="318" d="M276 44q9 0 15.5 -6.5t6.5 -15.5t-6.5 -15.5t-15.5 -6.5h-122q-33 0 -56.5 23t-23.5 56v185l-47 -27q-16 -9 -25 7t7 25l65 38v371q0 9 6.5 15.5t15.5 6.5t15.5 -6.5t6.5 -15.5v-346l99 57q16 9 25 -7q9 -17 -7 -24l-117 -68v-211q0 -14 11 -24.5t25 -10.5h122z" />
<glyph unicode="&#x142;" horiz-adv-x="318" d="M276 44q9 0 15.5 -6.5t6.5 -15.5t-6.5 -15.5t-15.5 -6.5h-122q-33 0 -56.5 23t-23.5 56v185l-47 -27q-16 -9 -25 7t7 25l65 38v371q0 9 6.5 15.5t15.5 6.5t15.5 -6.5t6.5 -15.5v-346l99 57q16 9 25 -7q9 -17 -7 -24l-117 -68v-211q0 -14 11 -24.5t25 -10.5h122z" />
<glyph unicode="&#x143;" d="M217 839q8 5 13 5q14 0 20.5 -13.5t-6.5 -24.5l-63 -51q-7 -5 -13 -5q-13 0 -18.5 12t5.5 23zM291 700q9 0 15.5 -6.5t6.5 -15.5v-656q0 -9 -6.5 -15.5t-15.5 -6.5q-16 0 -21 15l-161 519v-512q0 -9 -6.5 -15.5t-15.5 -6.5t-15.5 6.5t-6.5 15.5v656q0 9 6.5 15.5 t15.5 6.5q16 0 21 -15l161 -519v512q0 9 6.5 15.5t15.5 6.5z" />
<glyph unicode="&#x144;" d="M217 839q8 5 13 5q14 0 20.5 -13.5t-6.5 -24.5l-63 -51q-7 -5 -13 -5q-13 0 -18.5 12t5.5 23zM291 700q9 0 15.5 -6.5t6.5 -15.5v-656q0 -9 -6.5 -15.5t-15.5 -6.5q-16 0 -21 15l-161 519v-512q0 -9 -6.5 -15.5t-15.5 -6.5t-15.5 6.5t-6.5 15.5v656q0 9 6.5 15.5 t15.5 6.5q16 0 21 -15l161 -519v512q0 9 6.5 15.5t15.5 6.5z" />
<glyph unicode="&#x145;" d="M291 700q9 0 15.5 -6.5t6.5 -15.5v-656q0 -9 -6.5 -15.5t-15.5 -6.5q-16 0 -21 15l-161 519v-512q0 -9 -6.5 -15.5t-15.5 -6.5t-15.5 6.5t-6.5 15.5v656q0 9 6.5 15.5t15.5 6.5q16 0 21 -15l161 -519v512q0 9 6.5 15.5t15.5 6.5zM215 -112l-21 -65q-4 -15 -19 -15 q-10 0 -16 7t-3 18l11 46q-16 9 -16 27q0 15 9.5 24.5t25.5 9.5q15 0 24 -9t9 -24q0 -7 -4 -19z" />
<glyph unicode="&#x146;" d="M291 700q9 0 15.5 -6.5t6.5 -15.5v-656q0 -9 -6.5 -15.5t-15.5 -6.5q-16 0 -21 15l-161 519v-512q0 -9 -6.5 -15.5t-15.5 -6.5t-15.5 6.5t-6.5 15.5v656q0 9 6.5 15.5t15.5 6.5q16 0 21 -15l161 -519v512q0 9 6.5 15.5t15.5 6.5zM215 -112l-21 -65q-4 -15 -19 -15 q-10 0 -16 7t-3 18l11 46q-16 9 -16 27q0 15 9.5 24.5t25.5 9.5q15 0 24 -9t9 -24q0 -7 -4 -19z" />
<glyph unicode="&#x147;" d="M267 836q13 -16 -3 -30l-63 -51q-14 -11 -27 0l-63 51q-16 14 -3 30q15 17 30 3l50 -44l49 44q15 14 30 -3zM291 700q9 0 15.5 -6.5t6.5 -15.5v-656q0 -9 -6.5 -15.5t-15.5 -6.5q-16 0 -21 15l-161 519v-512q0 -9 -6.5 -15.5t-15.5 -6.5t-15.5 6.5t-6.5 15.5v656 q0 9 6.5 15.5t15.5 6.5q16 0 21 -15l161 -519v512q0 9 6.5 15.5t15.5 6.5z" />
<glyph unicode="&#x148;" d="M267 836q13 -16 -3 -30l-63 -51q-14 -11 -27 0l-63 51q-16 14 -3 30q15 17 30 3l50 -44l49 44q15 14 30 -3zM291 700q9 0 15.5 -6.5t6.5 -15.5v-656q0 -9 -6.5 -15.5t-15.5 -6.5q-16 0 -21 15l-161 519v-512q0 -9 -6.5 -15.5t-15.5 -6.5t-15.5 6.5t-6.5 15.5v656 q0 9 6.5 15.5t15.5 6.5q16 0 21 -15l161 -519v512q0 9 6.5 15.5t15.5 6.5z" />
<glyph unicode="&#x14a;" d="M291 700q9 0 15.5 -6.5t6.5 -15.5v-729q0 -50 -36.5 -85.5t-87.5 -35.5q-9 0 -15.5 6.5t-6.5 15.5t6.5 15.5t15.5 6.5q33 0 56.5 22.5t23.5 54.5v69l-160 516v-512q0 -9 -6.5 -15.5t-15.5 -6.5t-15.5 6.5t-6.5 15.5v656q0 9 6.5 15.5t15.5 6.5q16 0 21 -15l161 -527v520 q0 9 6.5 15.5t15.5 6.5z" />
<glyph unicode="&#x14b;" d="M291 700q9 0 15.5 -6.5t6.5 -15.5v-729q0 -50 -36.5 -85.5t-87.5 -35.5q-9 0 -15.5 6.5t-6.5 15.5t6.5 15.5t15.5 6.5q33 0 56.5 22.5t23.5 54.5v69l-160 516v-512q0 -9 -6.5 -15.5t-15.5 -6.5t-15.5 6.5t-6.5 15.5v656q0 9 6.5 15.5t15.5 6.5q16 0 21 -15l161 -527v520 q0 9 6.5 15.5t15.5 6.5z" />
<glyph unicode="&#x14c;" d="M261 828q8 0 14 -6t6 -14t-6 -14t-14 -6h-144q-8 0 -14 6t-6 14t6 14t14 6h144zM189 -10q51 0 87.5 35.5t36.5 85.5v478q0 50 -36.5 85.5t-87.5 35.5t-87.5 -35.5t-36.5 -85.5v-478q0 -50 36.5 -85.5t87.5 -35.5zM189 666q33 0 56.5 -22.5t23.5 -54.5v-478 q0 -32 -23.5 -54.5t-56.5 -22.5t-56.5 22.5t-23.5 54.5v478q0 32 23.5 54.5t56.5 22.5z" />
<glyph unicode="&#x14d;" d="M261 828q8 0 14 -6t6 -14t-6 -14t-14 -6h-144q-8 0 -14 6t-6 14t6 14t14 6h144zM189 -10q51 0 87.5 35.5t36.5 85.5v478q0 50 -36.5 85.5t-87.5 35.5t-87.5 -35.5t-36.5 -85.5v-478q0 -50 36.5 -85.5t87.5 -35.5zM189 666q33 0 56.5 -22.5t23.5 -54.5v-478 q0 -32 -23.5 -54.5t-56.5 -22.5t-56.5 22.5t-23.5 54.5v478q0 32 23.5 54.5t56.5 22.5z" />
<glyph unicode="&#x150;" d="M173 847q7 7 16 7q13 0 19.5 -11.5t-3.5 -23.5l-47 -52q-7 -7 -15 -7q-12 0 -18 10.5t2 21.5zM253 847q7 7 16 7q13 0 19.5 -11.5t-3.5 -23.5l-47 -52q-7 -7 -15 -7q-12 0 -18 10.5t2 21.5zM189 -10q51 0 87.5 35.5t36.5 85.5v478q0 50 -36.5 85.5t-87.5 35.5 t-87.5 -35.5t-36.5 -85.5v-478q0 -50 36.5 -85.5t87.5 -35.5zM189 666q33 0 56.5 -22.5t23.5 -54.5v-478q0 -32 -23.5 -54.5t-56.5 -22.5t-56.5 22.5t-23.5 54.5v478q0 32 23.5 54.5t56.5 22.5z" />
<glyph unicode="&#x151;" d="M173 847q7 7 16 7q13 0 19.5 -11.5t-3.5 -23.5l-47 -52q-7 -7 -15 -7q-12 0 -18 10.5t2 21.5zM253 847q7 7 16 7q13 0 19.5 -11.5t-3.5 -23.5l-47 -52q-7 -7 -15 -7q-12 0 -18 10.5t2 21.5zM189 -10q51 0 87.5 35.5t36.5 85.5v478q0 50 -36.5 85.5t-87.5 35.5 t-87.5 -35.5t-36.5 -85.5v-478q0 -50 36.5 -85.5t87.5 -35.5zM189 666q33 0 56.5 -22.5t23.5 -54.5v-478q0 -32 -23.5 -54.5t-56.5 -22.5t-56.5 22.5t-23.5 54.5v478q0 32 23.5 54.5t56.5 22.5z" />
<glyph unicode="&#x152;" horiz-adv-x="498" d="M421 338h-108v-212q0 -35 21.5 -58.5t53.5 -23.5h33q9 0 15.5 -6.5t6.5 -15.5t-6.5 -15.5t-15.5 -6.5h-33q-64 0 -95 60q-34 -70 -104 -70q-51 0 -87.5 35.5t-36.5 85.5v478q0 50 36.5 85.5t87.5 35.5q73 0 104 -70q34 60 95 60h33q9 0 15.5 -6.5t6.5 -15.5t-6.5 -15.5 t-15.5 -6.5h-33q-32 0 -53.5 -23.5t-21.5 -58.5v-192h108q9 0 15.5 -6.5t6.5 -15.5t-6.5 -15.5t-15.5 -6.5zM269 111v478q0 32 -23.5 54.5t-56.5 22.5t-56.5 -22.5t-23.5 -54.5v-478q0 -32 23.5 -54.5t56.5 -22.5t56.5 22.5t23.5 54.5z" />
<glyph unicode="&#x153;" horiz-adv-x="498" d="M421 338h-108v-212q0 -35 21.5 -58.5t53.5 -23.5h33q9 0 15.5 -6.5t6.5 -15.5t-6.5 -15.5t-15.5 -6.5h-33q-64 0 -95 60q-34 -70 -104 -70q-51 0 -87.5 35.5t-36.5 85.5v478q0 50 36.5 85.5t87.5 35.5q73 0 104 -70q34 60 95 60h33q9 0 15.5 -6.5t6.5 -15.5t-6.5 -15.5 t-15.5 -6.5h-33q-32 0 -53.5 -23.5t-21.5 -58.5v-192h108q9 0 15.5 -6.5t6.5 -15.5t-6.5 -15.5t-15.5 -6.5zM269 111v478q0 32 -23.5 54.5t-56.5 22.5t-56.5 -22.5t-23.5 -54.5v-478q0 -32 23.5 -54.5t56.5 -22.5t56.5 22.5t23.5 54.5z" />
<glyph unicode="&#x154;" horiz-adv-x="400" d="M223 839q8 5 13 5q14 0 20.5 -13.5t-6.5 -24.5l-63 -51q-7 -5 -13 -5q-13 0 -18.5 12t5.5 23zM109 22q0 -9 -6.5 -15.5t-15.5 -6.5t-15.5 6.5t-6.5 15.5v656q0 9 6.5 15.5t15.5 6.5h134q47 0 80.5 -34.5t33.5 -82.5q0 -60 -52 -94q52 -31 52 -91v-376q0 -9 -6.5 -15.5 t-15.5 -6.5t-15.5 6.5t-6.5 15.5v376q-1 29 -20.5 48.5t-49.5 19.5h-112v-444zM109 656v-146h112q29 0 49.5 21.5t20.5 51.5t-20.5 51.5t-49.5 21.5h-112z" />
<glyph unicode="&#x155;" horiz-adv-x="400" d="M223 839q8 5 13 5q14 0 20.5 -13.5t-6.5 -24.5l-63 -51q-7 -5 -13 -5q-13 0 -18.5 12t5.5 23zM109 22q0 -9 -6.5 -15.5t-15.5 -6.5t-15.5 6.5t-6.5 15.5v656q0 9 6.5 15.5t15.5 6.5h134q47 0 80.5 -34.5t33.5 -82.5q0 -60 -52 -94q52 -31 52 -91v-376q0 -9 -6.5 -15.5 t-15.5 -6.5t-15.5 6.5t-6.5 15.5v376q-1 29 -20.5 48.5t-49.5 19.5h-112v-444zM109 656v-146h112q29 0 49.5 21.5t20.5 51.5t-20.5 51.5t-49.5 21.5h-112z" />
<glyph unicode="&#x156;" horiz-adv-x="400" d="M109 22q0 -9 -6.5 -15.5t-15.5 -6.5t-15.5 6.5t-6.5 15.5v656q0 9 6.5 15.5t15.5 6.5h134q47 0 80.5 -34.5t33.5 -82.5q0 -60 -52 -94q52 -31 52 -91v-376q0 -9 -6.5 -15.5t-15.5 -6.5t-15.5 6.5t-6.5 15.5v376q-1 29 -20.5 48.5t-49.5 19.5h-112v-444zM109 656v-146h112 q29 0 49.5 21.5t20.5 51.5t-20.5 51.5t-49.5 21.5h-112zM225 -112l-21 -65q-4 -15 -19 -15q-10 0 -16 7t-3 18l11 46q-16 9 -16 27q0 15 9.5 24.5t25.5 9.5q15 0 24 -9t9 -24q0 -7 -4 -19z" />
<glyph unicode="&#x157;" horiz-adv-x="400" d="M109 22q0 -9 -6.5 -15.5t-15.5 -6.5t-15.5 6.5t-6.5 15.5v656q0 9 6.5 15.5t15.5 6.5h134q47 0 80.5 -34.5t33.5 -82.5q0 -60 -52 -94q52 -31 52 -91v-376q0 -9 -6.5 -15.5t-15.5 -6.5t-15.5 6.5t-6.5 15.5v376q-1 29 -20.5 48.5t-49.5 19.5h-112v-444zM109 656v-146h112 q29 0 49.5 21.5t20.5 51.5t-20.5 51.5t-49.5 21.5h-112zM225 -112l-21 -65q-4 -15 -19 -15q-10 0 -16 7t-3 18l11 46q-16 9 -16 27q0 15 9.5 24.5t25.5 9.5q15 0 24 -9t9 -24q0 -7 -4 -19z" />
<glyph unicode="&#x158;" horiz-adv-x="400" d="M273 836q13 -16 -3 -30l-63 -51q-14 -11 -27 0l-63 51q-16 14 -3 30q15 17 30 3l50 -44l49 44q15 14 30 -3zM109 22q0 -9 -6.5 -15.5t-15.5 -6.5t-15.5 6.5t-6.5 15.5v656q0 9 6.5 15.5t15.5 6.5h134q47 0 80.5 -34.5t33.5 -82.5q0 -60 -52 -94q52 -31 52 -91v-376 q0 -9 -6.5 -15.5t-15.5 -6.5t-15.5 6.5t-6.5 15.5v376q-1 29 -20.5 48.5t-49.5 19.5h-112v-444zM109 656v-146h112q29 0 49.5 21.5t20.5 51.5t-20.5 51.5t-49.5 21.5h-112z" />
<glyph unicode="&#x159;" horiz-adv-x="400" d="M273 836q13 -16 -3 -30l-63 -51q-14 -11 -27 0l-63 51q-16 14 -3 30q15 17 30 3l50 -44l49 44q15 14 30 -3zM109 22q0 -9 -6.5 -15.5t-15.5 -6.5t-15.5 6.5t-6.5 15.5v656q0 9 6.5 15.5t15.5 6.5h134q47 0 80.5 -34.5t33.5 -82.5q0 -60 -52 -94q52 -31 52 -91v-376 q0 -9 -6.5 -15.5t-15.5 -6.5t-15.5 6.5t-6.5 15.5v376q-1 29 -20.5 48.5t-49.5 19.5h-112v-444zM109 656v-146h112q29 0 49.5 21.5t20.5 51.5t-20.5 51.5t-49.5 21.5h-112z" />
<glyph unicode="&#x15a;" horiz-adv-x="328" d="M193 849q8 5 13 5q14 0 20.5 -13.5t-6.5 -24.5l-63 -51q-7 -5 -13 -5q-13 0 -18.5 12t5.5 23zM293 285v-169q0 -52 -38 -89t-91 -37q-54 0 -91.5 36.5t-37.5 89.5q0 9 6.5 15.5t15.5 6.5t15.5 -6.5t6.5 -15.5q0 -35 24.5 -58.5t60.5 -23.5q35 0 60 24t25 58v169 q0 33 -25 62.5t-63 40.5q-56 17 -88.5 55.5t-32.5 84.5v61q0 50 36.5 85.5t87.5 35.5q52 0 88 -35.5t36 -85.5q0 -9 -6.5 -15.5t-15.5 -6.5t-15.5 6.5t-6.5 15.5q0 32 -23 54.5t-57 22.5q-33 0 -56.5 -22.5t-23.5 -54.5v-61q0 -32 24.5 -59t65.5 -39q53 -17 86 -57t33 -88z " />
<glyph unicode="&#x15b;" horiz-adv-x="328" d="M193 849q8 5 13 5q14 0 20.5 -13.5t-6.5 -24.5l-63 -51q-7 -5 -13 -5q-13 0 -18.5 12t5.5 23zM293 285v-169q0 -52 -38 -89t-91 -37q-54 0 -91.5 36.5t-37.5 89.5q0 9 6.5 15.5t15.5 6.5t15.5 -6.5t6.5 -15.5q0 -35 24.5 -58.5t60.5 -23.5q35 0 60 24t25 58v169 q0 33 -25 62.5t-63 40.5q-56 17 -88.5 55.5t-32.5 84.5v61q0 50 36.5 85.5t87.5 35.5q52 0 88 -35.5t36 -85.5q0 -9 -6.5 -15.5t-15.5 -6.5t-15.5 6.5t-6.5 15.5q0 32 -23 54.5t-57 22.5q-33 0 -56.5 -22.5t-23.5 -54.5v-61q0 -32 24.5 -59t65.5 -39q53 -17 86 -57t33 -88z " />
<glyph unicode="&#x15e;" horiz-adv-x="328" d="M174 430q53 -17 86 -57t33 -88v-169q0 -48 -31.5 -83t-78.5 -42l-16 -43q26 1 44 -17.5t18 -49.5q0 -35 -20.5 -56t-54.5 -21q-23 0 -43 13.5t-20 29.5q0 8 6 14t14 6q10 0 16 -8q12 -15 27 -15q16 0 25.5 10t9.5 27q0 16 -6.5 24t-12 9t-17 -0.5t-12.5 -1.5q-10 0 -14 8 t0 20l19 51q-48 7 -79.5 42t-31.5 83q0 9 6.5 15.5t15.5 6.5t15.5 -6.5t6.5 -15.5q0 -35 24.5 -58.5t60.5 -23.5q35 0 60 24t25 58v169q0 33 -25 62.5t-63 40.5q-56 17 -88.5 55.5t-32.5 84.5v61q0 50 36.5 85.5t87.5 35.5q52 0 88 -35.5t36 -85.5q0 -9 -6.5 -15.5 t-15.5 -6.5t-15.5 6.5t-6.5 15.5q0 32 -23 54.5t-57 22.5q-33 0 -56.5 -22.5t-23.5 -54.5v-61q0 -32 24.5 -59t65.5 -39z" />
<glyph unicode="&#x15f;" horiz-adv-x="328" d="M174 430q53 -17 86 -57t33 -88v-169q0 -48 -31.5 -83t-78.5 -42l-16 -43q26 1 44 -17.5t18 -49.5q0 -35 -20.5 -56t-54.5 -21q-23 0 -43 13.5t-20 29.5q0 8 6 14t14 6q10 0 16 -8q12 -15 27 -15q16 0 25.5 10t9.5 27q0 16 -6.5 24t-12 9t-17 -0.5t-12.5 -1.5q-10 0 -14 8 t0 20l19 51q-48 7 -79.5 42t-31.5 83q0 9 6.5 15.5t15.5 6.5t15.5 -6.5t6.5 -15.5q0 -35 24.5 -58.5t60.5 -23.5q35 0 60 24t25 58v169q0 33 -25 62.5t-63 40.5q-56 17 -88.5 55.5t-32.5 84.5v61q0 50 36.5 85.5t87.5 35.5q52 0 88 -35.5t36 -85.5q0 -9 -6.5 -15.5 t-15.5 -6.5t-15.5 6.5t-6.5 15.5q0 32 -23 54.5t-57 22.5q-33 0 -56.5 -22.5t-23.5 -54.5v-61q0 -32 24.5 -59t65.5 -39z" />
<glyph unicode="&#x160;" horiz-adv-x="328" d="M243 846q13 -16 -3 -30l-63 -51q-14 -11 -27 0l-63 51q-16 14 -3 30q15 17 30 3l50 -44l49 44q15 14 30 -3zM293 285v-169q0 -52 -38 -89t-91 -37q-54 0 -91.5 36.5t-37.5 89.5q0 9 6.5 15.5t15.5 6.5t15.5 -6.5t6.5 -15.5q0 -35 24.5 -58.5t60.5 -23.5q35 0 60 24t25 58 v169q0 33 -25 62.5t-63 40.5q-56 17 -88.5 55.5t-32.5 84.5v61q0 50 36.5 85.5t87.5 35.5q52 0 88 -35.5t36 -85.5q0 -9 -6.5 -15.5t-15.5 -6.5t-15.5 6.5t-6.5 15.5q0 32 -23 54.5t-57 22.5q-33 0 -56.5 -22.5t-23.5 -54.5v-61q0 -32 24.5 -59t65.5 -39q53 -17 86 -57 t33 -88z" />
<glyph unicode="&#x161;" horiz-adv-x="328" d="M243 846q13 -16 -3 -30l-63 -51q-14 -11 -27 0l-63 51q-16 14 -3 30q15 17 30 3l50 -44l49 44q15 14 30 -3zM293 285v-169q0 -52 -38 -89t-91 -37q-54 0 -91.5 36.5t-37.5 89.5q0 9 6.5 15.5t15.5 6.5t15.5 -6.5t6.5 -15.5q0 -35 24.5 -58.5t60.5 -23.5q35 0 60 24t25 58 v169q0 33 -25 62.5t-63 40.5q-56 17 -88.5 55.5t-32.5 84.5v61q0 50 36.5 85.5t87.5 35.5q52 0 88 -35.5t36 -85.5q0 -9 -6.5 -15.5t-15.5 -6.5t-15.5 6.5t-6.5 15.5q0 32 -23 54.5t-57 22.5q-33 0 -56.5 -22.5t-23.5 -54.5v-61q0 -32 24.5 -59t65.5 -39q53 -17 86 -57 t33 -88z" />
<glyph unicode="&#x162;" horiz-adv-x="302" d="M255 700q9 0 15.5 -6.5t6.5 -15.5t-6.5 -15.5t-15.5 -6.5h-82v-634q0 -9 -6.5 -15.5t-15.5 -6.5t-15.5 6.5t-6.5 15.5v634h-82q-9 0 -15.5 6.5t-6.5 15.5t6.5 15.5t15.5 6.5h208zM176 -112l-21 -65q-4 -15 -19 -15q-10 0 -16 7t-3 18l11 46q-16 9 -16 27q0 15 9.5 24.5 t25.5 9.5q15 0 24 -9t9 -24q0 -7 -4 -19z" />
<glyph unicode="&#x163;" horiz-adv-x="302" d="M255 700q9 0 15.5 -6.5t6.5 -15.5t-6.5 -15.5t-15.5 -6.5h-82v-634q0 -9 -6.5 -15.5t-15.5 -6.5t-15.5 6.5t-6.5 15.5v634h-82q-9 0 -15.5 6.5t-6.5 15.5t6.5 15.5t15.5 6.5h208zM176 -112l-21 -65q-4 -15 -19 -15q-10 0 -16 7t-3 18l11 46q-16 9 -16 27q0 15 9.5 24.5 t25.5 9.5q15 0 24 -9t9 -24q0 -7 -4 -19z" />
<glyph unicode="&#x164;" horiz-adv-x="302" d="M230 836q13 -16 -3 -30l-63 -51q-14 -11 -27 0l-63 51q-16 14 -3 30q15 17 30 3l50 -44l49 44q15 14 30 -3zM255 700q9 0 15.5 -6.5t6.5 -15.5t-6.5 -15.5t-15.5 -6.5h-82v-634q0 -9 -6.5 -15.5t-15.5 -6.5t-15.5 6.5t-6.5 15.5v634h-82q-9 0 -15.5 6.5t-6.5 15.5 t6.5 15.5t15.5 6.5h208z" />
<glyph unicode="&#x165;" horiz-adv-x="302" d="M230 836q13 -16 -3 -30l-63 -51q-14 -11 -27 0l-63 51q-16 14 -3 30q15 17 30 3l50 -44l49 44q15 14 30 -3zM255 700q9 0 15.5 -6.5t6.5 -15.5t-6.5 -15.5t-15.5 -6.5h-82v-634q0 -9 -6.5 -15.5t-15.5 -6.5t-15.5 6.5t-6.5 15.5v634h-82q-9 0 -15.5 6.5t-6.5 15.5 t6.5 15.5t15.5 6.5h208z" />
<glyph unicode="&#x166;" horiz-adv-x="302" d="M255 700q9 0 15.5 -6.5t6.5 -15.5t-6.5 -15.5t-15.5 -6.5h-82v-218h57q8 0 13 -5t5 -13t-5 -13t-13 -5h-57v-380q0 -9 -6.5 -15.5t-15.5 -6.5t-15.5 6.5t-6.5 15.5v380h-57q-8 0 -13 5t-5 13t5 13t13 5h57v218h-82q-9 0 -15.5 6.5t-6.5 15.5t6.5 15.5t15.5 6.5h208z" />
<glyph unicode="&#x167;" horiz-adv-x="302" d="M255 700q9 0 15.5 -6.5t6.5 -15.5t-6.5 -15.5t-15.5 -6.5h-82v-218h57q8 0 13 -5t5 -13t-5 -13t-13 -5h-57v-380q0 -9 -6.5 -15.5t-15.5 -6.5t-15.5 6.5t-6.5 15.5v380h-57q-8 0 -13 5t-5 13t5 13t13 5h57v218h-82q-9 0 -15.5 6.5t-6.5 15.5t6.5 15.5t15.5 6.5h208z" />
<glyph unicode="&#x16a;" horiz-adv-x="368" d="M256 818q8 0 14 -6t6 -14t-6 -14t-14 -6h-144q-8 0 -14 6t-6 14t6 14t14 6h144zM109 116q0 -37 20.5 -59.5t54.5 -22.5t54.5 22.5t20.5 59.5v562q0 9 6.5 15.5t15.5 6.5t15.5 -6.5t6.5 -15.5v-562q0 -57 -33 -91.5t-86 -34.5t-86 34.5t-33 91.5v562q0 9 6.5 15.5 t15.5 6.5t15.5 -6.5t6.5 -15.5v-562z" />
<glyph unicode="&#x16b;" horiz-adv-x="368" d="M256 818q8 0 14 -6t6 -14t-6 -14t-14 -6h-144q-8 0 -14 6t-6 14t6 14t14 6h144zM109 116q0 -37 20.5 -59.5t54.5 -22.5t54.5 22.5t20.5 59.5v562q0 9 6.5 15.5t15.5 6.5t15.5 -6.5t6.5 -15.5v-562q0 -57 -33 -91.5t-86 -34.5t-86 34.5t-33 91.5v562q0 9 6.5 15.5 t15.5 6.5t15.5 -6.5t6.5 -15.5v-562z" />
<glyph unicode="&#x16e;" horiz-adv-x="368" d="M184 739q-26 0 -42.5 16.5t-16.5 42.5q0 25 17 41.5t42 16.5t41.5 -16.5t16.5 -41.5t-16.5 -42t-41.5 -17zM184 770q11 0 19 8t8 20q0 11 -8 19t-19 8q-12 0 -20 -8t-8 -19q0 -12 8 -20t20 -8zM109 116q0 -37 20.5 -59.5t54.5 -22.5t54.5 22.5t20.5 59.5v562 q0 9 6.5 15.5t15.5 6.5t15.5 -6.5t6.5 -15.5v-562q0 -57 -33 -91.5t-86 -34.5t-86 34.5t-33 91.5v562q0 9 6.5 15.5t15.5 6.5t15.5 -6.5t6.5 -15.5v-562z" />
<glyph unicode="&#x16f;" horiz-adv-x="368" d="M184 739q-26 0 -42.5 16.5t-16.5 42.5q0 25 17 41.5t42 16.5t41.5 -16.5t16.5 -41.5t-16.5 -42t-41.5 -17zM184 770q11 0 19 8t8 20q0 11 -8 19t-19 8q-12 0 -20 -8t-8 -19q0 -12 8 -20t20 -8zM109 116q0 -37 20.5 -59.5t54.5 -22.5t54.5 22.5t20.5 59.5v562 q0 9 6.5 15.5t15.5 6.5t15.5 -6.5t6.5 -15.5v-562q0 -57 -33 -91.5t-86 -34.5t-86 34.5t-33 91.5v562q0 9 6.5 15.5t15.5 6.5t15.5 -6.5t6.5 -15.5v-562z" />
<glyph unicode="&#x170;" horiz-adv-x="368" d="M168 837q7 7 16 7q13 0 19.5 -11.5t-3.5 -23.5l-47 -52q-7 -7 -15 -7q-12 0 -18 10.5t2 21.5zM248 837q7 7 16 7q13 0 19.5 -11.5t-3.5 -23.5l-47 -52q-7 -7 -15 -7q-12 0 -18 10.5t2 21.5zM109 116q0 -37 20.5 -59.5t54.5 -22.5t54.5 22.5t20.5 59.5v562q0 9 6.5 15.5 t15.5 6.5t15.5 -6.5t6.5 -15.5v-562q0 -57 -33 -91.5t-86 -34.5t-86 34.5t-33 91.5v562q0 9 6.5 15.5t15.5 6.5t15.5 -6.5t6.5 -15.5v-562z" />
<glyph unicode="&#x171;" horiz-adv-x="368" d="M168 837q7 7 16 7q13 0 19.5 -11.5t-3.5 -23.5l-47 -52q-7 -7 -15 -7q-12 0 -18 10.5t2 21.5zM248 837q7 7 16 7q13 0 19.5 -11.5t-3.5 -23.5l-47 -52q-7 -7 -15 -7q-12 0 -18 10.5t2 21.5zM109 116q0 -37 20.5 -59.5t54.5 -22.5t54.5 22.5t20.5 59.5v562q0 9 6.5 15.5 t15.5 6.5t15.5 -6.5t6.5 -15.5v-562q0 -57 -33 -91.5t-86 -34.5t-86 34.5t-33 91.5v562q0 9 6.5 15.5t15.5 6.5t15.5 -6.5t6.5 -15.5v-562z" />
<glyph unicode="&#x172;" horiz-adv-x="368" d="M303 116q0 -44 -25 -77q-48 -65 -66 -97.5t-18 -60.5q0 -17 9.5 -27t25.5 -10q15 0 27 15q6 8 16 8q8 0 14 -6t6 -14q0 -16 -20 -29.5t-43 -13.5q-34 0 -54.5 21t-20.5 56q0 50 48 110q-5 -1 -18 -1q-53 0 -86 34.5t-33 91.5v562q0 9 6.5 15.5t15.5 6.5t15.5 -6.5 t6.5 -15.5v-562q0 -37 20.5 -59.5t54.5 -22.5q32 0 53.5 23.5t21.5 58.5v562q0 9 6.5 15.5t15.5 6.5t15.5 -6.5t6.5 -15.5v-562z" />
<glyph unicode="&#x173;" horiz-adv-x="368" d="M303 116q0 -44 -25 -77q-48 -65 -66 -97.5t-18 -60.5q0 -17 9.5 -27t25.5 -10q15 0 27 15q6 8 16 8q8 0 14 -6t6 -14q0 -16 -20 -29.5t-43 -13.5q-34 0 -54.5 21t-20.5 56q0 50 48 110q-5 -1 -18 -1q-53 0 -86 34.5t-33 91.5v562q0 9 6.5 15.5t15.5 6.5t15.5 -6.5 t6.5 -15.5v-562q0 -37 20.5 -59.5t54.5 -22.5q32 0 53.5 23.5t21.5 58.5v562q0 9 6.5 15.5t15.5 6.5t15.5 -6.5t6.5 -15.5v-562z" />
<glyph unicode="&#x174;" horiz-adv-x="386" d="M272 759q-15 -17 -30 -3l-49 44l-50 -44q-15 -14 -30 3q-13 16 3 30l63 51q13 11 27 0l63 -51q16 -14 3 -30zM299 700q9 0 15.5 -6.5t6.5 -15.5v-656q0 -9 -6.5 -15.5t-15.5 -6.5q-16 0 -21 16l-85 268l-85 -268q-5 -16 -21 -16q-9 0 -15.5 6.5t-6.5 15.5v656 q0 9 6.5 15.5t15.5 6.5t15.5 -6.5t6.5 -15.5v-519l62 195q5 18 22 18t22 -18l62 -195v519q0 9 6.5 15.5t15.5 6.5z" />
<glyph unicode="&#x175;" horiz-adv-x="386" d="M272 759q-15 -17 -30 -3l-49 44l-50 -44q-15 -14 -30 3q-13 16 3 30l63 51q13 11 27 0l63 -51q16 -14 3 -30zM299 700q9 0 15.5 -6.5t6.5 -15.5v-656q0 -9 -6.5 -15.5t-15.5 -6.5q-16 0 -21 16l-85 268l-85 -268q-5 -16 -21 -16q-9 0 -15.5 6.5t-6.5 15.5v656 q0 9 6.5 15.5t15.5 6.5t15.5 -6.5t6.5 -15.5v-519l62 195q5 18 22 18t22 -18l62 -195v519q0 9 6.5 15.5t15.5 6.5z" />
<glyph unicode="&#x176;" horiz-adv-x="324" d="M242 759q-15 -17 -30 -3l-49 44l-50 -44q-15 -14 -30 3q-13 16 3 30l63 51q13 11 27 0l63 -51q16 -14 3 -30zM271 700q11 0 18.5 -8.5t3.5 -20.5l-108 -313v-336q0 -9 -6.5 -15.5t-15.5 -6.5t-15.5 6.5t-6.5 15.5v336l-109 313q-4 12 3.5 20.5t18.5 8.5q15 0 20 -15 l89 -257l88 257q5 15 20 15z" />
<glyph unicode="&#x177;" horiz-adv-x="324" d="M242 759q-15 -17 -30 -3l-49 44l-50 -44q-15 -14 -30 3q-13 16 3 30l63 51q13 11 27 0l63 -51q16 -14 3 -30zM271 700q11 0 18.5 -8.5t3.5 -20.5l-108 -313v-336q0 -9 -6.5 -15.5t-15.5 -6.5t-15.5 6.5t-6.5 15.5v336l-109 313q-4 12 3.5 20.5t18.5 8.5q15 0 20 -15 l89 -257l88 257q5 15 20 15z" />
<glyph unicode="&#x178;" horiz-adv-x="324" d="M113 762q-14 0 -24 10t-10 24t10 24t24 10t24 -10t10 -24t-10 -24t-24 -10zM213 762q-14 0 -24 10t-10 24t10 24t24 10t24 -10t10 -24t-10 -24t-24 -10zM271 700q11 0 18.5 -8.5t3.5 -20.5l-108 -313v-336q0 -9 -6.5 -15.5t-15.5 -6.5t-15.5 6.5t-6.5 15.5v336l-109 313 q-4 12 3.5 20.5t18.5 8.5q15 0 20 -15l89 -257l88 257q5 15 20 15z" />
<glyph unicode="&#x179;" horiz-adv-x="341" d="M209 839q8 5 13 5q14 0 20.5 -13.5t-6.5 -24.5l-63 -51q-7 -5 -13 -5q-13 0 -18.5 12t5.5 23zM81 700q-9 0 -15.5 -6.5t-6.5 -15.5t6.5 -15.5t15.5 -6.5h162l-208 -627q-4 -13 3 -21t18 -8h228q9 0 15.5 6.5t6.5 15.5t-6.5 15.5t-15.5 6.5h-198l208 627q4 12 -3.5 20.5 t-18.5 8.5h-191z" />
<glyph unicode="&#x17a;" horiz-adv-x="341" d="M209 839q8 5 13 5q14 0 20.5 -13.5t-6.5 -24.5l-63 -51q-7 -5 -13 -5q-13 0 -18.5 12t5.5 23zM81 700q-9 0 -15.5 -6.5t-6.5 -15.5t6.5 -15.5t15.5 -6.5h162l-208 -627q-4 -13 3 -21t18 -8h228q9 0 15.5 6.5t6.5 15.5t-6.5 15.5t-15.5 6.5h-198l208 627q4 12 -3.5 20.5 t-18.5 8.5h-191z" />
<glyph unicode="&#x17b;" horiz-adv-x="341" d="M180 758q-16 0 -27 11t-11 27t11 27t27 11t27 -11t11 -27t-11 -27t-27 -11zM81 700q-9 0 -15.5 -6.5t-6.5 -15.5t6.5 -15.5t15.5 -6.5h162l-208 -627q-4 -13 3 -21t18 -8h228q9 0 15.5 6.5t6.5 15.5t-6.5 15.5t-15.5 6.5h-198l208 627q4 12 -3.5 20.5t-18.5 8.5h-191z " />
<glyph unicode="&#x17c;" horiz-adv-x="341" d="M180 758q-16 0 -27 11t-11 27t11 27t27 11t27 -11t11 -27t-11 -27t-27 -11zM81 700q-9 0 -15.5 -6.5t-6.5 -15.5t6.5 -15.5t15.5 -6.5h162l-208 -627q-4 -13 3 -21t18 -8h228q9 0 15.5 6.5t6.5 15.5t-6.5 15.5t-15.5 6.5h-198l208 627q4 12 -3.5 20.5t-18.5 8.5h-191z " />
<glyph unicode="&#x17d;" horiz-adv-x="341" d="M259 836q13 -16 -3 -30l-63 -51q-14 -11 -27 0l-63 51q-16 14 -3 30q15 17 30 3l50 -44l49 44q15 14 30 -3zM81 700q-9 0 -15.5 -6.5t-6.5 -15.5t6.5 -15.5t15.5 -6.5h162l-208 -627q-4 -13 3 -21t18 -8h228q9 0 15.5 6.5t6.5 15.5t-6.5 15.5t-15.5 6.5h-198l208 627 q4 12 -3.5 20.5t-18.5 8.5h-191z" />
<glyph unicode="&#x17e;" horiz-adv-x="341" d="M259 836q13 -16 -3 -30l-63 -51q-14 -11 -27 0l-63 51q-16 14 -3 30q15 17 30 3l50 -44l49 44q15 14 30 -3zM81 700q-9 0 -15.5 -6.5t-6.5 -15.5t6.5 -15.5t15.5 -6.5h162l-208 -627q-4 -13 3 -21t18 -8h228q9 0 15.5 6.5t6.5 15.5t-6.5 15.5t-15.5 6.5h-198l208 627 q4 12 -3.5 20.5t-18.5 8.5h-191z" />
<glyph unicode="&#x218;" horiz-adv-x="328" d="M293 285v-169q0 -52 -38 -89t-91 -37q-54 0 -91.5 36.5t-37.5 89.5q0 9 6.5 15.5t15.5 6.5t15.5 -6.5t6.5 -15.5q0 -35 24.5 -58.5t60.5 -23.5q35 0 60 24t25 58v169q0 33 -25 62.5t-63 40.5q-56 17 -88.5 55.5t-32.5 84.5v61q0 50 36.5 85.5t87.5 35.5q52 0 88 -35.5 t36 -85.5q0 -9 -6.5 -15.5t-15.5 -6.5t-15.5 6.5t-6.5 15.5q0 32 -23 54.5t-57 22.5q-33 0 -56.5 -22.5t-23.5 -54.5v-61q0 -32 24.5 -59t65.5 -39q53 -17 86 -57t33 -88zM191 -112l-21 -65q-4 -15 -19 -15q-10 0 -16 7t-3 18l11 46q-16 9 -16 27q0 15 9.5 24.5t25.5 9.5 q15 0 24 -9t9 -24q0 -7 -4 -19z" />
<glyph unicode="&#x219;" horiz-adv-x="328" d="M293 285v-169q0 -52 -38 -89t-91 -37q-54 0 -91.5 36.5t-37.5 89.5q0 9 6.5 15.5t15.5 6.5t15.5 -6.5t6.5 -15.5q0 -35 24.5 -58.5t60.5 -23.5q35 0 60 24t25 58v169q0 33 -25 62.5t-63 40.5q-56 17 -88.5 55.5t-32.5 84.5v61q0 50 36.5 85.5t87.5 35.5q52 0 88 -35.5 t36 -85.5q0 -9 -6.5 -15.5t-15.5 -6.5t-15.5 6.5t-6.5 15.5q0 32 -23 54.5t-57 22.5q-33 0 -56.5 -22.5t-23.5 -54.5v-61q0 -32 24.5 -59t65.5 -39q53 -17 86 -57t33 -88zM191 -112l-21 -65q-4 -15 -19 -15q-10 0 -16 7t-3 18l11 46q-16 9 -16 27q0 15 9.5 24.5t25.5 9.5 q15 0 24 -9t9 -24q0 -7 -4 -19z" />
<glyph unicode="&#x21a;" horiz-adv-x="302" d="M255 700q9 0 15.5 -6.5t6.5 -15.5t-6.5 -15.5t-15.5 -6.5h-82v-634q0 -9 -6.5 -15.5t-15.5 -6.5t-15.5 6.5t-6.5 15.5v634h-82q-9 0 -15.5 6.5t-6.5 15.5t6.5 15.5t15.5 6.5h208zM176 -112l-21 -65q-4 -15 -19 -15q-10 0 -16 7t-3 18l11 46q-16 9 -16 27q0 15 9.5 24.5 t25.5 9.5q15 0 24 -9t9 -24q0 -7 -4 -19z" />
<glyph unicode="&#x21b;" horiz-adv-x="302" d="M255 700q9 0 15.5 -6.5t6.5 -15.5t-6.5 -15.5t-15.5 -6.5h-82v-634q0 -9 -6.5 -15.5t-15.5 -6.5t-15.5 6.5t-6.5 15.5v634h-82q-9 0 -15.5 6.5t-6.5 15.5t6.5 15.5t15.5 6.5h208zM176 -112l-21 -65q-4 -15 -19 -15q-10 0 -16 7t-3 18l11 46q-16 9 -16 27q0 15 9.5 24.5 t25.5 9.5q15 0 24 -9t9 -24q0 -7 -4 -19z" />
<glyph unicode="&#x300;" horiz-adv-x="0" d="M-119 839l62 -54q11 -11 5.5 -23t-18.5 -12q-6 0 -13 5l-63 51q-13 11 -6.5 24.5t20.5 13.5q5 0 13 -5z" />
<glyph unicode="&#x301;" horiz-adv-x="0" d="M-85 839q8 5 13 5q14 0 20.5 -13.5t-6.5 -24.5l-63 -51q-7 -5 -13 -5q-13 0 -18.5 12t5.5 23z" />
<glyph unicode="&#x302;" horiz-adv-x="0" d="M-55 759q-15 -17 -30 -3l-49 44l-50 -44q-15 -14 -30 3q-13 16 3 30l63 51q13 11 27 0l63 -51q16 -14 3 -30z" />
<glyph unicode="&#x303;" horiz-adv-x="0" d="M-70 840q8 0 14 -6t6 -14q0 -29 -16 -47.5t-42 -18.5q-23 0 -41.5 22.5t-27.5 22.5q-15 0 -15 -25q0 -8 -6 -14t-14 -6t-14 6t-6 14q0 29 16 47.5t42 18.5q24 0 43 -22.5t27 -22.5q14 0 14 25q0 8 6 14t14 6z" />
<glyph unicode="&#x304;" horiz-adv-x="0" d="M-70 818q8 0 14 -6t6 -14t-6 -14t-14 -6h-144q-8 0 -14 6t-6 14t6 14t14 6h144z" />
<glyph unicode="&#x306;" horiz-adv-x="0" d="M-69 844q7 0 13 -6t6 -13q0 -34 -20.5 -54.5t-54.5 -20.5t-54.5 20.5t-20.5 54.5q0 7 6 13t13 6t13 -6t6 -13q0 -16 10.5 -25.5t26.5 -9.5t26.5 9.5t10.5 25.5q0 7 6 13t13 6z" />
<glyph unicode="&#x307;" horiz-adv-x="0" d="M-88 758q-16 0 -27 11t-11 27t11 27t27 11t27 -11t11 -27t-11 -27t-27 -11z" />
<glyph unicode="&#x308;" horiz-adv-x="0" d="M-204 762q-14 0 -24 10t-10 24t10 24t24 10t24 -10t10 -24t-10 -24t-24 -10zM-104 762q-14 0 -24 10t-10 24t10 24t24 10t24 -10t10 -24t-10 -24t-24 -10z" />
<glyph unicode="&#x30a;" horiz-adv-x="0" d="M-108 739q-26 0 -42.5 16.5t-16.5 42.5q0 25 17 41.5t42 16.5t41.5 -16.5t16.5 -41.5t-16.5 -42t-41.5 -17zM-108 770q11 0 19 8t8 20q0 11 -8 19t-19 8q-12 0 -20 -8t-8 -19q0 -12 8 -20t20 -8z" />
<glyph unicode="&#x30b;" horiz-adv-x="0" d="M-164 837q7 7 16 7q13 0 19.5 -11.5t-3.5 -23.5l-47 -52q-7 -7 -15 -7q-12 0 -18 10.5t2 21.5zM-84 837q7 7 16 7q13 0 19.5 -11.5t-3.5 -23.5l-47 -52q-7 -7 -15 -7q-12 0 -18 10.5t2 21.5z" />
<glyph unicode="&#x30c;" horiz-adv-x="0" d="M-55 836q13 -16 -3 -30l-63 -51q-14 -11 -27 0l-63 51q-16 14 -3 30q15 17 30 3l50 -44l49 44q15 14 30 -3z" />
<glyph unicode="&#x312;" horiz-adv-x="0" />
<glyph unicode="&#x326;" horiz-adv-x="0" d="M-65 -112l-21 -65q-4 -15 -19 -15q-10 0 -16 7t-3 18l11 46q-16 9 -16 27q0 15 9.5 24.5t25.5 9.5q15 0 24 -9t9 -24q0 -7 -4 -19z" />
<glyph unicode="&#x327;" horiz-adv-x="0" d="M-112 -52q26 1 44 -17.5t18 -49.5q0 -35 -20.5 -56t-54.5 -21q-23 0 -43 13.5t-20 29.5q0 8 6 14t14 6q10 0 16 -8q12 -15 27 -15q16 0 25.5 10t9.5 27q0 16 -6.5 24t-12 9t-17 -0.5t-12.5 -1.5q-10 0 -14 8t0 20l26 71h37z" />
<glyph unicode="&#x328;" horiz-adv-x="0" d="M-119 30l31 -23q-60 -82 -60 -126q0 -17 9.5 -27t25.5 -10q15 0 27 15q6 8 16 8q8 0 14 -6t6 -14q0 -16 -20 -29.5t-43 -13.5q-34 0 -54.5 21t-20.5 56q0 48 69 149z" />
<glyph unicode="&#x335;" horiz-adv-x="0" />
<glyph unicode="&#x336;" horiz-adv-x="0" />
<glyph unicode="&#x386;" horiz-adv-x="368" d="M109 22q0 -9 -6.5 -15.5t-15.5 -6.5t-15.5 6.5t-6.5 15.5v562q0 52 35.5 89t83.5 37t83.5 -37t35.5 -89v-562q0 -9 -6.5 -15.5t-15.5 -6.5t-15.5 6.5t-6.5 15.5v306h-150v-306zM22 688q4 7 10 10q14 6 24.5 -4.5t2.5 -25.5l-39 -71q-6 -8 -10 -10q-12 -5 -22 4.5t-4 23.5 zM259 372v212q0 35 -21.5 58.5t-53.5 23.5t-53.5 -23.5t-21.5 -58.5v-212h150z" />
<glyph unicode="&#x388;" horiz-adv-x="294" d="M13 698q14 6 24.5 -4.5t2.5 -25.5l-39 -71q-6 -8 -10 -10q-12 -5 -22 4.5t-4 23.5l38 73q4 7 10 10zM217 166h-108v-87q0 -14 11 -24.5t25 -10.5h72q9 0 15.5 -6.5t6.5 -15.5t-6.5 -15.5t-15.5 -6.5h-72q-33 0 -56.5 23t-23.5 56v542q0 33 23.5 56t56.5 23h72 q9 0 15.5 -6.5t6.5 -15.5t-6.5 -15.5t-15.5 -6.5h-72q-14 0 -25 -10.5t-11 -24.5v-411h108q9 0 15.5 -6.5t6.5 -15.5t-6.5 -15.5t-15.5 -6.5z" />
<glyph unicode="&#x389;" horiz-adv-x="368" d="M-6 688q4 7 10 10q14 6 24.5 -4.5t2.5 -25.5l-39 -71q-6 -8 -10 -10q-12 -5 -22 4.5t-4 23.5zM109 372h150v306q0 9 6.5 15.5t15.5 6.5t15.5 -6.5t6.5 -15.5v-656q0 -9 -6.5 -15.5t-15.5 -6.5t-15.5 6.5t-6.5 15.5v306h-150v-306q0 -9 -6.5 -15.5t-15.5 -6.5t-15.5 6.5 t-6.5 15.5v656q0 9 6.5 15.5t15.5 6.5t15.5 -6.5t6.5 -15.5v-306z" />
<glyph unicode="&#x38a;" horiz-adv-x="270" d="M25 688q4 7 10 10q14 6 24.5 -4.5t2.5 -25.5l-39 -71q-6 -8 -10 -10q-12 -5 -22 4.5t-4 23.5zM193 44q9 0 15.5 -6.5t6.5 -15.5t-6.5 -15.5t-15.5 -6.5q-37 0 -58 30q-21 -30 -58 -30q-9 0 -15.5 6.5t-6.5 15.5t6.5 15.5t15.5 6.5q16 0 26 11t10 24v542q0 19 -16 26 q-19 8 -14 28q8 21 29 13q14 -5 23 -18q21 30 58 30q9 0 15.5 -6.5t6.5 -15.5t-6.5 -15.5t-15.5 -6.5q-16 0 -26 -11t-10 -24v-542q0 -13 10 -24t26 -11z" />
<glyph unicode="&#x38c;" d="M189 -10q51 0 87.5 35.5t36.5 85.5v478q0 50 -36.5 85.5t-87.5 35.5t-87.5 -35.5t-36.5 -85.5v-478q0 -50 36.5 -85.5t87.5 -35.5zM22 688q4 7 10 10q14 6 24.5 -4.5t2.5 -25.5l-39 -71q-6 -8 -10 -10q-12 -5 -22 4.5t-4 23.5zM189 666q33 0 56.5 -22.5t23.5 -54.5v-478 q0 -32 -23.5 -54.5t-56.5 -22.5t-56.5 22.5t-23.5 54.5v478q0 32 23.5 54.5t56.5 22.5z" />
<glyph unicode="&#x38e;" horiz-adv-x="324" d="M0 688q6 7 10 10q14 6 25 -4.5t2 -25.5l-39 -71q-4 -8 -10 -9q-12 -5 -22 4t-3 23zM271 700q11 0 18.5 -8.5t3.5 -20.5l-108 -313v-336q0 -9 -6.5 -15.5t-15.5 -6.5t-15.5 6.5t-6.5 15.5v336l-84 313q-4 12 3.5 20.5t18.5 8.5q16 0 20 -15l66 -257l86 257q5 15 20 15z " />
<glyph unicode="&#x38f;" d="M328 44q9 0 15.5 -6.5t6.5 -15.5t-6.5 -15.5t-15.5 -6.5h-90q-9 0 -15.5 6.5t-6.5 15.5t7 16q1 1 2 1q26 22 35 37t9 35v478q0 32 -23.5 54.5t-56.5 22.5t-56.5 -22.5t-23.5 -54.5v-478q0 -20 9 -35t35 -37q1 0 2 -1q7 -7 7 -16t-6.5 -15.5t-15.5 -6.5h-90 q-9 0 -15.5 6.5t-6.5 15.5t6.5 15.5t15.5 6.5h45q-30 25 -30 67v478q0 50 36.5 85.5t87.5 35.5t87.5 -35.5t36.5 -85.5v-478q0 -42 -30 -67h45zM32 698q14 6 24.5 -4.5t2.5 -25.5l-39 -71q-6 -8 -10 -10q-12 -5 -22 4.5t-4 23.5l38 73q4 7 10 10z" />
<glyph unicode="&#x390;" horiz-adv-x="270" d="M146 849q6 7 10 10q14 6 25 -4.5t2 -25.5l-39 -71q-4 -8 -10 -9q-12 -5 -22 4t-3 23zM61 762q-14 0 -24 10t-10 24t10 24t24 10t24 -10t10 -24t-10 -24t-24 -10zM221 762q-14 0 -24 10t-10 24t10 24t24 10t24 -10t10 -24t-10 -24t-24 -10zM109 22q0 -9 -6.5 -15.5 t-15.5 -6.5t-15.5 6.5t-6.5 15.5v656q0 9 6.5 15.5t15.5 6.5t15.5 -6.5t6.5 -15.5v-656z" />
<glyph unicode="&#x391;" horiz-adv-x="368" d="M109 22q0 -9 -6.5 -15.5t-15.5 -6.5t-15.5 6.5t-6.5 15.5v562q0 52 35.5 89t83.5 37t83.5 -37t35.5 -89v-562q0 -9 -6.5 -15.5t-15.5 -6.5t-15.5 6.5t-6.5 15.5v306h-150v-306zM259 372v212q0 35 -21.5 58.5t-53.5 23.5t-53.5 -23.5t-21.5 -58.5v-212h150z" />
<glyph unicode="&#x392;" horiz-adv-x="403" d="M223 495q71 -26 113 -91t42 -151q0 -106 -59.5 -179.5t-143.5 -73.5h-89q-8 0 -14.5 6.5t-6.5 15.5v655q0 9 6.5 16t15.5 7h72q46 0 79 -34.5t33 -82.5q0 -60 -48 -88zM109 509h50q28 0 48 22t20 52t-20 51.5t-48 21.5h-50v-147zM175 44q67 0 113 60.5t46 148.5 t-46.5 150t-112.5 62h-66v-421h66z" />
<glyph unicode="&#x393;" horiz-adv-x="342" d="M285 700q9 0 15.5 -6.5t6.5 -15.5t-6.5 -15.5t-15.5 -6.5h-176v-634q0 -9 -6.5 -15.5t-15.5 -6.5t-15.5 6.5t-6.5 15.5v655q0 9 6.5 16t15.5 7h198z" />
<glyph unicode="&#x394;" horiz-adv-x="344" d="M324 26q2 -11 -5 -18.5t-17 -7.5h-260q-10 0 -17 7.5t-5 18.5l130 666q3 18 22 18t22 -18zM172 586l-104 -542h208z" />
<glyph unicode="&#x395;" horiz-adv-x="294" d="M217 166h-108v-87q0 -14 11 -24.5t25 -10.5h72q9 0 15.5 -6.5t6.5 -15.5t-6.5 -15.5t-15.5 -6.5h-72q-33 0 -56.5 23t-23.5 56v542q0 33 23.5 56t56.5 23h72q9 0 15.5 -6.5t6.5 -15.5t-6.5 -15.5t-15.5 -6.5h-72q-14 0 -25 -10.5t-11 -24.5v-411h108q9 0 15.5 -6.5 t6.5 -15.5t-6.5 -15.5t-15.5 -6.5z" />
<glyph unicode="&#x396;" horiz-adv-x="341" d="M81 700q-9 0 -15.5 -6.5t-6.5 -15.5t6.5 -15.5t15.5 -6.5h162l-208 -627q-4 -13 3 -21t18 -8h228q9 0 15.5 6.5t6.5 15.5t-6.5 15.5t-15.5 6.5h-198l208 627q4 12 -3.5 20.5t-18.5 8.5h-191z" />
<glyph unicode="&#x397;" horiz-adv-x="368" d="M109 372h150v306q0 9 6.5 15.5t15.5 6.5t15.5 -6.5t6.5 -15.5v-656q0 -9 -6.5 -15.5t-15.5 -6.5t-15.5 6.5t-6.5 15.5v306h-150v-306q0 -9 -6.5 -15.5t-15.5 -6.5t-15.5 6.5t-6.5 15.5v656q0 9 6.5 15.5t15.5 6.5t15.5 -6.5t6.5 -15.5v-306z" />
<glyph unicode="&#x398;" d="M189 710q51 0 87.5 -35.5t36.5 -85.5v-478q0 -50 -36.5 -85.5t-87.5 -35.5t-87.5 35.5t-36.5 85.5v478q0 50 36.5 85.5t87.5 35.5zM189 666q-33 0 -56.5 -22.5t-23.5 -54.5v-217h160v217q0 32 -23.5 54.5t-56.5 22.5zM189 34q33 0 56.5 22.5t23.5 54.5v217h-160v-217 q0 -32 23.5 -54.5t56.5 -22.5z" />
<glyph unicode="&#x399;" horiz-adv-x="174" d="M109 22q0 -9 -6.5 -15.5t-15.5 -6.5t-15.5 6.5t-6.5 15.5v656q0 9 6.5 15.5t15.5 6.5t15.5 -6.5t6.5 -15.5v-656z" />
<glyph unicode="&#x39a;" horiz-adv-x="366" d="M243 412q34 -4 53.5 -26.5t19.5 -54.5v-309q0 -9 -6.5 -15.5t-15.5 -6.5t-15.5 6.5t-6.5 15.5v309q0 19 -13 32t-32 13h-118v-354q0 -9 -6.5 -15.5t-15.5 -6.5t-15.5 6.5t-6.5 15.5v656q0 9 6.5 15.5t15.5 6.5t15.5 -6.5t6.5 -15.5v-258h70q17 0 29.5 13t12.5 31v120 q0 9 6.5 15.5t15.5 6.5t15.5 -6.5t6.5 -15.5v-120q0 -29 -22 -52z" />
<glyph unicode="&#x39b;" horiz-adv-x="316" d="M286 25q1 -11 -6 -18t-17 -7q-18 0 -21 18l-83 559l-84 -559q-3 -18 -21 -18q-11 0 -18 7t-5 18l106 665q3 20 22 20q17 0 21 -20z" />
<glyph unicode="&#x39c;" horiz-adv-x="386" d="M299 0q-9 0 -15.5 6.5t-6.5 15.5v519l-62 -195q-5 -18 -22 -18t-22 18l-62 195v-519q0 -9 -6.5 -15.5t-15.5 -6.5t-15.5 6.5t-6.5 15.5v656q0 9 6.5 15.5t15.5 6.5q16 0 21 -16l85 -268l85 268q5 16 21 16q9 0 15.5 -6.5t6.5 -15.5v-656q0 -9 -6.5 -15.5t-15.5 -6.5z" />
<glyph unicode="&#x39d;" d="M291 700q9 0 15.5 -6.5t6.5 -15.5v-656q0 -9 -6.5 -15.5t-15.5 -6.5q-16 0 -21 15l-161 519v-512q0 -9 -6.5 -15.5t-15.5 -6.5t-15.5 6.5t-6.5 15.5v656q0 9 6.5 15.5t15.5 6.5q16 0 21 -15l161 -519v512q0 9 6.5 15.5t15.5 6.5z" />
<glyph unicode="&#x39e;" horiz-adv-x="348" d="M276 700q9 0 15.5 -6.5t6.5 -15.5t-6.5 -15.5t-15.5 -6.5h-204q-9 0 -15.5 6.5t-6.5 15.5t6.5 15.5t15.5 6.5h204zM111 338q-9 0 -15.5 6.5t-6.5 15.5t6.5 15.5t15.5 6.5h127q9 0 15.5 -6.5t6.5 -15.5t-6.5 -15.5t-15.5 -6.5h-127zM281 44q9 0 15.5 -6.5t6.5 -15.5 t-6.5 -15.5t-15.5 -6.5h-214q-9 0 -15.5 6.5t-6.5 15.5t6.5 15.5t15.5 6.5h214z" />
<glyph unicode="&#x39f;" d="M189 -10q51 0 87.5 35.5t36.5 85.5v478q0 50 -36.5 85.5t-87.5 35.5t-87.5 -35.5t-36.5 -85.5v-478q0 -50 36.5 -85.5t87.5 -35.5zM189 666q33 0 56.5 -22.5t23.5 -54.5v-478q0 -32 -23.5 -54.5t-56.5 -22.5t-56.5 22.5t-23.5 54.5v478q0 32 23.5 54.5t56.5 22.5z" />
<glyph unicode="&#x3a0;" horiz-adv-x="368" d="M109 22q0 -9 -6.5 -15.5t-15.5 -6.5t-15.5 6.5t-6.5 15.5v656q0 9 6.5 15.5t15.5 6.5h194q9 0 15.5 -6.5t6.5 -15.5v-656q0 -9 -6.5 -15.5t-15.5 -6.5t-15.5 6.5t-6.5 15.5v634h-150v-634z" />
<glyph unicode="&#x3a1;" horiz-adv-x="380" d="M221 700q47 0 80.5 -34.5t33.5 -82.5t-33.5 -82.5t-80.5 -34.5h-112v-444q0 -9 -6.5 -15.5t-15.5 -6.5t-15.5 6.5t-6.5 15.5v656q0 9 6.5 15.5t15.5 6.5h134zM221 510q29 0 49.5 21.5t20.5 51.5t-20.5 51.5t-49.5 21.5h-112v-146h112z" />
<glyph unicode="&#x3a3;" horiz-adv-x="392" d="M303 44q9 0 15.5 -6.5t6.5 -15.5t-6.5 -15.5t-15.5 -6.5h-233q-9 0 -15.5 6.5t-6.5 15.5q0 5 1 7l108 321l-98 321q-1 2 -1 7q0 9 6.5 15.5t15.5 6.5h213q9 0 15.5 -6.5t6.5 -15.5t-6.5 -15.5t-15.5 -6.5h-183l89 -288q5 -18 0 -35l-98 -289h202z" />
<glyph unicode="&#x3a4;" horiz-adv-x="302" d="M255 700q9 0 15.5 -6.5t6.5 -15.5t-6.5 -15.5t-15.5 -6.5h-82v-634q0 -9 -6.5 -15.5t-15.5 -6.5t-15.5 6.5t-6.5 15.5v634h-82q-9 0 -15.5 6.5t-6.5 15.5t6.5 15.5t15.5 6.5h208z" />
<glyph unicode="&#x3a5;" horiz-adv-x="324" d="M271 700q11 0 18.5 -8.5t3.5 -20.5l-108 -313v-336q0 -9 -6.5 -15.5t-15.5 -6.5t-15.5 6.5t-6.5 15.5v336l-109 313q-4 12 3.5 20.5t18.5 8.5q15 0 20 -15l89 -257l88 257q5 15 20 15z" />
<glyph unicode="&#x3a6;" horiz-adv-x="454" d="M265 700q51 0 87.5 -35.5t36.5 -85.5v-458q0 -50 -36.5 -85.5t-87.5 -35.5h-16v-28q0 -9 -6.5 -15.5t-15.5 -6.5t-15.5 6.5t-6.5 15.5v28h-16q-51 0 -87.5 35.5t-36.5 85.5v458q0 50 36.5 85.5t87.5 35.5h16v28q0 9 6.5 15.5t15.5 6.5t15.5 -6.5t6.5 -15.5v-28h16z M189 44h16v612h-16q-33 0 -56.5 -22.5t-23.5 -54.5v-458q0 -32 23.5 -54.5t56.5 -22.5zM345 121v458q0 32 -23.5 54.5t-56.5 22.5h-16v-612h16q33 0 56.5 22.5t23.5 54.5z" />
<glyph unicode="&#x3a7;" horiz-adv-x="347" d="M311 29q4 -13 -3 -21t-18 -8q-16 0 -21 15l-95 277l-96 -277q-4 -15 -21 -15q-11 0 -18 8t-3 21l114 331l-107 311q-4 12 3.5 20.5t18.5 8.5q15 0 20 -15l89 -257l88 257q5 15 20 15q11 0 18.5 -8.5t3.5 -20.5l-107 -311z" />
<glyph unicode="&#x3a8;" horiz-adv-x="424" d="M352 700q9 0 15.5 -6.5t6.5 -15.5v-285q0 -50 -36.5 -85.5t-87.5 -35.5h-16v-250q0 -9 -6.5 -15.5t-15.5 -6.5t-15.5 6.5t-6.5 15.5v250h-16q-51 0 -87.5 35.5t-36.5 85.5v285q0 9 6.5 15.5t15.5 6.5t15.5 -6.5t6.5 -15.5v-285q0 -32 23.5 -54.5t56.5 -22.5h16v362 q0 9 6.5 15.5t15.5 6.5t15.5 -6.5t6.5 -15.5v-362h16q33 0 56.5 22.5t23.5 54.5v285q0 9 6.5 15.5t15.5 6.5z" />
<glyph unicode="&#x3a9;" d="M328 44q9 0 15.5 -6.5t6.5 -15.5t-6.5 -15.5t-15.5 -6.5h-90q-9 0 -15.5 6.5t-6.5 15.5t7 16q1 1 2 1q26 22 35 37t9 35v478q0 32 -23.5 54.5t-56.5 22.5t-56.5 -22.5t-23.5 -54.5v-478q0 -20 9 -35t35 -37q1 0 2 -1q7 -7 7 -16t-6.5 -15.5t-15.5 -6.5h-90 q-9 0 -15.5 6.5t-6.5 15.5t6.5 15.5t15.5 6.5h45q-30 25 -30 67v478q0 50 36.5 85.5t87.5 35.5t87.5 -35.5t36.5 -85.5v-478q0 -42 -30 -67h45z" />
<glyph unicode="&#x3aa;" horiz-adv-x="174" d="M37 762q-14 0 -24 10t-10 24t10 24t24 10t24 -10t10 -24t-10 -24t-24 -10zM137 762q-14 0 -24 10t-10 24t10 24t24 10t24 -10t10 -24t-10 -24t-24 -10zM109 22q0 -9 -6.5 -15.5t-15.5 -6.5t-15.5 6.5t-6.5 15.5v656q0 9 6.5 15.5t15.5 6.5t15.5 -6.5t6.5 -15.5v-656z" />
<glyph unicode="&#x3ab;" horiz-adv-x="324" d="M113 762q-14 0 -24 10t-10 24t10 24t24 10t24 -10t10 -24t-10 -24t-24 -10zM213 762q-14 0 -24 10t-10 24t10 24t24 10t24 -10t10 -24t-10 -24t-24 -10zM271 700q11 0 18.5 -8.5t3.5 -20.5l-108 -313v-336q0 -9 -6.5 -15.5t-15.5 -6.5t-15.5 6.5t-6.5 15.5v336l-109 313 q-4 12 3.5 20.5t18.5 8.5q15 0 20 -15l89 -257l88 257q5 15 20 15z" />
<glyph unicode="&#x3ac;" horiz-adv-x="368" d="M109 22q0 -9 -6.5 -15.5t-15.5 -6.5t-15.5 6.5t-6.5 15.5v562q0 52 35.5 89t83.5 37t83.5 -37t35.5 -89v-562q0 -9 -6.5 -15.5t-15.5 -6.5t-15.5 6.5t-6.5 15.5v306h-150v-306zM22 688q4 7 10 10q14 6 24.5 -4.5t2.5 -25.5l-39 -71q-6 -8 -10 -10q-12 -5 -22 4.5t-4 23.5 zM259 372v212q0 35 -21.5 58.5t-53.5 23.5t-53.5 -23.5t-21.5 -58.5v-212h150z" />
<glyph unicode="&#x3ad;" horiz-adv-x="294" d="M13 698q14 6 24.5 -4.5t2.5 -25.5l-39 -71q-6 -8 -10 -10q-12 -5 -22 4.5t-4 23.5l38 73q4 7 10 10zM217 166h-108v-87q0 -14 11 -24.5t25 -10.5h72q9 0 15.5 -6.5t6.5 -15.5t-6.5 -15.5t-15.5 -6.5h-72q-33 0 -56.5 23t-23.5 56v542q0 33 23.5 56t56.5 23h72 q9 0 15.5 -6.5t6.5 -15.5t-6.5 -15.5t-15.5 -6.5h-72q-14 0 -25 -10.5t-11 -24.5v-411h108q9 0 15.5 -6.5t6.5 -15.5t-6.5 -15.5t-15.5 -6.5z" />
<glyph unicode="&#x3ae;" horiz-adv-x="368" d="M-6 688q4 7 10 10q14 6 24.5 -4.5t2.5 -25.5l-39 -71q-6 -8 -10 -10q-12 -5 -22 4.5t-4 23.5zM109 372h150v306q0 9 6.5 15.5t15.5 6.5t15.5 -6.5t6.5 -15.5v-656q0 -9 -6.5 -15.5t-15.5 -6.5t-15.5 6.5t-6.5 15.5v306h-150v-306q0 -9 -6.5 -15.5t-15.5 -6.5t-15.5 6.5 t-6.5 15.5v656q0 9 6.5 15.5t15.5 6.5t15.5 -6.5t6.5 -15.5v-306z" />
<glyph unicode="&#x3af;" horiz-adv-x="270" d="M25 688q4 7 10 10q14 6 24.5 -4.5t2.5 -25.5l-39 -71q-6 -8 -10 -10q-12 -5 -22 4.5t-4 23.5zM193 44q9 0 15.5 -6.5t6.5 -15.5t-6.5 -15.5t-15.5 -6.5q-37 0 -58 30q-21 -30 -58 -30q-9 0 -15.5 6.5t-6.5 15.5t6.5 15.5t15.5 6.5q16 0 26 11t10 24v542q0 19 -16 26 q-19 8 -14 28q8 21 29 13q14 -5 23 -18q21 30 58 30q9 0 15.5 -6.5t6.5 -15.5t-6.5 -15.5t-15.5 -6.5q-16 0 -26 -11t-10 -24v-542q0 -13 10 -24t26 -11z" />
<glyph unicode="&#x3b0;" horiz-adv-x="324" d="M165 849q6 7 10 10q14 6 25 -4.5t2 -25.5l-39 -71q-4 -8 -10 -9q-12 -5 -22 4t-3 23zM80 762q-14 0 -24 10t-10 24t10 24t24 10t24 -10t10 -24t-10 -24t-24 -10zM240 762q-14 0 -24 10t-10 24t10 24t24 10t24 -10t10 -24t-10 -24t-24 -10zM271 700q11 0 18.5 -8.5 t3.5 -20.5l-108 -313v-336q0 -9 -6.5 -15.5t-15.5 -6.5t-15.5 6.5t-6.5 15.5v336l-109 313q-4 12 3.5 20.5t18.5 8.5q15 0 20 -15l89 -257l88 257q5 15 20 15z" />
<glyph unicode="&#x3b1;" horiz-adv-x="368" d="M109 22q0 -9 -6.5 -15.5t-15.5 -6.5t-15.5 6.5t-6.5 15.5v562q0 52 35.5 89t83.5 37t83.5 -37t35.5 -89v-562q0 -9 -6.5 -15.5t-15.5 -6.5t-15.5 6.5t-6.5 15.5v306h-150v-306zM259 372v212q0 35 -21.5 58.5t-53.5 23.5t-53.5 -23.5t-21.5 -58.5v-212h150z" />
<glyph unicode="&#x3b2;" horiz-adv-x="403" d="M223 495q71 -26 113 -91t42 -151q0 -106 -59.5 -179.5t-143.5 -73.5h-89q-8 0 -14.5 6.5t-6.5 15.5v655q0 9 6.5 16t15.5 7h72q46 0 79 -34.5t33 -82.5q0 -60 -48 -88zM109 509h50q28 0 48 22t20 52t-20 51.5t-48 21.5h-50v-147zM175 44q67 0 113 60.5t46 148.5 t-46.5 150t-112.5 62h-66v-421h66z" />
<glyph unicode="&#x3b3;" horiz-adv-x="342" d="M285 700q9 0 15.5 -6.5t6.5 -15.5t-6.5 -15.5t-15.5 -6.5h-176v-634q0 -9 -6.5 -15.5t-15.5 -6.5t-15.5 6.5t-6.5 15.5v655q0 9 6.5 16t15.5 7h198z" />
<glyph unicode="&#x3b4;" horiz-adv-x="344" d="M324 26q2 -11 -5 -18.5t-17 -7.5h-260q-10 0 -17 7.5t-5 18.5l130 666q3 18 22 18t22 -18zM172 586l-104 -542h208z" />
<glyph unicode="&#x3b5;" horiz-adv-x="294" d="M217 166h-108v-87q0 -14 11 -24.5t25 -10.5h72q9 0 15.5 -6.5t6.5 -15.5t-6.5 -15.5t-15.5 -6.5h-72q-33 0 -56.5 23t-23.5 56v542q0 33 23.5 56t56.5 23h72q9 0 15.5 -6.5t6.5 -15.5t-6.5 -15.5t-15.5 -6.5h-72q-14 0 -25 -10.5t-11 -24.5v-411h108q9 0 15.5 -6.5 t6.5 -15.5t-6.5 -15.5t-15.5 -6.5z" />
<glyph unicode="&#x3b6;" horiz-adv-x="341" d="M81 700q-9 0 -15.5 -6.5t-6.5 -15.5t6.5 -15.5t15.5 -6.5h162l-208 -627q-4 -13 3 -21t18 -8h228q9 0 15.5 6.5t6.5 15.5t-6.5 15.5t-15.5 6.5h-198l208 627q4 12 -3.5 20.5t-18.5 8.5h-191z" />
<glyph unicode="&#x3b7;" horiz-adv-x="368" d="M109 372h150v306q0 9 6.5 15.5t15.5 6.5t15.5 -6.5t6.5 -15.5v-656q0 -9 -6.5 -15.5t-15.5 -6.5t-15.5 6.5t-6.5 15.5v306h-150v-306q0 -9 -6.5 -15.5t-15.5 -6.5t-15.5 6.5t-6.5 15.5v656q0 9 6.5 15.5t15.5 6.5t15.5 -6.5t6.5 -15.5v-306z" />
<glyph unicode="&#x3b8;" d="M189 710q51 0 87.5 -35.5t36.5 -85.5v-478q0 -50 -36.5 -85.5t-87.5 -35.5t-87.5 35.5t-36.5 85.5v478q0 50 36.5 85.5t87.5 35.5zM189 666q-33 0 -56.5 -22.5t-23.5 -54.5v-217h160v217q0 32 -23.5 54.5t-56.5 22.5zM189 34q33 0 56.5 22.5t23.5 54.5v217h-160v-217 q0 -32 23.5 -54.5t56.5 -22.5z" />
<glyph unicode="&#x3b9;" horiz-adv-x="174" d="M109 22q0 -9 -6.5 -15.5t-15.5 -6.5t-15.5 6.5t-6.5 15.5v656q0 9 6.5 15.5t15.5 6.5t15.5 -6.5t6.5 -15.5v-656z" />
<glyph unicode="&#x3ba;" horiz-adv-x="366" d="M243 412q34 -4 53.5 -26.5t19.5 -54.5v-309q0 -9 -6.5 -15.5t-15.5 -6.5t-15.5 6.5t-6.5 15.5v309q0 19 -13 32t-32 13h-118v-354q0 -9 -6.5 -15.5t-15.5 -6.5t-15.5 6.5t-6.5 15.5v656q0 9 6.5 15.5t15.5 6.5t15.5 -6.5t6.5 -15.5v-258h70q17 0 29.5 13t12.5 31v120 q0 9 6.5 15.5t15.5 6.5t15.5 -6.5t6.5 -15.5v-120q0 -29 -22 -52z" />
<glyph unicode="&#x3bb;" horiz-adv-x="344" />
<glyph unicode="&#x3bc;" horiz-adv-x="386" d="M299 0q-9 0 -15.5 6.5t-6.5 15.5v519l-62 -195q-5 -18 -22 -18t-22 18l-62 195v-519q0 -9 -6.5 -15.5t-15.5 -6.5t-15.5 6.5t-6.5 15.5v656q0 9 6.5 15.5t15.5 6.5q16 0 21 -16l85 -268l85 268q5 16 21 16q9 0 15.5 -6.5t6.5 -15.5v-656q0 -9 -6.5 -15.5t-15.5 -6.5z" />
<glyph unicode="&#x3bd;" d="M291 700q9 0 15.5 -6.5t6.5 -15.5v-656q0 -9 -6.5 -15.5t-15.5 -6.5q-16 0 -21 15l-161 519v-512q0 -9 -6.5 -15.5t-15.5 -6.5t-15.5 6.5t-6.5 15.5v656q0 9 6.5 15.5t15.5 6.5q16 0 21 -15l161 -519v512q0 9 6.5 15.5t15.5 6.5z" />
<glyph unicode="&#x3be;" horiz-adv-x="348" d="M276 700q9 0 15.5 -6.5t6.5 -15.5t-6.5 -15.5t-15.5 -6.5h-204q-9 0 -15.5 6.5t-6.5 15.5t6.5 15.5t15.5 6.5h204zM111 338q-9 0 -15.5 6.5t-6.5 15.5t6.5 15.5t15.5 6.5h127q9 0 15.5 -6.5t6.5 -15.5t-6.5 -15.5t-15.5 -6.5h-127zM281 44q9 0 15.5 -6.5t6.5 -15.5 t-6.5 -15.5t-15.5 -6.5h-214q-9 0 -15.5 6.5t-6.5 15.5t6.5 15.5t15.5 6.5h214z" />
<glyph unicode="&#x3bf;" d="M189 -10q51 0 87.5 35.5t36.5 85.5v478q0 50 -36.5 85.5t-87.5 35.5t-87.5 -35.5t-36.5 -85.5v-478q0 -50 36.5 -85.5t87.5 -35.5zM189 666q33 0 56.5 -22.5t23.5 -54.5v-478q0 -32 -23.5 -54.5t-56.5 -22.5t-56.5 22.5t-23.5 54.5v478q0 32 23.5 54.5t56.5 22.5z" />
<glyph unicode="&#x3c0;" horiz-adv-x="368" d="M109 22q0 -9 -6.5 -15.5t-15.5 -6.5t-15.5 6.5t-6.5 15.5v656q0 9 6.5 15.5t15.5 6.5h194q9 0 15.5 -6.5t6.5 -15.5v-656q0 -9 -6.5 -15.5t-15.5 -6.5t-15.5 6.5t-6.5 15.5v634h-150v-634z" />
<glyph unicode="&#x3c1;" horiz-adv-x="380" d="M221 700q47 0 80.5 -34.5t33.5 -82.5t-33.5 -82.5t-80.5 -34.5h-112v-444q0 -9 -6.5 -15.5t-15.5 -6.5t-15.5 6.5t-6.5 15.5v656q0 9 6.5 15.5t15.5 6.5h134zM221 510q29 0 49.5 21.5t20.5 51.5t-20.5 51.5t-49.5 21.5h-112v-146h112z" />
<glyph unicode="&#x3c2;" horiz-adv-x="392" d="M303 44q9 0 15.5 -6.5t6.5 -15.5t-6.5 -15.5t-15.5 -6.5h-233q-9 0 -15.5 6.5t-6.5 15.5q0 5 1 7l108 321l-98 321q-1 2 -1 7q0 9 6.5 15.5t15.5 6.5h213q9 0 15.5 -6.5t6.5 -15.5t-6.5 -15.5t-15.5 -6.5h-183l89 -288q5 -18 0 -35l-98 -289h202z" />
<glyph unicode="&#x3c3;" horiz-adv-x="392" d="M303 44q9 0 15.5 -6.5t6.5 -15.5t-6.5 -15.5t-15.5 -6.5h-233q-9 0 -15.5 6.5t-6.5 15.5q0 5 1 7l108 321l-98 321q-1 2 -1 7q0 9 6.5 15.5t15.5 6.5h213q9 0 15.5 -6.5t6.5 -15.5t-6.5 -15.5t-15.5 -6.5h-183l89 -288q5 -18 0 -35l-98 -289h202z" />
<glyph unicode="&#x3c4;" horiz-adv-x="302" d="M255 700q9 0 15.5 -6.5t6.5 -15.5t-6.5 -15.5t-15.5 -6.5h-82v-634q0 -9 -6.5 -15.5t-15.5 -6.5t-15.5 6.5t-6.5 15.5v634h-82q-9 0 -15.5 6.5t-6.5 15.5t6.5 15.5t15.5 6.5h208z" />
<glyph unicode="&#x3c5;" horiz-adv-x="324" d="M271 700q11 0 18.5 -8.5t3.5 -20.5l-108 -313v-336q0 -9 -6.5 -15.5t-15.5 -6.5t-15.5 6.5t-6.5 15.5v336l-109 313q-4 12 3.5 20.5t18.5 8.5q15 0 20 -15l89 -257l88 257q5 15 20 15z" />
<glyph unicode="&#x3c6;" horiz-adv-x="454" d="M265 700q51 0 87.5 -35.5t36.5 -85.5v-458q0 -50 -36.5 -85.5t-87.5 -35.5h-16v-28q0 -9 -6.5 -15.5t-15.5 -6.5t-15.5 6.5t-6.5 15.5v28h-16q-51 0 -87.5 35.5t-36.5 85.5v458q0 50 36.5 85.5t87.5 35.5h16v28q0 9 6.5 15.5t15.5 6.5t15.5 -6.5t6.5 -15.5v-28h16z M189 44h16v612h-16q-33 0 -56.5 -22.5t-23.5 -54.5v-458q0 -32 23.5 -54.5t56.5 -22.5zM345 121v458q0 32 -23.5 54.5t-56.5 22.5h-16v-612h16q33 0 56.5 22.5t23.5 54.5z" />
<glyph unicode="&#x3c7;" horiz-adv-x="347" d="M311 29q4 -13 -3 -21t-18 -8q-16 0 -21 15l-95 277l-96 -277q-4 -15 -21 -15q-11 0 -18 8t-3 21l114 331l-107 311q-4 12 3.5 20.5t18.5 8.5q15 0 20 -15l89 -257l88 257q5 15 20 15q11 0 18.5 -8.5t3.5 -20.5l-107 -311z" />
<glyph unicode="&#x3c8;" horiz-adv-x="424" d="M352 700q9 0 15.5 -6.5t6.5 -15.5v-285q0 -50 -36.5 -85.5t-87.5 -35.5h-16v-250q0 -9 -6.5 -15.5t-15.5 -6.5t-15.5 6.5t-6.5 15.5v250h-16q-51 0 -87.5 35.5t-36.5 85.5v285q0 9 6.5 15.5t15.5 6.5t15.5 -6.5t6.5 -15.5v-285q0 -32 23.5 -54.5t56.5 -22.5h16v362 q0 9 6.5 15.5t15.5 6.5t15.5 -6.5t6.5 -15.5v-362h16q33 0 56.5 22.5t23.5 54.5v285q0 9 6.5 15.5t15.5 6.5z" />
<glyph unicode="&#x3c9;" d="M328 44q9 0 15.5 -6.5t6.5 -15.5t-6.5 -15.5t-15.5 -6.5h-90q-9 0 -15.5 6.5t-6.5 15.5t7 16q1 1 2 1q26 22 35 37t9 35v478q0 32 -23.5 54.5t-56.5 22.5t-56.5 -22.5t-23.5 -54.5v-478q0 -20 9 -35t35 -37q1 0 2 -1q7 -7 7 -16t-6.5 -15.5t-15.5 -6.5h-90 q-9 0 -15.5 6.5t-6.5 15.5t6.5 15.5t15.5 6.5h45q-30 25 -30 67v478q0 50 36.5 85.5t87.5 35.5t87.5 -35.5t36.5 -85.5v-478q0 -42 -30 -67h45z" />
<glyph unicode="&#x3ca;" horiz-adv-x="174" d="M37 762q-14 0 -24 10t-10 24t10 24t24 10t24 -10t10 -24t-10 -24t-24 -10zM137 762q-14 0 -24 10t-10 24t10 24t24 10t24 -10t10 -24t-10 -24t-24 -10zM109 22q0 -9 -6.5 -15.5t-15.5 -6.5t-15.5 6.5t-6.5 15.5v656q0 9 6.5 15.5t15.5 6.5t15.5 -6.5t6.5 -15.5v-656z" />
<glyph unicode="&#x3cb;" horiz-adv-x="324" d="M113 762q-14 0 -24 10t-10 24t10 24t24 10t24 -10t10 -24t-10 -24t-24 -10zM213 762q-14 0 -24 10t-10 24t10 24t24 10t24 -10t10 -24t-10 -24t-24 -10zM271 700q11 0 18.5 -8.5t3.5 -20.5l-108 -313v-336q0 -9 -6.5 -15.5t-15.5 -6.5t-15.5 6.5t-6.5 15.5v336l-109 313 q-4 12 3.5 20.5t18.5 8.5q15 0 20 -15l89 -257l88 257q5 15 20 15z" />
<glyph unicode="&#x3cc;" d="M189 -10q51 0 87.5 35.5t36.5 85.5v478q0 50 -36.5 85.5t-87.5 35.5t-87.5 -35.5t-36.5 -85.5v-478q0 -50 36.5 -85.5t87.5 -35.5zM22 688q4 7 10 10q14 6 24.5 -4.5t2.5 -25.5l-39 -71q-6 -8 -10 -10q-12 -5 -22 4.5t-4 23.5zM189 666q33 0 56.5 -22.5t23.5 -54.5v-478 q0 -32 -23.5 -54.5t-56.5 -22.5t-56.5 22.5t-23.5 54.5v478q0 32 23.5 54.5t56.5 22.5z" />
<glyph unicode="&#x3cd;" horiz-adv-x="324" d="M0 688q6 7 10 10q14 6 25 -4.5t2 -25.5l-39 -71q-4 -8 -10 -9q-12 -5 -22 4t-3 23zM271 700q11 0 18.5 -8.5t3.5 -20.5l-108 -313v-336q0 -9 -6.5 -15.5t-15.5 -6.5t-15.5 6.5t-6.5 15.5v336l-84 313q-4 12 3.5 20.5t18.5 8.5q16 0 20 -15l66 -257l86 257q5 15 20 15z " />
<glyph unicode="&#x3ce;" d="M328 44q9 0 15.5 -6.5t6.5 -15.5t-6.5 -15.5t-15.5 -6.5h-90q-9 0 -15.5 6.5t-6.5 15.5t7 16q1 1 2 1q26 22 35 37t9 35v478q0 32 -23.5 54.5t-56.5 22.5t-56.5 -22.5t-23.5 -54.5v-478q0 -20 9 -35t35 -37q1 0 2 -1q7 -7 7 -16t-6.5 -15.5t-15.5 -6.5h-90 q-9 0 -15.5 6.5t-6.5 15.5t6.5 15.5t15.5 6.5h45q-30 25 -30 67v478q0 50 36.5 85.5t87.5 35.5t87.5 -35.5t36.5 -85.5v-478q0 -42 -30 -67h45zM32 698q14 6 24.5 -4.5t2.5 -25.5l-39 -71q-6 -8 -10 -10q-12 -5 -22 4.5t-4 23.5l38 73q4 7 10 10z" />
<glyph unicode="&#x401;" horiz-adv-x="294" d="M108 762q-14 0 -24 10t-10 24t10 24t24 10t24 -10t10 -24t-10 -24t-24 -10zM208 762q-14 0 -24 10t-10 24t10 24t24 10t24 -10t10 -24t-10 -24t-24 -10zM109 621v-411h108q9 0 15.5 -6.5t6.5 -15.5t-6.5 -15.5t-15.5 -6.5h-108v-87q0 -14 11 -24.5t25 -10.5h72 q9 0 15.5 -6.5t6.5 -15.5t-6.5 -15.5t-15.5 -6.5h-72q-33 0 -56.5 23t-23.5 56v542q0 33 23.5 56t56.5 23h72q9 0 15.5 -6.5t6.5 -15.5t-6.5 -15.5t-15.5 -6.5h-72q-14 0 -25 -10.5t-11 -24.5z" />
<glyph unicode="&#x410;" horiz-adv-x="368" d="M109 22q0 -9 -6.5 -15.5t-15.5 -6.5t-15.5 6.5t-6.5 15.5v562q0 52 35.5 89t83.5 37t83.5 -37t35.5 -89v-562q0 -9 -6.5 -15.5t-15.5 -6.5t-15.5 6.5t-6.5 15.5v306h-150v-306zM259 372v212q0 35 -21.5 58.5t-53.5 23.5t-53.5 -23.5t-21.5 -58.5v-212h150z" />
<glyph unicode="&#x411;" horiz-adv-x="383" d="M145 506q84 0 143.5 -73.5t59.5 -179.5t-59.5 -179.5t-143.5 -73.5h-59q-8 0 -14.5 6.5t-6.5 15.5v655q0 9 6.5 16t15.5 7h171q9 0 15.5 -6.5t6.5 -15.5t-6.5 -15.5t-15.5 -6.5h-149v-150h36zM145 44q67 0 113 60.5t46 148.5t-46 148.5t-113 60.5h-36v-418h36z" />
<glyph unicode="&#x412;" horiz-adv-x="403" d="M223 495q71 -26 113 -91t42 -151q0 -106 -59.5 -179.5t-143.5 -73.5h-89q-8 0 -14.5 6.5t-6.5 15.5v655q0 9 6.5 16t15.5 7h72q46 0 79 -34.5t33 -82.5q0 -60 -48 -88zM109 509h50q28 0 48 22t20 52t-20 51.5t-48 21.5h-50v-147zM175 44q67 0 113 60.5t46 148.5 t-46.5 150t-112.5 62h-66v-421h66z" />
<glyph unicode="&#x413;" horiz-adv-x="342" d="M285 700q9 0 15.5 -6.5t6.5 -15.5t-6.5 -15.5t-15.5 -6.5h-176v-634q0 -9 -6.5 -15.5t-15.5 -6.5t-15.5 6.5t-6.5 15.5v655q0 9 6.5 16t15.5 7h198z" />
<glyph unicode="&#x414;" horiz-adv-x="449" d="M397 44q9 0 15.5 -6.5t6.5 -15.5v-129q0 -8 -6 -14t-14 -6t-14 6t-6 14v107h-309v-107q0 -8 -6 -14t-14 -6t-14 6t-6 14v129q0 9 6.5 15.5t15.5 6.5h25l126 648q3 18 22 18t22 -18l126 -648h24zM225 596l-104 -552h207z" />
<glyph unicode="&#x415;" horiz-adv-x="294" d="M217 166h-108v-87q0 -14 11 -24.5t25 -10.5h72q9 0 15.5 -6.5t6.5 -15.5t-6.5 -15.5t-15.5 -6.5h-72q-33 0 -56.5 23t-23.5 56v542q0 33 23.5 56t56.5 23h72q9 0 15.5 -6.5t6.5 -15.5t-6.5 -15.5t-15.5 -6.5h-72q-14 0 -25 -10.5t-11 -24.5v-411h108q9 0 15.5 -6.5 t6.5 -15.5t-6.5 -15.5t-15.5 -6.5z" />
<glyph unicode="&#x416;" horiz-adv-x="498" d="M375 412q34 -4 53.5 -26.5t19.5 -54.5v-309q0 -9 -6.5 -15.5t-15.5 -6.5t-15.5 6.5t-6.5 15.5v309q0 19 -13 32t-32 13h-88v-354q0 -9 -6.5 -15.5t-15.5 -6.5t-15.5 6.5t-6.5 15.5v354h-88q-19 0 -32 -13t-13 -32v-309q0 -9 -6.5 -15.5t-15.5 -6.5t-15.5 6.5t-6.5 15.5 v309q0 32 19.5 54.5t53.5 26.5q-22 23 -22 52v180q0 9 6.5 15.5t15.5 6.5t15.5 -6.5t6.5 -15.5v-180q0 -18 12.5 -31t29.5 -13h40v258q0 9 6.5 15.5t15.5 6.5t15.5 -6.5t6.5 -15.5v-258h40q17 0 29.5 13t12.5 31v180q0 9 6.5 15.5t15.5 6.5t15.5 -6.5t6.5 -15.5v-180 q0 -29 -22 -52z" />
<glyph unicode="&#x417;" horiz-adv-x="323" d="M211 489q32 -9 52 -40t20 -65v-268q0 -53 -35.5 -89.5t-88.5 -36.5t-88.5 36.5t-35.5 89.5q0 9 6.5 15.5t15.5 6.5t15.5 -6.5t6.5 -15.5q0 -35 22.5 -58.5t57.5 -23.5t57.5 24t22.5 58v268q0 37 -21 59.5t-59 22.5h-53q-9 0 -15.5 6.5t-6.5 15.5t6.5 15.5t15.5 6.5h53 q36 0 58 21.5t22 57.5q0 32 -23.5 54.5t-56.5 22.5q-34 0 -57 -22.5t-23 -54.5q0 -9 -6.5 -15.5t-15.5 -6.5t-15.5 6.5t-6.5 15.5q0 50 36 85.5t88 35.5q51 0 87.5 -35.5t36.5 -85.5q0 -35 -20.5 -63.5t-51.5 -36.5z" />
<glyph unicode="&#x418;" d="M87 700q9 0 15.5 -6.5t6.5 -15.5v-512l161 519q5 15 21 15q9 0 15.5 -6.5t6.5 -15.5v-656q0 -9 -6.5 -15.5t-15.5 -6.5t-15.5 6.5t-6.5 15.5v512l-161 -519q-5 -15 -21 -15q-9 0 -15.5 6.5t-6.5 15.5v656q0 9 6.5 15.5t15.5 6.5z" />
<glyph unicode="&#x419;" d="M265 821q0 -32 -20.5 -51.5t-54.5 -19.5t-54.5 19.5t-20.5 51.5q0 23 21 23t21 -23q0 -16 9 -25.5t24 -9.5t24 9.5t9 25.5q0 23 21 23t21 -23zM87 700q9 0 15.5 -6.5t6.5 -15.5v-512l161 519q5 15 21 15q9 0 15.5 -6.5t6.5 -15.5v-656q0 -9 -6.5 -15.5t-15.5 -6.5 t-15.5 6.5t-6.5 15.5v512l-161 -519q-5 -15 -21 -15q-9 0 -15.5 6.5t-6.5 15.5v656q0 9 6.5 15.5t15.5 6.5z" />
<glyph unicode="&#x41a;" horiz-adv-x="366" d="M243 412q34 -4 53.5 -26.5t19.5 -54.5v-309q0 -9 -6.5 -15.5t-15.5 -6.5t-15.5 6.5t-6.5 15.5v309q0 19 -13 32t-32 13h-118v-354q0 -9 -6.5 -15.5t-15.5 -6.5t-15.5 6.5t-6.5 15.5v656q0 9 6.5 15.5t15.5 6.5t15.5 -6.5t6.5 -15.5v-258h70q17 0 29.5 13t12.5 31v120 q0 9 6.5 15.5t15.5 6.5t15.5 -6.5t6.5 -15.5v-120q0 -29 -22 -52z" />
<glyph unicode="&#x41b;" horiz-adv-x="316" d="M286 25q1 -11 -6 -18t-17 -7q-18 0 -21 18l-83 559l-84 -559q-3 -18 -21 -18q-11 0 -18 7t-5 18l106 665q3 20 22 20q17 0 21 -20z" />
<glyph unicode="&#x41c;" horiz-adv-x="386" d="M299 0q-9 0 -15.5 6.5t-6.5 15.5v519l-62 -195q-5 -18 -22 -18t-22 18l-62 195v-519q0 -9 -6.5 -15.5t-15.5 -6.5t-15.5 6.5t-6.5 15.5v656q0 9 6.5 15.5t15.5 6.5q16 0 21 -16l85 -268l85 268q5 16 21 16q9 0 15.5 -6.5t6.5 -15.5v-656q0 -9 -6.5 -15.5t-15.5 -6.5z" />
<glyph unicode="&#x41d;" horiz-adv-x="368" d="M109 372h150v306q0 9 6.5 15.5t15.5 6.5t15.5 -6.5t6.5 -15.5v-656q0 -9 -6.5 -15.5t-15.5 -6.5t-15.5 6.5t-6.5 15.5v306h-150v-306q0 -9 -6.5 -15.5t-15.5 -6.5t-15.5 6.5t-6.5 15.5v656q0 9 6.5 15.5t15.5 6.5t15.5 -6.5t6.5 -15.5v-306z" />
<glyph unicode="&#x41e;" d="M189 -10q51 0 87.5 35.5t36.5 85.5v478q0 50 -36.5 85.5t-87.5 35.5t-87.5 -35.5t-36.5 -85.5v-478q0 -50 36.5 -85.5t87.5 -35.5zM189 666q33 0 56.5 -22.5t23.5 -54.5v-478q0 -32 -23.5 -54.5t-56.5 -22.5t-56.5 22.5t-23.5 54.5v478q0 32 23.5 54.5t56.5 22.5z" />
<glyph unicode="&#x41f;" horiz-adv-x="368" d="M109 22q0 -9 -6.5 -15.5t-15.5 -6.5t-15.5 6.5t-6.5 15.5v656q0 9 6.5 15.5t15.5 6.5h194q9 0 15.5 -6.5t6.5 -15.5v-656q0 -9 -6.5 -15.5t-15.5 -6.5t-15.5 6.5t-6.5 15.5v634h-150v-634z" />
<glyph unicode="&#x420;" horiz-adv-x="380" d="M221 700q47 0 80.5 -34.5t33.5 -82.5t-33.5 -82.5t-80.5 -34.5h-112v-444q0 -9 -6.5 -15.5t-15.5 -6.5t-15.5 6.5t-6.5 15.5v656q0 9 6.5 15.5t15.5 6.5h134zM221 510q29 0 49.5 21.5t20.5 51.5t-20.5 51.5t-49.5 21.5h-112v-146h112z" />
<glyph unicode="&#x421;" horiz-adv-x="363" d="M291 133q9 0 15.5 -6.5t6.5 -15.5q0 -50 -36 -85.5t-88 -35.5q-51 0 -87.5 35.5t-36.5 85.5v478q0 50 36.5 85.5t87.5 35.5q52 0 88 -35.5t36 -85.5q0 -9 -6.5 -15.5t-15.5 -6.5t-15.5 6.5t-6.5 15.5q0 32 -23 54.5t-57 22.5q-33 0 -56.5 -22.5t-23.5 -54.5v-478 q0 -32 23.5 -54.5t56.5 -22.5q34 0 57 22.5t23 54.5q0 9 6.5 15.5t15.5 6.5z" />
<glyph unicode="&#x422;" horiz-adv-x="302" d="M255 700q9 0 15.5 -6.5t6.5 -15.5t-6.5 -15.5t-15.5 -6.5h-82v-634q0 -9 -6.5 -15.5t-15.5 -6.5t-15.5 6.5t-6.5 15.5v634h-82q-9 0 -15.5 6.5t-6.5 15.5t6.5 15.5t15.5 6.5h208z" />
<glyph unicode="&#x423;" horiz-adv-x="347" d="M290 699q11 0 18.5 -7.5t4.5 -20.5l-189 -655q-4 -16 -19 -16q-11 0 -19.5 8t-4.5 20l65 226l-121 417q-3 13 4.5 20.5t18.5 7.5q16 -2 20 -16l101 -350l101 350q4 14 20 16z" />
<glyph unicode="&#x424;" horiz-adv-x="454" d="M265 700q51 0 87.5 -35.5t36.5 -85.5v-458q0 -50 -36.5 -85.5t-87.5 -35.5h-16v-28q0 -9 -6.5 -15.5t-15.5 -6.5t-15.5 6.5t-6.5 15.5v28h-16q-51 0 -87.5 35.5t-36.5 85.5v458q0 50 36.5 85.5t87.5 35.5h16v28q0 9 6.5 15.5t15.5 6.5t15.5 -6.5t6.5 -15.5v-28h16z M189 44h16v612h-16q-33 0 -56.5 -22.5t-23.5 -54.5v-458q0 -32 23.5 -54.5t56.5 -22.5zM345 121v458q0 32 -23.5 54.5t-56.5 22.5h-16v-612h16q33 0 56.5 22.5t23.5 54.5z" />
<glyph unicode="&#x425;" horiz-adv-x="347" d="M311 29q4 -13 -3 -21t-18 -8q-16 0 -21 15l-95 277l-96 -277q-4 -15 -21 -15q-11 0 -18 8t-3 21l114 331l-107 311q-4 12 3.5 20.5t18.5 8.5q15 0 20 -15l89 -257l88 257q5 15 20 15q11 0 18.5 -8.5t3.5 -20.5l-107 -311z" />
<glyph unicode="&#x426;" horiz-adv-x="372" d="M109 44h150v634q0 9 6.5 15.5t15.5 6.5t15.5 -6.5t6.5 -15.5v-634h32q9 0 15.5 -6.5t6.5 -15.5v-129q0 -8 -6 -14t-14 -6t-14 6t-6 14v107h-230q-9 0 -15.5 6.5t-6.5 15.5v656q0 9 6.5 15.5t15.5 6.5t15.5 -6.5t6.5 -15.5v-634z" />
<glyph unicode="&#x427;" horiz-adv-x="363" d="M276 700q9 0 15.5 -6.5t6.5 -15.5v-656q0 -9 -6.5 -15.5t-15.5 -6.5t-15.5 6.5t-6.5 15.5v277q-38 -27 -80 -27q-52 0 -88 35.5t-36 85.5v285q0 9 6.5 15.5t15.5 6.5t15.5 -6.5t6.5 -15.5v-285q0 -32 23 -54.5t57 -22.5q46 0 80 29v333q0 9 6.5 15.5t15.5 6.5z" />
<glyph unicode="&#x428;" horiz-adv-x="462" d="M375 700q9 0 15.5 -6.5t6.5 -15.5v-656q0 -9 -6.5 -15.5t-15.5 -6.5h-288q-9 0 -15.5 6.5t-6.5 15.5v656q0 9 6.5 15.5t15.5 6.5t15.5 -6.5t6.5 -15.5v-634h100v634q0 9 6.5 15.5t15.5 6.5t15.5 -6.5t6.5 -15.5v-634h100v634q0 9 6.5 15.5t15.5 6.5z" />
<glyph unicode="&#x429;" horiz-adv-x="462" d="M429 44q9 0 15.5 -6.5t6.5 -15.5v-129q0 -8 -6 -14t-14 -6t-14 6t-6 14v107h-324q-9 0 -15.5 6.5t-6.5 15.5v656q0 9 6.5 15.5t15.5 6.5t15.5 -6.5t6.5 -15.5v-634h100v634q0 9 6.5 15.5t15.5 6.5t15.5 -6.5t6.5 -15.5v-634h100v634q0 9 6.5 15.5t15.5 6.5t15.5 -6.5 t6.5 -15.5v-634h32z" />
<glyph unicode="&#x42a;" horiz-adv-x="479" d="M251 506q84 0 143.5 -73.5t59.5 -179.5t-59.5 -179.5t-143.5 -73.5h-89q-8 0 -14.5 6.5t-6.5 15.5v634h-119q-9 0 -15.5 6.5t-6.5 15.5t6.5 15.5t15.5 6.5h141q10 0 16 -7t6 -15v-172h66zM251 44q67 0 113 60.5t46 148.5t-46 148.5t-113 60.5h-66v-418h66z" />
<glyph unicode="&#x42b;" horiz-adv-x="623" d="M175 506q84 0 143.5 -73.5t59.5 -179.5t-59.5 -179.5t-143.5 -73.5h-89q-8 0 -14.5 6.5t-6.5 15.5v656q0 8 6.5 15t15.5 7q10 0 16 -7t6 -15v-172h66zM462 22q0 -9 -6.5 -15.5t-15.5 -6.5t-15.5 6.5t-6.5 15.5v656q0 9 6.5 15.5t15.5 6.5t15.5 -6.5t6.5 -15.5v-656z M175 44q67 0 113 60.5t46 148.5t-46 148.5t-113 60.5h-66v-418h66z" />
<glyph unicode="&#x42c;" horiz-adv-x="403" d="M175 506q84 0 143.5 -73.5t59.5 -179.5t-59.5 -179.5t-143.5 -73.5h-89q-8 0 -14.5 6.5t-6.5 15.5v656q0 8 6.5 15t15.5 7q10 0 16 -7t6 -15v-172h66zM175 44q67 0 113 60.5t46 148.5t-46 148.5t-113 60.5h-66v-418h66z" />
<glyph unicode="&#x42d;" horiz-adv-x="363" d="M174 710q51 0 87.5 -35.5t36.5 -85.5v-478q0 -50 -36.5 -85.5t-87.5 -35.5q-52 0 -88 35.5t-36 85.5q0 9 6.5 15.5t15.5 6.5t15.5 -6.5t6.5 -15.5q0 -32 23 -54.5t57 -22.5q33 0 56.5 22.5t23.5 54.5v217h-127q-9 0 -15.5 6.5t-6.5 15.5t6.5 15.5t15.5 6.5h127v217 q0 32 -23.5 54.5t-56.5 22.5q-34 0 -57 -22.5t-23 -54.5q0 -9 -6.5 -15.5t-15.5 -6.5t-15.5 6.5t-6.5 15.5q0 50 36 85.5t88 35.5z" />
<glyph unicode="&#x42e;" horiz-adv-x="494" d="M305 710q51 0 87.5 -35.5t36.5 -85.5v-478q0 -50 -36.5 -85.5t-87.5 -35.5t-87.5 35.5t-36.5 85.5v217h-72v-306q0 -9 -6.5 -15.5t-15.5 -6.5t-15.5 6.5t-6.5 15.5v656q0 9 6.5 15.5t15.5 6.5t15.5 -6.5t6.5 -15.5v-306h72v217q0 50 36.5 85.5t87.5 35.5zM385 111v478 q0 32 -23.5 54.5t-56.5 22.5t-56.5 -22.5t-23.5 -54.5v-478q0 -32 23.5 -54.5t56.5 -22.5t56.5 22.5t23.5 54.5z" />
<glyph unicode="&#x42f;" horiz-adv-x="400" d="M291 22v444h-112q-30 0 -49.5 -19.5t-20.5 -48.5v-376q0 -9 -6.5 -15.5t-15.5 -6.5t-15.5 6.5t-6.5 15.5v376q0 60 52 91q-52 34 -52 94q0 48 33.5 82.5t80.5 34.5h134q9 0 15.5 -6.5t6.5 -15.5v-656q0 -9 -6.5 -15.5t-15.5 -6.5t-15.5 6.5t-6.5 15.5zM291 656h-112 q-29 0 -49.5 -21.5t-20.5 -51.5t20.5 -51.5t49.5 -21.5h112v146z" />
<glyph unicode="&#x430;" horiz-adv-x="368" d="M109 22q0 -9 -6.5 -15.5t-15.5 -6.5t-15.5 6.5t-6.5 15.5v562q0 52 35.5 89t83.5 37t83.5 -37t35.5 -89v-562q0 -9 -6.5 -15.5t-15.5 -6.5t-15.5 6.5t-6.5 15.5v306h-150v-306zM259 372v212q0 35 -21.5 58.5t-53.5 23.5t-53.5 -23.5t-21.5 -58.5v-212h150z" />
<glyph unicode="&#x431;" horiz-adv-x="383" d="M145 506q84 0 143.5 -73.5t59.5 -179.5t-59.5 -179.5t-143.5 -73.5h-59q-8 0 -14.5 6.5t-6.5 15.5v655q0 9 6.5 16t15.5 7h171q9 0 15.5 -6.5t6.5 -15.5t-6.5 -15.5t-15.5 -6.5h-149v-150h36zM145 44q67 0 113 60.5t46 148.5t-46 148.5t-113 60.5h-36v-418h36z" />
<glyph unicode="&#x432;" horiz-adv-x="403" d="M223 495q71 -26 113 -91t42 -151q0 -106 -59.5 -179.5t-143.5 -73.5h-89q-8 0 -14.5 6.5t-6.5 15.5v655q0 9 6.5 16t15.5 7h72q46 0 79 -34.5t33 -82.5q0 -60 -48 -88zM109 509h50q28 0 48 22t20 52t-20 51.5t-48 21.5h-50v-147zM175 44q67 0 113 60.5t46 148.5 t-46.5 150t-112.5 62h-66v-421h66z" />
<glyph unicode="&#x433;" horiz-adv-x="342" d="M285 700q9 0 15.5 -6.5t6.5 -15.5t-6.5 -15.5t-15.5 -6.5h-176v-634q0 -9 -6.5 -15.5t-15.5 -6.5t-15.5 6.5t-6.5 15.5v655q0 9 6.5 16t15.5 7h198z" />
<glyph unicode="&#x434;" horiz-adv-x="449" d="M397 44q9 0 15.5 -6.5t6.5 -15.5v-129q0 -8 -6 -14t-14 -6t-14 6t-6 14v107h-309v-107q0 -8 -6 -14t-14 -6t-14 6t-6 14v129q0 9 6.5 15.5t15.5 6.5h25l126 648q3 18 22 18t22 -18l126 -648h24zM225 596l-104 -552h207z" />
<glyph unicode="&#x435;" horiz-adv-x="294" d="M217 166h-108v-87q0 -14 11 -24.5t25 -10.5h72q9 0 15.5 -6.5t6.5 -15.5t-6.5 -15.5t-15.5 -6.5h-72q-33 0 -56.5 23t-23.5 56v542q0 33 23.5 56t56.5 23h72q9 0 15.5 -6.5t6.5 -15.5t-6.5 -15.5t-15.5 -6.5h-72q-14 0 -25 -10.5t-11 -24.5v-411h108q9 0 15.5 -6.5 t6.5 -15.5t-6.5 -15.5t-15.5 -6.5z" />
<glyph unicode="&#x436;" horiz-adv-x="498" d="M375 412q34 -4 53.5 -26.5t19.5 -54.5v-309q0 -9 -6.5 -15.5t-15.5 -6.5t-15.5 6.5t-6.5 15.5v309q0 19 -13 32t-32 13h-88v-354q0 -9 -6.5 -15.5t-15.5 -6.5t-15.5 6.5t-6.5 15.5v354h-88q-19 0 -32 -13t-13 -32v-309q0 -9 -6.5 -15.5t-15.5 -6.5t-15.5 6.5t-6.5 15.5 v309q0 32 19.5 54.5t53.5 26.5q-22 23 -22 52v180q0 9 6.5 15.5t15.5 6.5t15.5 -6.5t6.5 -15.5v-180q0 -18 12.5 -31t29.5 -13h40v258q0 9 6.5 15.5t15.5 6.5t15.5 -6.5t6.5 -15.5v-258h40q17 0 29.5 13t12.5 31v180q0 9 6.5 15.5t15.5 6.5t15.5 -6.5t6.5 -15.5v-180 q0 -29 -22 -52z" />
<glyph unicode="&#x437;" horiz-adv-x="323" d="M211 489q32 -9 52 -40t20 -65v-268q0 -53 -35.5 -89.5t-88.5 -36.5t-88.5 36.5t-35.5 89.5q0 9 6.5 15.5t15.5 6.5t15.5 -6.5t6.5 -15.5q0 -35 22.5 -58.5t57.5 -23.5t57.5 24t22.5 58v268q0 37 -21 59.5t-59 22.5h-53q-9 0 -15.5 6.5t-6.5 15.5t6.5 15.5t15.5 6.5h53 q36 0 58 21.5t22 57.5q0 32 -23.5 54.5t-56.5 22.5q-34 0 -57 -22.5t-23 -54.5q0 -9 -6.5 -15.5t-15.5 -6.5t-15.5 6.5t-6.5 15.5q0 50 36 85.5t88 35.5q51 0 87.5 -35.5t36.5 -85.5q0 -35 -20.5 -63.5t-51.5 -36.5z" />
<glyph unicode="&#x438;" d="M87 700q9 0 15.5 -6.5t6.5 -15.5v-512l161 519q5 15 21 15q9 0 15.5 -6.5t6.5 -15.5v-656q0 -9 -6.5 -15.5t-15.5 -6.5t-15.5 6.5t-6.5 15.5v512l-161 -519q-5 -15 -21 -15q-9 0 -15.5 6.5t-6.5 15.5v656q0 9 6.5 15.5t15.5 6.5z" />
<glyph unicode="&#x439;" d="M265 821q0 -32 -20.5 -51.5t-54.5 -19.5t-54.5 19.5t-20.5 51.5q0 23 21 23t21 -23q0 -16 9 -25.5t24 -9.5t24 9.5t9 25.5q0 23 21 23t21 -23zM87 700q9 0 15.5 -6.5t6.5 -15.5v-512l161 519q5 15 21 15q9 0 15.5 -6.5t6.5 -15.5v-656q0 -9 -6.5 -15.5t-15.5 -6.5 t-15.5 6.5t-6.5 15.5v512l-161 -519q-5 -15 -21 -15q-9 0 -15.5 6.5t-6.5 15.5v656q0 9 6.5 15.5t15.5 6.5z" />
<glyph unicode="&#x43a;" horiz-adv-x="366" d="M243 412q34 -4 53.5 -26.5t19.5 -54.5v-309q0 -9 -6.5 -15.5t-15.5 -6.5t-15.5 6.5t-6.5 15.5v309q0 19 -13 32t-32 13h-118v-354q0 -9 -6.5 -15.5t-15.5 -6.5t-15.5 6.5t-6.5 15.5v656q0 9 6.5 15.5t15.5 6.5t15.5 -6.5t6.5 -15.5v-258h70q17 0 29.5 13t12.5 31v120 q0 9 6.5 15.5t15.5 6.5t15.5 -6.5t6.5 -15.5v-120q0 -29 -22 -52z" />
<glyph unicode="&#x43b;" horiz-adv-x="316" d="M286 25q1 -11 -6 -18t-17 -7q-18 0 -21 18l-83 559l-84 -559q-3 -18 -21 -18q-11 0 -18 7t-5 18l106 665q3 20 22 20q17 0 21 -20z" />
<glyph unicode="&#x43c;" horiz-adv-x="386" d="M299 0q-9 0 -15.5 6.5t-6.5 15.5v519l-62 -195q-5 -18 -22 -18t-22 18l-62 195v-519q0 -9 -6.5 -15.5t-15.5 -6.5t-15.5 6.5t-6.5 15.5v656q0 9 6.5 15.5t15.5 6.5q16 0 21 -16l85 -268l85 268q5 16 21 16q9 0 15.5 -6.5t6.5 -15.5v-656q0 -9 -6.5 -15.5t-15.5 -6.5z" />
<glyph unicode="&#x43d;" horiz-adv-x="368" d="M109 372h150v306q0 9 6.5 15.5t15.5 6.5t15.5 -6.5t6.5 -15.5v-656q0 -9 -6.5 -15.5t-15.5 -6.5t-15.5 6.5t-6.5 15.5v306h-150v-306q0 -9 -6.5 -15.5t-15.5 -6.5t-15.5 6.5t-6.5 15.5v656q0 9 6.5 15.5t15.5 6.5t15.5 -6.5t6.5 -15.5v-306z" />
<glyph unicode="&#x43e;" d="M189 -10q51 0 87.5 35.5t36.5 85.5v478q0 50 -36.5 85.5t-87.5 35.5t-87.5 -35.5t-36.5 -85.5v-478q0 -50 36.5 -85.5t87.5 -35.5zM189 666q33 0 56.5 -22.5t23.5 -54.5v-478q0 -32 -23.5 -54.5t-56.5 -22.5t-56.5 22.5t-23.5 54.5v478q0 32 23.5 54.5t56.5 22.5z" />
<glyph unicode="&#x43f;" horiz-adv-x="368" d="M109 22q0 -9 -6.5 -15.5t-15.5 -6.5t-15.5 6.5t-6.5 15.5v656q0 9 6.5 15.5t15.5 6.5h194q9 0 15.5 -6.5t6.5 -15.5v-656q0 -9 -6.5 -15.5t-15.5 -6.5t-15.5 6.5t-6.5 15.5v634h-150v-634z" />
<glyph unicode="&#x440;" horiz-adv-x="380" d="M221 700q47 0 80.5 -34.5t33.5 -82.5t-33.5 -82.5t-80.5 -34.5h-112v-444q0 -9 -6.5 -15.5t-15.5 -6.5t-15.5 6.5t-6.5 15.5v656q0 9 6.5 15.5t15.5 6.5h134zM221 510q29 0 49.5 21.5t20.5 51.5t-20.5 51.5t-49.5 21.5h-112v-146h112z" />
<glyph unicode="&#x441;" horiz-adv-x="363" d="M291 133q9 0 15.5 -6.5t6.5 -15.5q0 -50 -36 -85.5t-88 -35.5q-51 0 -87.5 35.5t-36.5 85.5v478q0 50 36.5 85.5t87.5 35.5q52 0 88 -35.5t36 -85.5q0 -9 -6.5 -15.5t-15.5 -6.5t-15.5 6.5t-6.5 15.5q0 32 -23 54.5t-57 22.5q-33 0 -56.5 -22.5t-23.5 -54.5v-478 q0 -32 23.5 -54.5t56.5 -22.5q34 0 57 22.5t23 54.5q0 9 6.5 15.5t15.5 6.5z" />
<glyph unicode="&#x442;" horiz-adv-x="302" d="M255 700q9 0 15.5 -6.5t6.5 -15.5t-6.5 -15.5t-15.5 -6.5h-82v-634q0 -9 -6.5 -15.5t-15.5 -6.5t-15.5 6.5t-6.5 15.5v634h-82q-9 0 -15.5 6.5t-6.5 15.5t6.5 15.5t15.5 6.5h208z" />
<glyph unicode="&#x443;" horiz-adv-x="347" d="M290 699q11 0 18.5 -7.5t4.5 -20.5l-189 -655q-4 -16 -19 -16q-11 0 -19.5 8t-4.5 20l65 226l-121 417q-3 13 4.5 20.5t18.5 7.5q16 -2 20 -16l101 -350l101 350q4 14 20 16z" />
<glyph unicode="&#x444;" horiz-adv-x="454" d="M265 700q51 0 87.5 -35.5t36.5 -85.5v-458q0 -50 -36.5 -85.5t-87.5 -35.5h-16v-28q0 -9 -6.5 -15.5t-15.5 -6.5t-15.5 6.5t-6.5 15.5v28h-16q-51 0 -87.5 35.5t-36.5 85.5v458q0 50 36.5 85.5t87.5 35.5h16v28q0 9 6.5 15.5t15.5 6.5t15.5 -6.5t6.5 -15.5v-28h16z M189 44h16v612h-16q-33 0 -56.5 -22.5t-23.5 -54.5v-458q0 -32 23.5 -54.5t56.5 -22.5zM345 121v458q0 32 -23.5 54.5t-56.5 22.5h-16v-612h16q33 0 56.5 22.5t23.5 54.5z" />
<glyph unicode="&#x445;" horiz-adv-x="347" d="M311 29q4 -13 -3 -21t-18 -8q-16 0 -21 15l-95 277l-96 -277q-4 -15 -21 -15q-11 0 -18 8t-3 21l114 331l-107 311q-4 12 3.5 20.5t18.5 8.5q15 0 20 -15l89 -257l88 257q5 15 20 15q11 0 18.5 -8.5t3.5 -20.5l-107 -311z" />
<glyph unicode="&#x446;" horiz-adv-x="372" d="M109 44h150v634q0 9 6.5 15.5t15.5 6.5t15.5 -6.5t6.5 -15.5v-634h32q9 0 15.5 -6.5t6.5 -15.5v-129q0 -8 -6 -14t-14 -6t-14 6t-6 14v107h-230q-9 0 -15.5 6.5t-6.5 15.5v656q0 9 6.5 15.5t15.5 6.5t15.5 -6.5t6.5 -15.5v-634z" />
<glyph unicode="&#x447;" horiz-adv-x="363" d="M276 700q9 0 15.5 -6.5t6.5 -15.5v-656q0 -9 -6.5 -15.5t-15.5 -6.5t-15.5 6.5t-6.5 15.5v277q-38 -27 -80 -27q-52 0 -88 35.5t-36 85.5v285q0 9 6.5 15.5t15.5 6.5t15.5 -6.5t6.5 -15.5v-285q0 -32 23 -54.5t57 -22.5q46 0 80 29v333q0 9 6.5 15.5t15.5 6.5z" />
<glyph unicode="&#x448;" horiz-adv-x="462" d="M375 700q9 0 15.5 -6.5t6.5 -15.5v-656q0 -9 -6.5 -15.5t-15.5 -6.5h-288q-9 0 -15.5 6.5t-6.5 15.5v656q0 9 6.5 15.5t15.5 6.5t15.5 -6.5t6.5 -15.5v-634h100v634q0 9 6.5 15.5t15.5 6.5t15.5 -6.5t6.5 -15.5v-634h100v634q0 9 6.5 15.5t15.5 6.5z" />
<glyph unicode="&#x449;" horiz-adv-x="462" d="M429 44q9 0 15.5 -6.5t6.5 -15.5v-129q0 -8 -6 -14t-14 -6t-14 6t-6 14v107h-324q-9 0 -15.5 6.5t-6.5 15.5v656q0 9 6.5 15.5t15.5 6.5t15.5 -6.5t6.5 -15.5v-634h100v634q0 9 6.5 15.5t15.5 6.5t15.5 -6.5t6.5 -15.5v-634h100v634q0 9 6.5 15.5t15.5 6.5t15.5 -6.5 t6.5 -15.5v-634h32z" />
<glyph unicode="&#x44a;" horiz-adv-x="479" d="M251 506q84 0 143.5 -73.5t59.5 -179.5t-59.5 -179.5t-143.5 -73.5h-89q-8 0 -14.5 6.5t-6.5 15.5v634h-119q-9 0 -15.5 6.5t-6.5 15.5t6.5 15.5t15.5 6.5h141q10 0 16 -7t6 -15v-172h66zM251 44q67 0 113 60.5t46 148.5t-46 148.5t-113 60.5h-66v-418h66z" />
<glyph unicode="&#x44b;" horiz-adv-x="527" d="M175 506q84 0 143.5 -73.5t59.5 -179.5t-59.5 -179.5t-143.5 -73.5h-89q-8 0 -14.5 6.5t-6.5 15.5v656q0 8 6.5 15t15.5 7q10 0 16 -7t6 -15v-172h66zM462 22q0 -9 -6.5 -15.5t-15.5 -6.5t-15.5 6.5t-6.5 15.5v656q0 9 6.5 15.5t15.5 6.5t15.5 -6.5t6.5 -15.5v-656z M175 44q67 0 113 60.5t46 148.5t-46 148.5t-113 60.5h-66v-418h66z" />
<glyph unicode="&#x44c;" horiz-adv-x="403" d="M175 506q84 0 143.5 -73.5t59.5 -179.5t-59.5 -179.5t-143.5 -73.5h-89q-8 0 -14.5 6.5t-6.5 15.5v656q0 8 6.5 15t15.5 7q10 0 16 -7t6 -15v-172h66zM175 44q67 0 113 60.5t46 148.5t-46 148.5t-113 60.5h-66v-418h66z" />
<glyph unicode="&#x44d;" horiz-adv-x="363" d="M174 710q51 0 87.5 -35.5t36.5 -85.5v-478q0 -50 -36.5 -85.5t-87.5 -35.5q-52 0 -88 35.5t-36 85.5q0 9 6.5 15.5t15.5 6.5t15.5 -6.5t6.5 -15.5q0 -32 23 -54.5t57 -22.5q33 0 56.5 22.5t23.5 54.5v217h-127q-9 0 -15.5 6.5t-6.5 15.5t6.5 15.5t15.5 6.5h127v217 q0 32 -23.5 54.5t-56.5 22.5q-34 0 -57 -22.5t-23 -54.5q0 -9 -6.5 -15.5t-15.5 -6.5t-15.5 6.5t-6.5 15.5q0 50 36 85.5t88 35.5z" />
<glyph unicode="&#x44e;" horiz-adv-x="494" d="M305 710q51 0 87.5 -35.5t36.5 -85.5v-478q0 -50 -36.5 -85.5t-87.5 -35.5t-87.5 35.5t-36.5 85.5v217h-72v-306q0 -9 -6.5 -15.5t-15.5 -6.5t-15.5 6.5t-6.5 15.5v656q0 9 6.5 15.5t15.5 6.5t15.5 -6.5t6.5 -15.5v-306h72v217q0 50 36.5 85.5t87.5 35.5zM385 111v478 q0 32 -23.5 54.5t-56.5 22.5t-56.5 -22.5t-23.5 -54.5v-478q0 -32 23.5 -54.5t56.5 -22.5t56.5 22.5t23.5 54.5z" />
<glyph unicode="&#x44f;" horiz-adv-x="400" d="M291 22v444h-112q-30 0 -49.5 -19.5t-20.5 -48.5v-376q0 -9 -6.5 -15.5t-15.5 -6.5t-15.5 6.5t-6.5 15.5v376q0 60 52 91q-52 34 -52 94q0 48 33.5 82.5t80.5 34.5h134q9 0 15.5 -6.5t6.5 -15.5v-656q0 -9 -6.5 -15.5t-15.5 -6.5t-15.5 6.5t-6.5 15.5zM291 656h-112 q-29 0 -49.5 -21.5t-20.5 -51.5t20.5 -51.5t49.5 -21.5h112v146z" />
<glyph unicode="&#x451;" horiz-adv-x="294" d="M108 762q-14 0 -24 10t-10 24t10 24t24 10t24 -10t10 -24t-10 -24t-24 -10zM208 762q-14 0 -24 10t-10 24t10 24t24 10t24 -10t10 -24t-10 -24t-24 -10zM109 621v-411h108q9 0 15.5 -6.5t6.5 -15.5t-6.5 -15.5t-15.5 -6.5h-108v-87q0 -14 11 -24.5t25 -10.5h72 q9 0 15.5 -6.5t6.5 -15.5t-6.5 -15.5t-15.5 -6.5h-72q-33 0 -56.5 23t-23.5 56v542q0 33 23.5 56t56.5 23h72q9 0 15.5 -6.5t6.5 -15.5t-6.5 -15.5t-15.5 -6.5h-72q-14 0 -25 -10.5t-11 -24.5z" />
<glyph unicode="&#x1e80;" horiz-adv-x="386" d="M166 839l62 -54q11 -11 5.5 -23t-18.5 -12q-6 0 -13 5l-63 51q-13 11 -6.5 24.5t20.5 13.5q5 0 13 -5zM299 700q9 0 15.5 -6.5t6.5 -15.5v-656q0 -9 -6.5 -15.5t-15.5 -6.5q-16 0 -21 16l-85 268l-85 -268q-5 -16 -21 -16q-9 0 -15.5 6.5t-6.5 15.5v656q0 9 6.5 15.5 t15.5 6.5t15.5 -6.5t6.5 -15.5v-519l62 195q5 18 22 18t22 -18l62 -195v519q0 9 6.5 15.5t15.5 6.5z" />
<glyph unicode="&#x1e81;" horiz-adv-x="386" d="M166 839l62 -54q11 -11 5.5 -23t-18.5 -12q-6 0 -13 5l-63 51q-13 11 -6.5 24.5t20.5 13.5q5 0 13 -5zM299 700q9 0 15.5 -6.5t6.5 -15.5v-656q0 -9 -6.5 -15.5t-15.5 -6.5q-16 0 -21 16l-85 268l-85 -268q-5 -16 -21 -16q-9 0 -15.5 6.5t-6.5 15.5v656q0 9 6.5 15.5 t15.5 6.5t15.5 -6.5t6.5 -15.5v-519l62 195q5 18 22 18t22 -18l62 -195v519q0 9 6.5 15.5t15.5 6.5z" />
<glyph unicode="&#x1e82;" horiz-adv-x="386" d="M222 839q8 5 13 5q14 0 20.5 -13.5t-6.5 -24.5l-63 -51q-7 -5 -13 -5q-13 0 -18.5 12t5.5 23zM299 700q9 0 15.5 -6.5t6.5 -15.5v-656q0 -9 -6.5 -15.5t-15.5 -6.5q-16 0 -21 16l-85 268l-85 -268q-5 -16 -21 -16q-9 0 -15.5 6.5t-6.5 15.5v656q0 9 6.5 15.5t15.5 6.5 t15.5 -6.5t6.5 -15.5v-519l62 195q5 18 22 18t22 -18l62 -195v519q0 9 6.5 15.5t15.5 6.5z" />
<glyph unicode="&#x1e83;" horiz-adv-x="386" d="M222 839q8 5 13 5q14 0 20.5 -13.5t-6.5 -24.5l-63 -51q-7 -5 -13 -5q-13 0 -18.5 12t5.5 23zM299 700q9 0 15.5 -6.5t6.5 -15.5v-656q0 -9 -6.5 -15.5t-15.5 -6.5q-16 0 -21 16l-85 268l-85 -268q-5 -16 -21 -16q-9 0 -15.5 6.5t-6.5 15.5v656q0 9 6.5 15.5t15.5 6.5 t15.5 -6.5t6.5 -15.5v-519l62 195q5 18 22 18t22 -18l62 -195v519q0 9 6.5 15.5t15.5 6.5z" />
<glyph unicode="&#x1e84;" horiz-adv-x="386" d="M143 762q-14 0 -24 10t-10 24t10 24t24 10t24 -10t10 -24t-10 -24t-24 -10zM243 762q-14 0 -24 10t-10 24t10 24t24 10t24 -10t10 -24t-10 -24t-24 -10zM299 700q9 0 15.5 -6.5t6.5 -15.5v-656q0 -9 -6.5 -15.5t-15.5 -6.5q-16 0 -21 16l-85 268l-85 -268q-5 -16 -21 -16 q-9 0 -15.5 6.5t-6.5 15.5v656q0 9 6.5 15.5t15.5 6.5t15.5 -6.5t6.5 -15.5v-519l62 195q5 18 22 18t22 -18l62 -195v519q0 9 6.5 15.5t15.5 6.5z" />
<glyph unicode="&#x1e85;" horiz-adv-x="386" d="M143 762q-14 0 -24 10t-10 24t10 24t24 10t24 -10t10 -24t-10 -24t-24 -10zM243 762q-14 0 -24 10t-10 24t10 24t24 10t24 -10t10 -24t-10 -24t-24 -10zM299 700q9 0 15.5 -6.5t6.5 -15.5v-656q0 -9 -6.5 -15.5t-15.5 -6.5q-16 0 -21 16l-85 268l-85 -268q-5 -16 -21 -16 q-9 0 -15.5 6.5t-6.5 15.5v656q0 9 6.5 15.5t15.5 6.5t15.5 -6.5t6.5 -15.5v-519l62 195q5 18 22 18t22 -18l62 -195v519q0 9 6.5 15.5t15.5 6.5z" />
<glyph unicode="&#x1ef2;" horiz-adv-x="324" d="M136 839l62 -54q11 -11 5.5 -23t-18.5 -12q-6 0 -13 5l-63 51q-13 11 -6.5 24.5t20.5 13.5q5 0 13 -5zM271 700q11 0 18.5 -8.5t3.5 -20.5l-108 -313v-336q0 -9 -6.5 -15.5t-15.5 -6.5t-15.5 6.5t-6.5 15.5v336l-109 313q-4 12 3.5 20.5t18.5 8.5q15 0 20 -15l89 -257 l88 257q5 15 20 15z" />
<glyph unicode="&#x1ef3;" horiz-adv-x="324" d="M136 839l62 -54q11 -11 5.5 -23t-18.5 -12q-6 0 -13 5l-63 51q-13 11 -6.5 24.5t20.5 13.5q5 0 13 -5zM271 700q11 0 18.5 -8.5t3.5 -20.5l-108 -313v-336q0 -9 -6.5 -15.5t-15.5 -6.5t-15.5 6.5t-6.5 15.5v336l-109 313q-4 12 3.5 20.5t18.5 8.5q15 0 20 -15l89 -257 l88 257q5 15 20 15z" />
<glyph unicode="&#x2013;" horiz-adv-x="354" d="M332 272q9 0 15.5 -6.5t6.5 -15.5t-6.5 -15.5t-15.5 -6.5h-310q-9 0 -15.5 6.5t-6.5 15.5t6.5 15.5t15.5 6.5h310z" />
<glyph unicode="&#x2014;" horiz-adv-x="427" d="M405 272q9 0 15.5 -6.5t6.5 -15.5t-6.5 -15.5t-15.5 -6.5h-383q-9 0 -15.5 6.5t-6.5 15.5t6.5 15.5t15.5 6.5h383z" />
<glyph unicode="&#x2018;" horiz-adv-x="88" d="M14 620l21 65q4 15 19 15q10 0 16 -7t3 -18l-11 -46q16 -9 16 -27q0 -15 -9.5 -24.5t-25.5 -9.5q-15 0 -24 9t-9 24q0 7 4 19z" />
<glyph unicode="&#x2019;" horiz-adv-x="88" d="M74 648l-21 -65q-5 -15 -19 -15q-10 0 -16 7t-3 18l11 46q-16 9 -16 27q0 15 9.5 24.5t25.5 9.5q15 0 24 -9t9 -24q0 -7 -4 -19z" />
<glyph unicode="&#x201a;" horiz-adv-x="88" d="M74 15l-21 -65q-5 -15 -19 -15q-10 0 -16 7t-3 18l11 46q-16 9 -16 27q0 15 9.5 24.5t25.5 9.5q15 0 24 -9t9 -24q0 -7 -4 -19z" />
<glyph unicode="&#x201c;" horiz-adv-x="178" d="M14 620l21 65q4 15 19 15q10 0 16 -7t3 -18l-11 -46q16 -9 16 -27q0 -15 -9.5 -24.5t-25.5 -9.5q-15 0 -24 9t-9 24q0 7 4 19zM104 620l21 65q5 15 19 15q10 0 16 -7t3 -18l-11 -46q16 -9 16 -27q0 -15 -9.5 -24.5t-25.5 -9.5q-15 0 -24 9t-9 24q0 7 4 19z" />
<glyph unicode="&#x201d;" horiz-adv-x="178" d="M74 648l-21 -65q-5 -15 -19 -15q-10 0 -16 7t-3 18l11 46q-16 9 -16 27q0 15 9.5 24.5t25.5 9.5q15 0 24 -9t9 -24q0 -7 -4 -19zM164 648l-21 -65q-5 -15 -19 -15q-10 0 -16 7t-3 18l11 46q-16 9 -16 27q0 15 9.5 24.5t25.5 9.5q15 0 24 -9t9 -24q0 -7 -4 -19z" />
<glyph unicode="&#x201e;" horiz-adv-x="178" d="M74 15l-21 -65q-5 -15 -19 -15q-10 0 -16 7t-3 18l11 46q-16 9 -16 27q0 15 9.5 24.5t25.5 9.5q15 0 24 -9t9 -24q0 -7 -4 -19zM164 15l-21 -65q-4 -15 -19 -15q-10 0 -16 7t-3 18l11 46q-16 9 -16 27q0 15 9.5 24.5t25.5 9.5q15 0 24 -9t9 -24q0 -7 -4 -19z" />
<glyph unicode="&#x2022;" horiz-adv-x="313" d="M50 251q0 -44 31 -75.5t75 -31.5t75.5 31.5t31.5 75.5t-31 75t-75 31t-75.5 -31t-31.5 -75z" />
<glyph unicode="&#x2026;" d="M59 0q-14 0 -24 10t-10 24t10 23.5t24 9.5t24 -9.5t10 -23.5t-10 -24t-24 -10zM189 0q-14 0 -24 10t-10 24t10 23.5t24 9.5t24 -9.5t10 -23.5t-10 -24t-24 -10zM319 0q-14 0 -24 10t-10 24t10 23.5t24 9.5t24 -9.5t10 -23.5t-10 -24t-24 -10z" />
<glyph unicode="&#x2044;" horiz-adv-x="290" d="M265 734l-273 -756q-6 -15 10 -24q16 -5 25 12l271 755q6 16 -11 24q-5 2 -12.5 -1t-9.5 -10z" />
<glyph unicode="&#x20ac;" horiz-adv-x="383" d="M301 133q9 0 15.5 -6.5t6.5 -15.5q0 -50 -36 -85.5t-88 -35.5q-51 0 -87.5 35.5t-36.5 85.5v176h-57q-8 0 -13 5.5t-5 12.5t5 12.5t13 5.5h57v54h-57q-8 0 -13 5.5t-5 12.5t5 12.5t13 5.5h57v176q0 50 36.5 85.5t87.5 35.5q52 0 88 -35.5t36 -85.5q0 -9 -6.5 -15.5 t-15.5 -6.5t-15.5 6.5t-6.5 15.5q0 32 -23 54.5t-57 22.5q-33 0 -56.5 -22.5t-23.5 -54.5v-176h111q8 0 13 -5.5t5 -12.5t-5 -12.5t-13 -5.5h-111v-54h111q8 0 13 -5.5t5 -12.5t-5 -12.5t-13 -5.5h-111v-176q0 -32 23.5 -54.5t56.5 -22.5q34 0 57 22.5t23 54.5q0 9 6.5 15.5 t15.5 6.5z" />
<glyph unicode="&#x2212;" horiz-adv-x="414" d="M362 272q9 0 15.5 -6.5t6.5 -15.5t-6.5 -15.5t-15.5 -6.5h-310q-9 0 -15.5 6.5t-6.5 15.5t6.5 15.5t15.5 6.5h310z" />
<glyph unicode="&#x25fc;" horiz-adv-x="700" d="M0 700h700v-700h-700v700z" />
<glyph horiz-adv-x="316" d="M286 25q1 -11 -6 -18t-17 -7q-18 0 -21 18l-19 129h-129l-19 -129q-3 -18 -21 -18q-11 0 -18 7t-5 18l106 665q3 20 22 20q17 0 21 -20zM100 187h117l-58 390z" />
<glyph horiz-adv-x="353" d="M241 362q33 -10 55 -40.5t22 -64.5v-131q0 -52 -38 -89t-91 -37h-102q-9 0 -15.5 6.5t-6.5 15.5v656q0 9 6.5 15.5t15.5 6.5h94q51 0 87.5 -35.5t36.5 -85.5v-119q0 -33 -16.5 -61.5t-47.5 -36.5zM109 656v-273h80q35 0 53.5 20.5t18.5 56.5v119q0 32 -23.5 54.5 t-56.5 22.5h-72zM274 126v131q0 37 -23.5 59.5t-61.5 22.5h-80v-295h80q35 0 60 24t25 58z" />
<glyph horiz-adv-x="294" d="M217 328h-108v-284h108q9 0 15.5 -6.5t6.5 -15.5t-6.5 -15.5t-15.5 -6.5h-130q-9 0 -15.5 7t-6.5 16v654q0 9 6.5 16t15.5 7h130q9 0 15.5 -6.5t6.5 -15.5t-6.5 -15.5t-15.5 -6.5h-108v-284h108q9 0 15.5 -6.5t6.5 -15.5t-6.5 -15.5t-15.5 -6.5z" />
<glyph horiz-adv-x="270" d="M135 758q-16 0 -27 11t-11 27t11 27t27 11t27 -11t11 -27t-11 -27t-27 -11zM193 44q9 0 15.5 -6.5t6.5 -15.5t-6.5 -15.5t-15.5 -6.5q-37 0 -58 30q-21 -30 -58 -30q-9 0 -15.5 6.5t-6.5 15.5t6.5 15.5t15.5 6.5q16 0 26 11t10 24v542q0 13 -10 24t-26 11q-9 0 -15.5 6.5 t-6.5 15.5t6.5 15.5t15.5 6.5q37 0 58 -30q21 30 58 30q9 0 15.5 -6.5t6.5 -15.5t-6.5 -15.5t-15.5 -6.5q-16 0 -26 -11t-10 -24v-542q0 -13 10 -24t26 -11z" />
<glyph horiz-adv-x="504" d="M187 500q52 0 89 -36.5t37 -89.5v-248q0 -53 -37 -89.5t-89 -36.5h-100q-9 0 -15.5 6.5t-6.5 15.5v656q0 9 6.5 15.5t15.5 6.5t15.5 -6.5t6.5 -15.5v-178h78zM439 22q0 -9 -6.5 -15.5t-15.5 -6.5t-15.5 6.5t-6.5 15.5v656q0 9 6.5 15.5t15.5 6.5t15.5 -6.5t6.5 -15.5 v-656zM269 126v248q0 34 -24 58t-58 24h-78v-412h78q34 0 58 24t24 58z" />
<glyph horiz-adv-x="348" d="M187 500q52 0 89 -36.5t37 -89.5v-248q0 -53 -37 -89.5t-89 -36.5h-100q-9 0 -15.5 6.5t-6.5 15.5v656q0 9 6.5 15.5t15.5 6.5t15.5 -6.5t6.5 -15.5v-178h78zM269 126v248q0 34 -24 58t-58 24h-78v-412h78q34 0 58 24t24 58z" />
<glyph horiz-adv-x="424" d="M263 500q52 0 89 -36.5t37 -89.5v-248q0 -53 -37 -89.5t-89 -36.5h-100q-9 0 -15.5 6.5t-6.5 15.5v634h-119q-9 0 -15.5 6.5t-6.5 15.5t6.5 15.5t15.5 6.5h141q9 0 15.5 -6.5t6.5 -15.5v-178h78zM345 126v248q0 34 -24 58t-58 24h-78v-412h78q34 0 58 24t24 58z" />
<glyph horiz-adv-x="456" d="M424 572q9 0 15.5 -6.5t6.5 -15.5t-6.5 -15.5t-15.5 -6.5h-72l-63 -356h64q9 0 15.5 -6.5t6.5 -15.5t-6.5 -15.5t-15.5 -6.5h-72l-19 -110q-3 -18 -21 -18q-10 0 -17 7t-5 18l18 103h-96l-19 -110q-3 -18 -21 -18q-10 0 -17 7t-5 18l18 103h-65q-9 0 -15.5 6.5t-6.5 15.5 t6.5 15.5t15.5 6.5h73l62 356h-64q-9 0 -15.5 6.5t-6.5 15.5t6.5 15.5t15.5 6.5h72l19 110q3 18 22 18q10 0 17 -7t5 -18l-18 -103h95l19 110q3 18 22 18q10 0 17 -7t5 -18l-18 -103h64zM245 172l62 356h-95l-63 -356h96z" />
<glyph horiz-adv-x="250" d="M200 821q0 -32 -20.5 -51.5t-54.5 -19.5t-54.5 19.5t-20.5 51.5q0 23 21 23t21 -23q0 -16 9 -25.5t24 -9.5t24 9.5t9 25.5q0 23 21 23t21 -23z" />
<glyph horiz-adv-x="250" d="M200 821q0 -32 -20.5 -51.5t-54.5 -19.5t-54.5 19.5t-20.5 51.5q0 23 21 23t21 -23q0 -16 9 -25.5t24 -9.5t24 9.5t9 25.5q0 23 21 23t21 -23z" />
</font>
</defs>
</svg>
